<svg id="Layer_1" data-name="Layer 1" xmlns="http://www.w3.org/2000/svg" viewBox="0 0 595.28 841.89"><defs><style>.cls-1{fill:#faa74a;}.cls-1,.cls-2,.cls-3,.cls-4,.cls-5,.cls-6,.cls-7,.cls-8{fill-rule:evenodd;}.cls-2{fill:#6d6e71;}.cls-3{fill:#231f20;}.cls-4{fill:none;stroke:#6d6e71;stroke-miterlimit:22.93;stroke-width:12.28px;}.cls-5{fill:#58595b;}.cls-6{fill:#3d413e;}.cls-7{fill:#62aee0;}.cls-8{fill:#fff;}</style></defs><title>login</title><polygon class="cls-1" points="361.83 582.39 364.55 575.36 367.33 570.4 372.82 570.21 377.89 580.34 379.12 602.27 373.36 623.25 370.05 629.56 362.32 637.24 354.11 640.81 339.64 639.16 334.86 636.69 342.34 627.37 352.15 613.66 358.77 589.93 361.83 582.39"/><polygon class="cls-1" points="206.01 582.39 203.28 575.36 200.5 570.4 195.02 570.21 189.95 580.34 188.72 602.27 194.48 623.25 197.79 629.56 205.51 637.24 213.73 640.81 228.19 639.16 232.97 636.69 225.5 627.37 215.69 613.66 209.07 589.93 206.01 582.39"/><path class="cls-2" d="M232.61,173.92a31.46,31.46,0,0,0,6.31-2.62,33.68,33.68,0,0,0,6.18-4.42,55.72,55.72,0,0,0,5.71-5.9,57.14,57.14,0,0,0,4.82-6.74,68.24,68.24,0,0,0,3.92-7.43,64.18,64.18,0,0,0,2.9-7.79,58.84,58.84,0,0,0,1.75-7.61,41.26,41.26,0,0,0,.53-6.76,34.07,34.07,0,0,0-.71-6.78,24.07,24.07,0,0,0-1.87-5.5,13,13,0,0,0-2.64-3.73,11.37,11.37,0,0,0-3.7-2.32h0a13.85,13.85,0,0,0-5.65-.62,24,24,0,0,0-7.34,1.91,60.21,60.21,0,0,0-8.9,4.72,94.67,94.67,0,0,0-9.66,7.05q-5.1,4.2-10.25,9.24t-10.54,11.06q-5.46,6.15-10.58,12.49t-10.32,13.47q-5.1,7-9.88,14.13-4.66,7-9.27,14.53T155,208.76q-3.83,6.92-7.28,14-3.36,6.84-6,13.14T137.28,248a84.06,84.06,0,0,0-2.69,10.29,41.69,41.69,0,0,0-.8,7.94,20.51,20.51,0,0,0,.38,3.82,13.92,13.92,0,0,0,.93,2.95,15.1,15.1,0,0,0,1.51,2.64,12.35,12.35,0,0,0,1.8,2.05,13.54,13.54,0,0,0,2.26,1.66,14.9,14.9,0,0,0,2.69,1.21,18.84,18.84,0,0,0,3.18.76,20.93,20.93,0,0,0,3.47.23,41.24,41.24,0,0,0,7.31-.83,61,61,0,0,0,8.4-2.31q4.58-1.59,9.24-3.63t9.52-4.58c3.39-1.76,6.63-3.56,9.72-5.37s6.36-3.84,9.73-6q4.8-3.12,9.51-6.41t8.94-6.47q4.4-3.3,8.21-6.38,3.54-2.85,7.31-6.16,3.54-3.09,6.23-5.59t4.8-4.64l3.34-3.41c.57-.89-.19.28,2.73-4.25l.06-.07c1.3-1.93-.86,1.27,1.86-2.83,3.28-4.91,1-1.41,2.49-3.71l2.87-4.38,3.14-4.78,3.31-5.15,3.47-5.47q1.85-2.93,3.43-5.49,1.15-1.87,3.22-5.33c1.28-2.13,2.28-3.82,3-5q1.5-2.6,2.69-4.75c.88-1.6,1.62-3,2.21-4.15v0c.6-1.19,1.11-2.29,1.54-3.28l.11-.24c.14-.3.25-.55.31-.72s0,0,0-.07l.14-1.29h0L290,150.9l5.71,1.51a9.59,9.59,0,0,1,2.63,1.14,12.24,12.24,0,0,1,2.22,1.77,12.12,12.12,0,0,1,1.78,2.27,11.16,11.16,0,0,1,1.28,3h0a30.72,30.72,0,0,1,1.06,6.3,38.33,38.33,0,0,1-.2,6.78,33.14,33.14,0,0,1-2,7.93,54.35,54.35,0,0,1-3.9,8.09q-3.19,5.72-7.16,12.18v0q-3.75,6.14-7.9,12.43c-.78,1.19-1.57,2.39-2.36,3.61a39.36,39.36,0,0,1,3.2-2.75q2.25-1.74,4.46-3.27c1.18-.83,2.34-1.59,3.46-2.28a44.94,44.94,0,0,1,3.47-3.34,36,36,0,0,1,4.22-3.17,37.07,37.07,0,0,1,4.07-2.29,27,27,0,0,1,4.09-1.57,28.36,28.36,0,0,1,3.78-.85,23.42,23.42,0,0,1,3.71-.24,21.34,21.34,0,0,1,3.46.32,16,16,0,0,1,3.27,1l.2.1a11.44,11.44,0,0,1,3.41,2.34,9.47,9.47,0,0,1,2.46,4.45,32.07,32.07,0,0,1,.75,3.94l0,.34c.26-.42.5-.83.71-1.25a10.67,10.67,0,0,0,.72-1.7,7,7,0,0,0,.29-1.49,13.89,13.89,0,0,0,.05-2.26l-.35-6.18,5.51-.32a17.05,17.05,0,0,1,4.94.36,12.11,12.11,0,0,1,4.65,2.14,14.35,14.35,0,0,1,3.08,3.24,14.73,14.73,0,0,1,2,4.22,19.34,19.34,0,0,1,.71,4.18l.77-1.11c.39-.52.62-.84.71-1l.17-.25V209L361,196.83l1.89-.56.86-.24.88-.17v0a8.66,8.66,0,0,1,3,.08,16.81,16.81,0,0,1,4.81,1.2,9.62,9.62,0,0,1,4.5,3.95,12.14,12.14,0,0,1,1.56,4.71,14.08,14.08,0,0,1-.3,4.81,22.76,22.76,0,0,1-1.24,3.74v0c-.22.49-.46,1-.74,1.53a6.62,6.62,0,0,1,.95-.61c.48-.58,1-1.16,1.46-1.73,1-1.16,1.92-2.17,2.72-3s1.59-1.66,2.21-2.25h0a56.24,56.24,0,0,1,6-5.17,41.38,41.38,0,0,1,6.25-3.83,16.94,16.94,0,0,1,7.08-1.91,11.58,11.58,0,0,1,7,2.06h0a15.79,15.79,0,0,1,2.25,1.84l2.34-3.69,6.63-10.35c4.26-6.66-4.05,6.31,3.43-5.4,1.43-2.24,2.53-4,3.31-5.26q1.74-2.84,3-5t2.69-4.7q1.13-2,2.31-4.25c.71-1.35,1.3-2.52,1.77-3.52.33-.7.6-1.33.83-1.9a10.64,10.64,0,0,1,0-1.13,8.39,8.39,0,0,1,.63-2.83l.37-.86.65-.74a5.69,5.69,0,0,1,3.46-2h0a5.25,5.25,0,0,1,4.26,1.21l1.3,1.07a5.83,5.83,0,0,1,1.78,1.76,5.77,5.77,0,0,1,.35.55,19.4,19.4,0,0,1,2.85,6.7,27.1,27.1,0,0,1,.54,8q-.6,8.2-6.39,18.22-2.84,5.06-5.43,9.37t-5.7,9.17q-2.76,4.31-5.65,8.71a6.83,6.83,0,0,1,3.57-1.09,6.32,6.32,0,0,1,4.15,1.45q5.44,4.31,1.2,10.8l-.33.51-.39.4c-2,2.06-3.43,3.51-4.25,4.37q-1.45,1.53-4.18,4.49-2.19,2.35-4.59,4.7t-4.87,4.5l-.06.08a42.78,42.78,0,0,1-4.42,3.28,39.73,39.73,0,0,1-4.77,2.63,16.85,16.85,0,0,1-6.68,1.59,22.2,22.2,0,0,1-7-1h0a8.33,8.33,0,0,1-4.64-3.2c-.79.67-1.59,1.3-2.41,1.89A24.49,24.49,0,0,1,388.2,252a20.7,20.7,0,0,1-3.88,1.41h0a11.79,11.79,0,0,1-5,.23,13.23,13.23,0,0,1-4.67-1.78,14.37,14.37,0,0,1-2.42-1.72,21.78,21.78,0,0,1-2.28-2.37,18.35,18.35,0,0,1-1.78-2.52l-1.24,1.06a38,38,0,0,1-3.17,2.38,37.53,37.53,0,0,1-3.36,2,26.58,26.58,0,0,1-3.8,1.64,23.13,23.13,0,0,1-4,1,18.37,18.37,0,0,1-4.38.16,21.15,21.15,0,0,1-4.38-.84v0a8.31,8.31,0,0,1-4.49-3.11l-.18.12a32.78,32.78,0,0,1-3.16,1.84,28.15,28.15,0,0,1-3.39,1.46,26.52,26.52,0,0,1-3.52,1,14.89,14.89,0,0,1-4.15.27,13.28,13.28,0,0,1-4.09-1v0a10.63,10.63,0,0,1-1.49-.71,14,14,0,0,1-1.64-1.07,9.59,9.59,0,0,1-3.53-5.17,17.91,17.91,0,0,1-.78-3.49l-.13.05c-.64.21-1.28.41-1.93.59a19.54,19.54,0,0,1-2,.46,63.73,63.73,0,0,1-5.22,4.05,51.61,51.61,0,0,1-6.77,3.95,27.51,27.51,0,0,1-6.89,2.41,15.83,15.83,0,0,1-6.73-.07h0l-1.89-.44-.4-.18a19.81,19.81,0,0,1-4.2-2.48,14.17,14.17,0,0,1-3.35-3.75,15.7,15.7,0,0,1-.8-1.45l-.35.29a54.68,54.68,0,0,1-5,3.58,36.06,36.06,0,0,1-4.76,2.57,24.24,24.24,0,0,1-4.68,1.56,17.82,17.82,0,0,1-4.64.41,16.35,16.35,0,0,1-4.57-.82l-.23-.1a8.75,8.75,0,0,1-3.88-3,11.22,11.22,0,0,1-1.33-2.38c-2.39,2.19-4.89,4.38-7.52,6.6q-4.46,3.75-9.13,7.38-9.48,7.37-20.17,14.28-5.67,3.66-10.71,6.55t-10.81,5.78l0,0q-5.36,2.66-10.83,4.88t-10.66,3.83h0a85.58,85.58,0,0,1-10.34,2.52,60.91,60.91,0,0,1-9.72.94,38.65,38.65,0,0,1-6.55-.42,34,34,0,0,1-6.2-1.52,31.42,31.42,0,0,1-5.73-2.64,29.61,29.61,0,0,1-5-3.81,28.68,28.68,0,0,1-4.21-4.94,33.67,33.67,0,0,1-3.18-5.91,34.74,34.74,0,0,1-2-6.85,41.83,41.83,0,0,1-.7-7.38,70.29,70.29,0,0,1,.72-10.66,92.75,92.75,0,0,1,2.35-11.28c1-3.85,2.18-7.62,3.42-11.29s2.63-7.48,4.16-11.31,3.09-7.51,4.69-11.07q2.49-5.58,5.06-10.7,2.37-4.77,5-9.79,2.22-4.34,4.52-8.65l0,0q2-3.69,4.59-7.81t6-9q3.5-5,7.19-9.91,3.87-5.11,8.11-10.35t9-10.6q4.73-5.34,9.69-10.53t10.32-10.07q5.38-4.91,10.66-9t10.92-7.73a115.91,115.91,0,0,1,11-6.24,60.13,60.13,0,0,1,11.21-4.3,45,45,0,0,1,11-1.55,32.38,32.38,0,0,1,8.8,1,29.21,29.21,0,0,1,8,3.51,39.4,39.4,0,0,1,6.61,5.21,41.35,41.35,0,0,1,5.45,6.63,53.58,53.58,0,0,1,4.2,7.51,59.71,59.71,0,0,1,3.09,8.35,67.07,67.07,0,0,1,1.92,8.7,64.37,64.37,0,0,1,.7,8.72,69,69,0,0,1-1.2,13.8,64.66,64.66,0,0,1-4,13,82.83,82.83,0,0,1-6,11.49,75.6,75.6,0,0,1-7.54,10.08,72.66,72.66,0,0,1-8.86,8.42,67.66,67.66,0,0,1-9.9,6.64,53.76,53.76,0,0,1-21.12,6.74h-.36a8.49,8.49,0,0,1-4.71-1.21h0a9.08,9.08,0,0,1-3.58-4.21,13.82,13.82,0,0,1-1.1-4.38,18.12,18.12,0,0,1,.15-4.39,22,22,0,0,1,1.12-4.36,28,28,0,0,1,1.9-4.14,22.37,22.37,0,0,1,3-4.21,25,25,0,0,1,3.85-3.41l1.29-.91Zm11.09,8.37a42.11,42.11,0,0,1-8.34,3.47A12.16,12.16,0,0,0,234,187a9.82,9.82,0,0,0-1.37,1.91,16.26,16.26,0,0,0-1.06,2.27,10.6,10.6,0,0,0-.42,1.48,45.28,45.28,0,0,0,15.13-5.3,58.08,58.08,0,0,0,8.37-5.59,61.91,61.91,0,0,0,7.44-7.12,63.16,63.16,0,0,0,6.34-8.45,70,70,0,0,0,5.07-9.72,51,51,0,0,0,3.13-10.32,54.94,54.94,0,0,0,1-11.07,50.88,50.88,0,0,0-.57-6.84,55.3,55.3,0,0,0-1.53-6.93l0-.08c.08,1.06.12,2.14.14,3.23a55.25,55.25,0,0,1-.66,9,70.62,70.62,0,0,1-2.18,9.39,78.29,78.29,0,0,1-3.49,9.37,79.31,79.31,0,0,1-4.66,8.87,68.87,68.87,0,0,1-5.83,8.17,67.8,67.8,0,0,1-6.91,7.16,45,45,0,0,1-8.19,5.81Zm-36.82-62.94.88-.86c-2,1.69-4,3.41-5.95,5.17q-4.89,4.46-9.76,9.54t-9.39,10.2q-4.4,5-8.63,10.21t-7.86,10q-3.82,5.06-6.93,9.53t-5.7,8.58q-2.5,4-4.15,7h0q-2,3.69-4.45,8.5-2.12,4.14-4.87,9.64-2.58,5.16-4.85,10.22-2.37,5.31-4.47,10.55t-3.91,10.63q-1.81,5.43-3.2,10.53a81.12,81.12,0,0,0-2,9.65,56.59,56.59,0,0,0-.6,8.6,29,29,0,0,0,.49,5,21.13,21.13,0,0,0,1.26,4.21,20.28,20.28,0,0,0,1.94,3.7,16.76,16.76,0,0,0,2.5,2.93,17,17,0,0,0,1.57,1.31c-.25-.33-.5-.66-.73-1a27.65,27.65,0,0,1-2.7-4.76,26.78,26.78,0,0,1-1.83-5.82,33.43,33.43,0,0,1-.63-6.32,54.23,54.23,0,0,1,1-10.57,95.85,95.85,0,0,1,3.11-12q2.06-6.34,4.82-13t6.29-13.91q3.41-6.94,7.58-14.51t8.69-15q4.5-7.38,9.57-15,5-7.41,10.18-14.57T184.82,144q5.52-6.86,11-13t11.09-11.64Zm53.23,109,.61.85q2.94-4.92,6-9.8,3.69-5.9,8-12.42,4-6.12,7.69-12.1h0q3.45-5.64,6.89-11.77l0-.07c.86-1.49,1.6-2.89,2.2-4.22l-.58,1c-1.22,2.11-2.24,3.85-3.07,5.24-.74,1.22-1.84,3-3.32,5.43-1.19,1.94-2.36,3.81-3.51,5.63-.88,1.39-2,3.22-3.51,5.52q-1.29,2-3.36,5.19l-3.13,4.83c-.67,1-1.64,2.5-2.92,4.43-3.38,5.1-.67,1-2.48,3.76-1.26,1.9.42-.64-1.86,2.75h0c-1.22,1.89.11-.18-3.1,4.77l-.62,1Zm-.65,3-1.69,2.07q-1.06,1.29-2.31,2.7a21.6,21.6,0,0,0-1,2.61h0a21.56,21.56,0,0,0-.77,3.27c.13,0,.27,0,.41,0a8.18,8.18,0,0,0,1.6-.11v-.4a12.9,12.9,0,0,1,1.17-5.09,45.57,45.57,0,0,1,2.36-4.63l0-.09.21-.36Zm22.93,6-.11.11a5.6,5.6,0,0,0,0,1,1.75,1.75,0,0,0,0,.4c0-.5,0-1,.1-1.51Zm24.42-24.42.73-.44c-.72.38-1.47.81-2.23,1.3a25.66,25.66,0,0,0-2.94,2.21,35.72,35.72,0,0,0-3.06,3l-.53.59-.71.42c-1.12.67-2.31,1.45-3.57,2.33-.53.37-1.09.76-1.66,1.18l1.79,3.89c.1-.42.23-.85.37-1.29a18.81,18.81,0,0,1,.93-2.29,14.4,14.4,0,0,1,1.27-2.11h0a25.78,25.78,0,0,1,2.06-2.54,33,33,0,0,1,2.38-2.35c.79-.71,1.64-1.4,2.54-2.08s1.8-1.3,2.63-1.81Zm32.12,3.3c.1.2.18.4.26.59l.42-.59a5.5,5.5,0,0,0,.52-1.06,7.93,7.93,0,0,0,.36-1.42,7.26,7.26,0,0,0,.09-1.09,26.27,26.27,0,0,1-1.27,2.87l-.38.7Zm-9.58,16.75c-.63.67-1.28,1.3-1.92,1.9-.57,1-1.13,2-1.68,3.09l0,0a27.22,27.22,0,0,0-1.47,3.17,3.11,3.11,0,0,0,.08.43l.12.05.3.1a3.27,3.27,0,0,0,1,.26,6.26,6.26,0,0,0,.75,0v-.56a13.33,13.33,0,0,1,1.31-5.27v0c.38-.87.89-1.92,1.53-3.17Zm23.9-3.44a33.78,33.78,0,0,0-3.2,5.91l-.56,1.37-.57.49-.52,2.68c-.09.48-.16.89-.21,1.24.27,0,.55.08.81.1a11.17,11.17,0,0,0,1.29,0l0-.31v-.47a17.18,17.18,0,0,1,.69-5,19.74,19.74,0,0,1,2-4.58c.65-1.12,1.24-2.09,1.77-2.92s1-1.58,1.58-2.38h0l7.1-10.51,0-.07c.35-.5.78-1.14,1.29-1.91.68-1,1.18-1.8,1.5-2.32a14.3,14.3,0,0,0,.94-1.8h0c.11-.25.21-.5.29-.74l-.29-.06-3.85,5.9-.2.4c-.19.35-.43.76-.71,1.2s-.52.81-.82,1.25l-.92,1.3-.75,1c-.13.19-.35.51-.65,1s-.39.59-.44.68l-.12.27-.29.46c-1.27,2-2.14,3.32-2.64,4.08s-1.36,2.06-2.51,3.76Zm-29.1,11.92h0v0Zm0,0h0Zm79.06-1.72a12.15,12.15,0,0,0,2,.21,12.68,12.68,0,0,1,.41-3.29,18.75,18.75,0,0,1,.74-2.29h0c.25-.62.59-1.37,1-2.25.35-.71.69-1.38,1-2s.7-1.29,1.06-1.9l.08-.14q1.35-2.19,2.34-3.85c.63-1.06,1.18-2,1.66-2.86.56-1,1.08-1.9,1.57-2.68s1.07-1.65,1.64-2.45h0q5.83-8.62,11.57-17.61c1.69-2.63,3.51-5.59,5.49-8.88s3.67-6.21,5.26-9l0-.08a46.59,46.59,0,0,0,3-6c-.61,1.08-1.33,2.31-2.14,3.7-1.11,1.89-2.15,3.64-3.14,5.24q-2,3.34-3.39,5.46c-5.15,8.06,3.06-4.81-3.47,5.4l-3.38,5.26-3.21,5-3,4.78-2.54,4-13.26,21.09-.71,2.46a23.08,23.08,0,0,0-.63,2.67Zm14.45-26c-2.29,3.63-.84,1.33,0,0Z"/><path class="cls-2" d="M370.69,681.42c4.35,4.12,10.5-3.74,10.5-3.74-2.22-1.23-3.61-4.76-4.38-7.49l.62-.21c1.58,2.84,4.67,6.5,10.19,6.7,7.67.28,9-6.55,9.21-8.66l.11,0c1.9,16.49-13.62,12.5-13.62,12.5-.58,10.53,9,17.38,14.81,10.59,4.71-5.52,3.65-12.56,3.09-15,1.46,4.11,7.38,4.76,9.65-.29,2.42-5.39-.29-7.6-.29-7.6s5.62.86,7.74-2.37a11.51,11.51,0,0,0,1.61-5.58l.75-.5a7.85,7.85,0,0,1,.95,3.14c.31,3.94-2.29,7.42-5.81,7.77a5.74,5.74,0,0,1-1.71-.09,13.09,13.09,0,0,1,.61,3.05c.49,6.11-3.17,11.56-8.37,12.89-2.23,6-7.3,10.48-13.5,11.1-6.58.66-12.59-3.19-15.6-9.27-3.27,5.44-11.79,6.88-17.1,6.46.15-.23.3-.56.59-1.09l.89-1.74,9.06-10.51Zm48.55-20.77q-.58.35-1.11.6l-6.54,2.33a8.8,8.8,0,0,1-2.73,1l-1.78.58a4.42,4.42,0,0,0,.6.34C411.49,667.42,416.22,665.28,419.24,660.65Z"/><path class="cls-3" d="M201.39,319.33c-1.11.49-3.44,1.67-7.11,3.54s-6.83,3.54-9.66,5V298.82A14.52,14.52,0,0,0,181,288.76a11.6,11.6,0,0,0-9-4.1,11.3,11.3,0,0,0-8.67,4.1,14.56,14.56,0,0,0-3.66,10.06v24.23a56.84,56.84,0,0,0,1.66,9.7q1,4.47,3,10.81a93.14,93.14,0,0,0,5.61,13.79l27.44,58.15q2.67,7.08,5,13.79c1.33,4,2.5,8.33,3.61,13a58.65,58.65,0,0,1,1.66,13.42v32.06a33.77,33.77,0,0,1-5.41,19l-17.91-28.55V455a56,56,0,0,0-1.67-9.69c-.67-3-1.61-6.59-2.83-10.87a85.48,85.48,0,0,0-5.5-13.8L146.3,362a137.83,137.83,0,0,1-5-13.86,118.36,118.36,0,0,1-3.5-13,65.09,65.09,0,0,1-1.5-13.49V295.53a34.55,34.55,0,0,1,2.33-12.67,39.78,39.78,0,0,1,6.11-10.69,29.37,29.37,0,0,1,9.17-7.45,23.59,23.59,0,0,1,11.27-2.8h14.55a22,22,0,0,1,10.78,2.8,28.21,28.21,0,0,1,8.83,7.45A42,42,0,0,1,205.28,283a34.84,34.84,0,0,1,2.33,12.49v9.69c0,4.23-.66,7.39-1.94,9.51a15.29,15.29,0,0,1-4.28,4.66Zm-6.54,195.46L181,493.33c-.08.09-.15.18-.23.26a11.34,11.34,0,0,1-8.83,3.92,11.5,11.5,0,0,1-2.78-.33l21,20.52a25.86,25.86,0,0,0,4.67-2.91Zm-17.32,5.46L136.3,480.9v7.29a32.31,32.31,0,0,0,8.11,22.18,28.08,28.08,0,0,0,19.77,9.88Zm-41.23-55.2,24,23.45a14.43,14.43,0,0,1-.67-4.47V460.12l-10.1-15.68c-3.5,1.83-5.8,3-6.9,3.49a14.69,14.69,0,0,0-4.33,4.66q-2,3.17-2,9.5Z"/><path class="cls-2" d="M203.4,325c-.41.18-1.21.58-2.38,1.16l-4.49,2.29h0l-9.59,5-7.77,4.09V298.82a9.46,9.46,0,0,0-.49-3.19,8,8,0,0,0-1.56-2.53,6.63,6.63,0,0,0-5.15-2.3,6.3,6.3,0,0,0-4.82,2.3,7.83,7.83,0,0,0-1.56,2.53,9.46,9.46,0,0,0-.49,3.19v24c.1,1.23.26,2.47.48,3.74s.56,2.9,1,4.51l0,.19c.31,1.39.7,2.93,1.16,4.6s1.05,3.62,1.69,5.66l0,.07c.6,2,1.32,4,2.15,6s1.87,4.32,3.07,6.77l27.48,58.24.2.48c1.18,3.16,2.06,5.51,2.62,7.06.77,2.13,1.59,4.42,2.44,6.88l0,.07c.7,2.08,1.36,4.29,2,6.61s1.23,4.65,1.79,7a72.1,72.1,0,0,1,1.38,7.62,59.85,59.85,0,0,1,.48,7.36v32.06a43.69,43.69,0,0,1-1.63,12,38.74,38.74,0,0,1-4.85,10.62l-1.09,1.65-26.69-42.54V455.18c-.1-1.23-.26-2.47-.47-3.74s-.57-2.89-1-4.5l0-.19c-.34-1.52-.72-3.09-1.15-4.71-.48-1.85-1-3.77-1.57-5.76h0c-.56-1.95-1.26-4-2.08-6s-1.83-4.31-3-6.72l-28-58.63-.12-.31q-1.68-4-2.88-7.33c-.81-2.24-1.57-4.55-2.29-7q-1.09-3.26-2-6.65t-1.71-7.14q-.83-3.86-1.24-7.57a68.24,68.24,0,0,1-.41-7.33V295.53a41.13,41.13,0,0,1,2.8-15.12h0a47.41,47.41,0,0,1,3.09-6.56,45.59,45.59,0,0,1,4-5.78l0-.05a35,35,0,0,1,5-5,35.59,35.59,0,0,1,5.83-3.83h0a29.35,29.35,0,0,1,13.6-3.39h14.55a26.79,26.79,0,0,1,6.76.87,27.21,27.21,0,0,1,6.38,2.56h0a33.75,33.75,0,0,1,10.54,8.92l0,0a46.13,46.13,0,0,1,3.81,5.86,51.55,51.55,0,0,1,3,6.56,44.27,44.27,0,0,1,2.07,7.35,41.35,41.35,0,0,1,.71,7.54v9.69a34.66,34.66,0,0,1-.64,6.89,18.71,18.71,0,0,1-2.27,6.05l-.06.12a25.24,25.24,0,0,1-2.7,3.57,17.6,17.6,0,0,1-3.24,2.81l-.3.2-.47.21ZM198,519.76,177.78,488.3l-.83.95a6.09,6.09,0,0,1-2.1,1.57,7.2,7.2,0,0,1-2.89.55,8.19,8.19,0,0,1-.86,0,5.35,5.35,0,0,1-.77-.15l-3.68-.9-1.23-3.85a7.88,7.88,0,0,1-.25-1.1,9.62,9.62,0,0,1-.08-1.3V468.6l-5.28-8.2c-1.09,1.25-2.74,2.14-5.65,2.23v11.74l-9.81-9.6a13.39,13.39,0,0,1-3.18,3.08,9,9,0,0,1-1.22.76l54.7,53.47.56-.34c.93-.59,1.84-1.22,2.73-1.91l.1-.07ZM184,526.39l-53.12-50.71v12.51a41.68,41.68,0,0,0,2.45,14.38,37.67,37.67,0,0,0,7.26,12.12l0,0A35.6,35.6,0,0,0,151.2,523a32.6,32.6,0,0,0,12.68,3.37l.3,0ZM196.58,315c.9-.45,1.65-.81,2.27-1.1a7.67,7.67,0,0,0,1-.88,13.28,13.28,0,0,0,1.42-1.89h0a6.63,6.63,0,0,0,.58-1.81,21.43,21.43,0,0,0,.34-4.15v-9.69a26.77,26.77,0,0,0-.46-5,29,29,0,0,0-1.43-5.05,38.76,38.76,0,0,0-2.25-4.93,34.11,34.11,0,0,0-2.79-4.27h0a22.83,22.83,0,0,0-7.08-5.94l0,0a17.75,17.75,0,0,0-4.06-1.62,17.47,17.47,0,0,0-4.33-.53H165.18a19.52,19.52,0,0,0-4.65.53,18.65,18.65,0,0,0-4.3,1.67h0a24.56,24.56,0,0,0-4.06,2.68,24.07,24.07,0,0,0-3.39,3.38h0a33.29,33.29,0,0,0-2.83,4.16,34.65,34.65,0,0,0-2.29,4.81v0a27.91,27.91,0,0,0-1.86,10.23v26.09a53,53,0,0,0,.33,5.84,62,62,0,0,0,1,6.23c.49,2.31,1,4.46,1.54,6.47s1.14,4,1.74,5.83l.07.22q.89,3,2.14,6.45t2.49,6.45l28,58.53c1.26,2.56,2.39,5.11,3.4,7.63s1.85,5,2.51,7.22v0q1,3.44,1.66,6.07.75,2.87,1.23,5,.72,2.81,1.19,5.56c.32,1.87.55,3.64.67,5.31l0,.5V476.3l11.63,18.54a30.7,30.7,0,0,0,.77-7V455.76a47.23,47.23,0,0,0-.35-5.69,59,59,0,0,0-1.13-6.17c-.54-2.33-1.09-4.53-1.65-6.57s-1.13-3.94-1.76-5.81-1.5-4.26-2.4-6.73q-1.53-4.23-2.41-6.56L165.12,360.3q-1.86-3.78-3.41-7.59c-1-2.51-1.89-4.89-2.56-7.12s-1.3-4.21-1.81-6.08-1-3.55-1.3-5.09c-.47-1.86-.87-3.72-1.19-5.56s-.54-3.63-.67-5.3l0-.51V298.82a22.52,22.52,0,0,1,1.35-7.8,20,20,0,0,1,3.94-6.6,16.25,16.25,0,0,1,12.51-5.9,16.58,16.58,0,0,1,12.84,5.9,20.19,20.19,0,0,1,3.94,6.6,22.52,22.52,0,0,1,1.35,7.8V318.3l1.93-1,0,0,4.54-2.29ZM155.64,511.81a22.08,22.08,0,0,0,6.84,2.11l-20-19.1a25,25,0,0,0,5.8,11.21A24.69,24.69,0,0,0,155.64,511.81Z"/><path class="cls-3" d="M289.41,263.41v201l-22.57-4.21-.76.28v-197ZM220.16,507.16a36.15,36.15,0,0,1-3.4-6.48,33.19,33.19,0,0,1-2.33-12.49V270.49a6.65,6.65,0,0,1,2.17-5,6.84,6.84,0,0,1,4.83-2h16.33V480.69l-17.6,26.47Zm17.07-25.85-.44.51-.54.65-.4.48c-.23.27-.45.55-.67.82l-.28.35-.66.82-.39.5c-.19.23-.37.47-.56.71l-.41.54-.61.8-.34.44-.64.87-.34.47-.57.79-.41.57-.51.73-.37.53-.64.93-.41.61-.45.68-.43.65-.48.75-.39.61c-.18.28-.36.56-.53.85l-.37.59-.52.86-.39.65-.44.76-.39.67-.43.75-.38.7-.42.76c-.14.25-.27.51-.41.77s-.27.51-.4.77l-.38.72-.36.74c-.12.23-.24.47-.35.71l-.36.74Z"/><path class="cls-4" d="M289.41,263.41v201l-22.57-4.21-.76.28v-197ZM220.16,507.16a36.15,36.15,0,0,1-3.4-6.48,33.19,33.19,0,0,1-2.33-12.49V270.49a6.65,6.65,0,0,1,2.17-5,6.84,6.84,0,0,1,4.83-2h16.33V480.69m-.53.62-.44.51-.54.65-.4.48c-.23.27-.45.55-.67.82l-.28.35-.66.82-.39.5c-.19.23-.37.47-.56.71l-.41.54-.61.8-.34.44-.64.87-.34.47-.57.79-.41.57-.51.73-.37.53-.64.93-.41.61-.45.68-.43.65-.48.75-.39.61c-.18.28-.36.56-.53.85l-.37.59-.52.86-.39.65-.44.76-.39.67-.43.75-.38.7-.42.76c-.14.25-.27.51-.41.77s-.27.51-.4.77l-.38.72-.36.74c-.12.23-.24.47-.35.71l-.36.74"/><path class="cls-3" d="M331.5,384.56a12.83,12.83,0,0,0,8.67-3.17q3.66-3.17,3.66-11.74v-67.1q0-7.46-3.66-10.25a13.9,13.9,0,0,0-8.67-2.8H319.18v95.06Zm35.66,133.82h-8.63l.19-7.17-14.89-24.13v-2.29h.41a17.78,17.78,0,0,0,2.42-.75h0c3.93-1.5,9.36-5.18,15.2-13.63l.08-.12.09-.12v0l.07-.1.08-.12,0,0,.05-.07.08-.12.05-.07,0,0,.08-.12.07-.1,0,0,.16-.24.08-.13.08-.12,0,0,.06-.1.09-.13,0-.05.05-.07.08-.13.05-.08,0,0,.09-.13.06-.1,0,0,.08-.13.08-.13.09-.13.08-.14v0l.07-.11.08-.13,0-.06.05-.08.08-.13.05-.09,0-.05.08-.14.07-.11,0,0,.08-.13.08-.14h0l.09-.14.08-.14,0,0,.06-.11.09-.14,0-.06.05-.09.08-.14.05-.09,0,0,.08-.15.07-.11v0l.09-.15.08-.15.08-.14.09-.15v0l.07-.12.09-.15,0-.06,0-.09.08-.15,0-.09,0-.06.08-.15h0l.07-.15.09-.15.08-.15h0l.09-.16.08-.16,0,0,.07-.12.08-.16.08-.16.09-.16,0-.09,0-.07.09-.16.06-.12,0,0v56.95Zm-23.33-64.77V425.19q0-9.69-3.66-13.05a12.43,12.43,0,0,0-8.67-3.35H319.18V469l-5.27-4.29-18.06-3.37V263.41h42.43a27.13,27.13,0,0,1,11.33,2.42,27.86,27.86,0,0,1,9.11,6.71,35.34,35.34,0,0,1,6.11,10.07,33.12,33.12,0,0,1,2.33,12.49v79a38.57,38.57,0,0,1-1.5,11.93,23.11,23.11,0,0,1-3.11,6.71,11.69,11.69,0,0,1-4.28,3.73,13.59,13.59,0,0,1,4.28,4.84,38.9,38.9,0,0,1,4.61,19.39V433.3l-.74.13h-.05c-.6.12-1.18.26-1.76.43h0l-.19.05-.08,0-.46.14h0l-.46.16h0l-.21.08h0l-.24.09h0l-.22.09h0l-.19.08,0,0-.23.09h0l-.2.09-.07,0-.17.08-.06,0-.18.08-.07,0-.15.07-.09,0-.19.1h0l-.2.1-.07,0-.17.09-.05,0-.19.1,0,0-.19.1,0,0-.17.09-.08.05-.15.08-.07,0-.18.11h0l-.18.11-.07,0-.17.1,0,0-.2.12h0l-.19.12-.07.05-.15.09,0,0-.15.1-.07,0-.07,0-.13.09-.06,0-.18.13h0l-.16.11h0l-.16.12,0,0-.06.05-.05,0-.17.13-.16.12-.06,0-.16.12h0l-.15.11-.06.05,0,0-.17.12h0l-.16.13,0,0,0,0-.17.14-.15.13-.06,0,0,0h0l-.2.16h0l-.17.15-.18.15,0,0,0,0-.18.15,0,0-.18.16,0,0-.18.16,0,0-.18.17,0,0-.18.17,0,0-.19.18h0l-.19.18h0l-.19.19-.12.12-.08.07h0l-.2.19h0l-.19.19-.55.57,0,0-.06.06-.21.23,0,0-.08.09-.15.17h0l-.09.1,0,.06-.15.17,0,0,0,0-.24.27h0l-.77.91-.1.12,0,0-.15.18h0l-.1.12,0,.06-.15.18h0l-.13.17,0,0-.23.29,0,.05-.13.16-.14.19h0l-.13.18h0l-.14.18-.05.08-.09.11-.13.19,0,0,0,.06-.19.25,0,0h0l-.14.18,0,0-.14.21-.19.26h0l0,.07-.13.19,0,0-.12.16-.13.2-.09.14,0,.05-.13.2,0,0,0,0-.19.3,0,0h0l-.13.19,0,.06-.09.14-.12.2L346,450l-.12.2-.06.09-.07.11-.12.2-.12.18v0l-.12.19v0l-.11.17v0l-.21.33,0,0-.09.15,0,.05-.12.2-.07.12-.05.08-.12.2,0,.09-.07.11-.12.21-.09.15-.07.12-.17.31v0l-.1.18Z"/><path class="cls-5" d="M331.5,378.42a7.92,7.92,0,0,0,5.34-1.87,3.73,3.73,0,0,0,.93-1.69,18.06,18.06,0,0,0,.6-5.21v-67.1a12.4,12.4,0,0,0-.51-4,2.58,2.58,0,0,0-.74-1.18,8.42,8.42,0,0,0-2.44-1.26,10.53,10.53,0,0,0-3.18-.45h-6.86v82.77Zm12,7.82a17.81,17.81,0,0,1-12,4.46H313.71V283.36H331.5a20.1,20.1,0,0,1,6.16.94,18.5,18.5,0,0,1,5.56,2.94A14.29,14.29,0,0,1,348,294a25.46,25.46,0,0,1,1.32,8.57v67.1a30.89,30.89,0,0,1-1.24,9.24,15.57,15.57,0,0,1-4.56,7.35Zm23.66,138.28H352.91l.31-11.47-12.88-20.89a53.47,53.47,0,0,0,1.63-5.58c.14-.54.26-1.08.39-1.61a13,13,0,0,0,1.88-.26,17.78,17.78,0,0,0,2.42-.75h0c3.93-1.5,9.36-5.18,15.2-13.63a106.1,106.1,0,0,0,10.78-20.88v75.08Zm-15.77-35.93,10.31,16.7V479.82a47.71,47.71,0,0,1-3.91,4,36.37,36.37,0,0,1-4.63,3.55l.12.51-1.89.74Zm-13-35V425.19a23.93,23.93,0,0,0-.66-6.26,4.67,4.67,0,0,0-1-2,7.43,7.43,0,0,0-2.33-1.46,8.09,8.09,0,0,0-2.9-.5h-6.86V481l-12.9-10.52-21.36-4V257.27h47.9a32.32,32.32,0,0,1,6.84.73,31.53,31.53,0,0,1,6.52,2.15l0,0a32.63,32.63,0,0,1,10.88,8l0,.05a39.07,39.07,0,0,1,4,5.53,42.69,42.69,0,0,1,3.15,6.31,38,38,0,0,1,2.12,7.28,42.42,42.42,0,0,1,.71,7.73v79a61.16,61.16,0,0,1-.44,7.55,33.58,33.58,0,0,1-1.39,6.42,37.84,37.84,0,0,1-1.77,4.67,21.89,21.89,0,0,1-2.29,3.93h0l-.22.29c.22.33.43.68.63,1l0,.05a38.24,38.24,0,0,1,2,4.18q.92,2.25,1.68,4.76h0a36.26,36.26,0,0,1,1.37,6.37,58.52,58.52,0,0,1,.44,7.34v.79c-2.24,4.69-4,8.68-5.24,11.76a24.18,24.18,0,0,0-12,5.7l-3.25-4.92.08-.07.21-.17,0,0,.17-.13,0,0,.05,0,0,0,0,0h0l.15-.12,0,0h0l.17-.13h0l.05,0,0,0,.26-.19.16-.12v0l.06,0h0l.16-.12,0,0,.22-.16,0,0,.13-.09h0l.16-.11h0l0,0v0l.15-.11,0,0h0a2.31,2.31,0,0,1,.28-.19l.2-.13,0,0,.08-.05h0l.37-.24,0,0,.07-.05h0l.19-.12.05-.05.45-.27h0l.08-.05,0,0,.18-.11h0l0,0,0,0,.18-.1h0l.55-.31v0l.06,0h.05l.18-.1,0,0,0,0h0l.19-.1,0,0,.06,0h0l.27-.15,0,0,.2-.1h0l0,0,.2-.1h0l.28-.13h0l.07,0,0,0,.18-.08h0l.06,0h0l0,0,.26-.11,0,0,.2-.08h0l.26-.1,0,0,.05,0h0l.2-.08a2.68,2.68,0,0,1,.3-.12h0l.07,0,.53-.2h0v-7.73a44.33,44.33,0,0,0-.32-5.62,22.66,22.66,0,0,0-.84-4l-.05-.12c-.42-1.39-.84-2.59-1.25-3.6a24.49,24.49,0,0,0-1.28-2.7h0a11.07,11.07,0,0,0-1.29-1.86,5.51,5.51,0,0,0-1.09-1L346,395.7l10.11-4.85a4.79,4.79,0,0,0,1.06-.71,8,8,0,0,0,1.15-1.27l0,0a10.14,10.14,0,0,0,1-1.73,28,28,0,0,0,1.18-3.09l0-.12a20.21,20.21,0,0,0,.82-3.9,47.08,47.08,0,0,0,.32-5.87v-79a28.68,28.68,0,0,0-.46-5.23,24,24,0,0,0-1.39-4.74,30.62,30.62,0,0,0-2.21-4.44,27.58,27.58,0,0,0-2.79-3.84,21.84,21.84,0,0,0-3.3-3,22.89,22.89,0,0,0-4-2.35h0a21.31,21.31,0,0,0-4.47-1.48,22.59,22.59,0,0,0-4.83-.49h-37V456.13l12.4,2.31V402.65H331.5a17.73,17.73,0,0,1,6.44,1.17,18,18,0,0,1,5.67,3.57,16.39,16.39,0,0,1,4.52,7.85,37.16,37.16,0,0,1,1.17,9.95v11.42c.13-.15.3-.31.45-.45l0,0,.42-.41,0,0,.2-.19v0l0,0h0l.19-.17a1.73,1.73,0,0,1,.24-.23,2.19,2.19,0,0,1,.23-.21l0,0,.21-.18v0l0,0,0,0,0,0h0l.12-.11.14-.13.33-.28,3.27,4.92a36,36,0,0,0-2.81,2.6c-.59.6-1.16,1.23-1.72,1.87-5.34,6.17-9.32,14.08-11.91,20.48l-.09.2c-.16.39-.31.78-.46,1.17Z"/><path class="cls-3" d="M448.15,263.41q-2,4.84-4.49,11c-1.67,4.1-2.72,6.64-3.17,7.64a17.8,17.8,0,0,1-4,5c-1.78,1.62-4.55,2.42-8.33,2.42h-26a5.42,5.42,0,0,0-4,1.68,5.84,5.84,0,0,0-1.67,4.29v79.77h.27l-.44.8-.35.63-.09.17-.43.79-.29.53-.15.27-.43.79-.23.43-.2.36-.43.79-.18.34-.25.45-.42.79-.13.23-.3.55-.42.78-.07.14-.35.64-.42.78,0,0-.4.74,0,.09-.36.68-.42.77-.33.61-.08.16-.41.76-.28.52-.13.24-.4.76-.23.42-.18.34-.4.75-.17.32-.23.43-.39.75-.13.23-.27.51-.39.74-.07.14-.32.6-.39.74,0,0-.36.69-.36.68,0,0L384,399l-.3.58-.07.14-.38.71-.25.49-.12.22-.37.71-.2.4-.16.31-.37.7-.16.3-.2.39-.36.69-.11.22-.24.47-.35.68-.07.13-.28.55-.35.68,0,0-.32.63-.32.62,0,0-.34.66-.27.54-.06.12-.33.65-.23.45-.09.19-.33.64-.05.1-.24.48,0,.06-.31.63-.15.28-.17.34-.31.62-.27.56,0,0-.3.61-.06.12-.24.49-.3.59,0,.05-.27.54-.27.56v0l-.06.12-.37.74-.09.2,0,.09-.27.57-.19.4-.08.16V270.87a7.28,7.28,0,0,1,2.16-5.22,6.63,6.63,0,0,1,4.84-2.24ZM409.84,375.12l-.14.25-.14.25-.13.25-.14.26-.14.25-.42.75-.13.25-.14.25-.28.5-.14.25-.27.5-.14.25-.27.5-.14.24-.14.25-.14.25-.13.25-.13.23v0l-.14.25-.13.25-.14.24-.13.25-.14.25-.14.25-.13.24-.14.25,0,0-.12.21-.13.24-.14.25-.13.25-.14.24-.13.25-.14.25-.13.24-.05.09-.09.16-.13.24-.14.25-.13.24-.14.25-.13.24-.13.24-.14.25-.07.14-.06.1-.13.25-.14.24-.13.24-.13.25-.14.24-.26.48-.11.19,0,.06-.13.24-.13.24-.13.24-.14.24-.13.24-.13.24-.13.24-.13.24c-7.55,13.8-14.22,26.24-18.77,35.27l.18-.14.11-.09.07-.05.19-.15,0,0,.15-.11.16-.12,0,0,.18-.14.1-.07.1-.08.19-.15h0l.17-.14.14-.11.06,0,.19-.15.07-.05.13-.11.19-.14h0l.2-.16.11-.09.09-.06.2-.16,0,0,.17-.13.16-.13,0,0,.21-.16.08-.07.12-.1.21-.16h0l.34-.27.07-.05.21-.17.06,0,.35-.27,0,0,.22-.17.11-.09.1-.08.22-.17,0,0,.19-.14.17-.14.05,0,.22-.17L389,421l.13-.11.23-.18h0l.22-.18.14-.11.09-.07.22-.18.23-.18.2-.16,0,0,.23-.19.11-.09.12-.09.23-.19,0,0,.21-.17.17-.13.07-.05.23-.19.08-.07.16-.12.23-.18h0l.23-.2.14-.11.1-.08.24-.19,0,0,.19-.16.2-.15,0,0,.24-.2.1-.08L394,417l.25-.19h0l.23-.19.17-.14.08-.06.25-.2.07-.06.18-.15.22-.18,0,0,.25-.2.13-.11.12-.1.25-.2,0,0,.21-.18V407.3a5.84,5.84,0,0,1,1.67-4.29,5.42,5.42,0,0,1,4-1.68H413l.34-.28.34-.28.33-.28,0,0,.31-.26.34-.29.34-.28.34-.29.68-.57.34-.28.34-.29.34-.28.34-.29.13-.11.22-.18.34-.29.34-.29.34-.28.35-.29.18-.16.16-.13.35-.29.34-.29.35-.29.34-.3.24-.2.11-.09.34-.29.35-.29.35-.29.34-.3.3-.25,0,0,.35-.29.34-.3.35-.29.35-.29.35-.3h0l.35-.29.34-.3.35-.29.35-.3.35-.29.06-.05.29-.25.35-.29.35-.3.35-.3.35-.29.11-.1.24-.2.35-.3.34-.29.35-.3.35-.3.17-.14.18-.15.35-.3.35-.3.35-.3.35-.29.22-.19.13-.11.35-.3.35-.3.35-.3.35-.29.28-.24.07-.06.35-.3.35-.3.35-.29.35-.3h0c1.09-2.74,2.11-5.32,3-7.75l-28.32.25ZM396.5,431.36v79.19a8.08,8.08,0,0,1-2,5.6,6.4,6.4,0,0,1-5,2.23H373.18V447.71h0v-.47h0v-.12l0,0V447l0-.06v-.18l.37-.16.06,0,.37-.16,0,0,.37-.17.1-.05.35-.17,0,0h0l0,0,.38-.19.09,0,.37-.2.14-.07.4-.22,0,0,.44-.25h0l.48-.28,0,0,.47-.28.09-.05.43-.26.18-.11.36-.22.07,0h0l0,0,.41-.25.21-.14.33-.2.07,0,.17-.11.44-.28.19-.12.39-.26.08-.05,0,0,0,0,.42-.28.2-.13,0,0,.36-.24.07-.05.19-.13.46-.31h0l.07,0,.12-.09.37-.25.18-.12.37-.26.07-.05.29-.21h0l.38-.27h0l.38-.27.39-.28.31-.22.15-.11.68-.49.07-.05.38-.27.4-.3.41-.3h0l.42-.3.83-.62.42-.31.4-.3,0,0,.42-.32.43-.32h0l2.19-1.67.45-.34Z"/><path class="cls-2" d="M453.11,266,451,271.13,448.61,277l-2,5c-.35.85-.76,1.78-1.21,2.8l-.13.32a21.79,21.79,0,0,1-2.35,3.59,26.18,26.18,0,0,1-2.95,3.16,13.61,13.61,0,0,1-5.49,3,22.31,22.31,0,0,1-6.28.83H402v70.16q-1.38,2.47-2.73,4.94V295.47a3.19,3.19,0,0,1,.18-1.15,2.5,2.5,0,0,1,.56-.86,3.19,3.19,0,0,1,1-.67,3.24,3.24,0,0,1,1.22-.22h26a19.93,19.93,0,0,0,5.6-.71,11.19,11.19,0,0,0,4.45-2.39,23.35,23.35,0,0,0,2.64-2.82,18.82,18.82,0,0,0,2-3.08l.06-.15c.35-.77.73-1.67,1.17-2.73l2-5,2.38-5.83,2.12-5.16,1.8-4.35H380.18a8.46,8.46,0,0,0-3.58.8,10.91,10.91,0,0,0-6.15,9.73v155.3l.28-.63c-.34.74-.66,1.46-1,2.15l.14-.31v-6.66a54.86,54.86,0,0,0-.4-6.91,33.42,33.42,0,0,0-1.25-5.82c-.17-.56-.35-1.12-.53-1.66V388.62c.18-.49.35-1,.52-1.55a31.13,31.13,0,0,0,1.26-5.82,57.6,57.6,0,0,0,.4-7.13v-79a38.58,38.58,0,0,0-.64-7.1,35.8,35.8,0,0,0-1.54-5.62V270.87a13.51,13.51,0,0,1,3.94-9.73,13.25,13.25,0,0,1,3.91-2.83,11,11,0,0,1,4.62-1H456.7L453.11,266Zm-58,112.33h-1.32V295.47a10,10,0,0,1,.65-3.6,8.59,8.59,0,0,1,1.94-3,8.39,8.39,0,0,1,2.69-1.84,7.91,7.91,0,0,1,3.12-.63h26a15.46,15.46,0,0,0,4.23-.49,5.9,5.9,0,0,0,2.38-1.25,17.87,17.87,0,0,0,2-2.12,11.82,11.82,0,0,0,1.32-2h0q.24-.54,1-2.43l2-5,2.37-5.83.34-.83H380.18a3.58,3.58,0,0,0-1.51.32,5.11,5.11,0,0,0-1.48,1.1,4.18,4.18,0,0,0-1.28,3V414.79l-.09.19c5.17-10.4,11.9-23.17,19.27-36.67ZM375.33,416l-.85,1.73.85-1.73Zm-6.85,14.65-.77,1.84h0c.24-.58.49-1.2.77-1.84ZM413.24,369l-1.7,3.08,30.78-.28-1.65,4.31c-.29.75-.64,1.65-1.05,2.69l4.45-3.8,2.41-6.29-33.24.29Zm17.32,17.53.62-1.53q1.4-3.44,2.37-5.89h0L434,378l-25.84.23c-2.37,4.31-4.71,8.56-7,12.7-7.55,13.8-14.22,26.24-18.77,35.27,3.22-2.47,7.07-5.52,11.37-9V407.3a8.93,8.93,0,0,1,2.59-6.57,8.39,8.39,0,0,1,2.69-1.84,7.91,7.91,0,0,1,3.12-.63h14.47l-.58.49c4.75-4,9.62-8.1,14.5-12.25Zm-16.15,13.63-2.39,2,2.39-2Zm-5.12,4.27h-7.12a3.24,3.24,0,0,0-1.22.22,3,3,0,0,0-1,.67,2.75,2.75,0,0,0-.74,2v5.41l2.73-2.24v-3h3.62l1.58-1.3,2.12-1.77ZM402,427c-.92.74-1.83,1.48-2.73,2.19v81.35a12.42,12.42,0,0,1-.71,4.22,10.73,10.73,0,0,1-2.1,3.55,8.92,8.92,0,0,1-6.92,3.13H370.45V454.61l-.56,1.23h0v65.61h-2.18v3.07h21.8a11.42,11.42,0,0,0,8.84-4,13.69,13.69,0,0,0,2.71-4.58,15.64,15.64,0,0,0,.91-5.36V427ZM367.92,460l.34-.69-.34.69Zm8-14.29c4.39-2.3,10.57-6.59,17.86-12.19v77.07a5.69,5.69,0,0,1-.3,1.94,4.34,4.34,0,0,1-.89,1.48,3.9,3.9,0,0,1-3.07,1.34h-13.6V445.67ZM438.7,271.86l.94-2.31H380.18a1.17,1.17,0,0,0-.47.08,2.36,2.36,0,0,0-.67.53,1.09,1.09,0,0,0-.4.71v126.3l.66-1.25v0l.38-.73h0v-.05l.72-1.37,0,0h0l1.16-2.21h0l.27-.52v0l2.26-4.24v0l2.32-4.33,0,0,0,0h0l.76-1.41v0l.08-.14h0l.72-1.32v0c1-1.8,1.95-3.61,2.94-5.41V295.47a13.14,13.14,0,0,1,.88-4.82,11.94,11.94,0,0,1,2.62-4,11.18,11.18,0,0,1,3.56-2.43,10.47,10.47,0,0,1,4.07-.83h26a13.1,13.1,0,0,0,3.55-.39,3.28,3.28,0,0,0,1.34-.66,16.08,16.08,0,0,0,1.72-1.78,9.27,9.27,0,0,0,1-1.53l2.95-7.14ZM427.9,381.08l-15,.13L411.33,384h0v0l0,0-1.09,2v0l0,0h0L408.06,390h0l-.08.14h0l-.05.1h0l-.13.24h0l-.13.23h0l-.14.25h0l-.53,1h0l-.1.19h0l0,0h0l-.13.24h0l-.39.71h0l-.4.73h0l-.12.22v0l-.59,1.08h5.94l.22-.18h0l.32-.28h0l2.52-2.11v0l.54-.46v0l.34-.29h0l4.42-3.72h0l.05,0h0l1.73-1.46h0l6.55-5.55Zm-21.57,12.06h0ZM391,510.55a2.32,2.32,0,0,1-.1.8,1.23,1.23,0,0,1-.28.45,1.43,1.43,0,0,1-1.15.44H378.64V451l.09-.05h0l.2-.1,0,0,.2-.11h0l.27-.15,0,0,.2-.1h0l.1-.06h0l.23-.14,0,0,.28-.16h0l.23-.14,0,0,.33-.19,0,0,.42-.25h0l.18-.11,0,0,.44-.27h0l0,0h0l.4-.25h0l.55-.35,0,0,.24-.15h0l.44-.28,0,0,.73-.47h0l0,0h0l.62-.41v0l0,0h0l.36-.24h0l.72-.49.05,0v0l0,0h0l.49-.34h0l.18-.12v0l.44-.31h0l.7-.48,0,0,.77-.55h0l.32-.22v0l.15-.11h0l1.12-.81,0,0,.25-.18Z"/><path class="cls-6" d="M161.33,614.52a7.3,7.3,0,0,0,1.36.23c-3.21-1.68-5-5.81-4.07-9.91s4.25-6.78,7.79-6.55a7,7,0,0,0-1.29-.52c-4-1.13-8.12,1.7-9.16,6.32S157.32,613.38,161.33,614.52Z"/><path class="cls-2" d="M202.13,686.36a11,11,0,0,0,.73,1.35l-.73-1.35Zm7,11.45,3.08,2.26c.42.37,2.74,2.55,1.33,1.25-7.39-6.81,6.59,11,.51.74-6.88,7.91-18.5,6.74-24-2.42-3,6.08-9,9.93-15.6,9.27-6.2-.63-11.27-5.09-13.5-11.1-5.2-1.33-8.86-6.79-8.37-12.89a13.1,13.1,0,0,1,.62-3,5.8,5.8,0,0,1-1.72.09c-3.52-.35-6.12-3.83-5.8-7.77a7.46,7.46,0,0,1,1.42-3.87c-.08-.16-.15-.32-.22-.48l-.42-.23.26-.13c-.08-.16-.15-.31-.22-.47-2.69-6.63-1.18-13.88,3.38-16.2a6.85,6.85,0,0,1,1.59-.56c-3.42,3-4.34,9.35-1.95,15.22s7.27,9.3,11.53,8.38a6.86,6.86,0,0,1-1.42,1c-4.14,2.1-9.35-.59-12.29-6.05a12.3,12.3,0,0,0,1.64,6.36c2.12,3.22,7.74,2.37,7.74,2.37s-2.71,2.21-.28,7.6c2.26,5,8.19,4.4,9.64.29-.56,2.45-1.62,9.49,3.09,15,5.8,6.8,15.4,0,14.81-10.58,0,0-15.88,4.09-13.55-13.07,0,0,.18,9.6,9.26,9.27s11.59-10,11.59-10-1.35,8.92-5.17,11c0,0,6.48,8.29,10.84,3.4a8.75,8.75,0,0,0,8.2,6.5A6.71,6.71,0,0,0,209.13,697.81Z"/><path class="cls-2" d="M366.44,546.36a6,6,0,0,0,1,.54,7.34,7.34,0,0,1-1.41-8.55,5.77,5.77,0,0,1,7.33-2.88,6.56,6.56,0,0,0-.92-.73,5.75,5.75,0,0,0-8.36,2.35A7.26,7.26,0,0,0,366.44,546.36Z"/><path class="cls-2" d="M361.36,534.34a5.59,5.59,0,0,0,1.12.19,7.37,7.37,0,0,1-3.36-8.17c.77-3.37,3.51-5.59,6.43-5.39a5,5,0,0,0-1.07-.43c-3.31-.94-6.69,1.4-7.55,5.2S358.05,533.4,361.36,534.34Z"/><path class="cls-2" d="M381.8,511.25a7.9,7.9,0,0,1,6.77-6.88c3.75-.65,7.21,1.21,8.31,4.27a6,6,0,0,0-.05-1.27c-.52-3.77-4.38-6.24-8.61-5.5S381,506.25,381.5,510A6.14,6.14,0,0,0,381.8,511.25Z"/><path class="cls-2" d="M444.32,507.42c3,2.55,4.26,6.62,3.07,9.64a5.34,5.34,0,0,0,.78-.92c2.05-3,.94-7.86-2.49-10.74s-7.86-2.75-9.91.3a5.82,5.82,0,0,0-.57,1.11C437.45,504.68,441.29,504.86,444.32,507.42Z"/><path class="cls-6" d="M448.39,567.89c2.6,2.47,7,1.51,9.74-2.14s2.91-8.62.31-11.09a5.16,5.16,0,0,0-.95-.7c1.76,2.64,1.37,6.91-1.09,10.15s-6.17,4.36-8.79,2.85A5.83,5.83,0,0,0,448.39,567.89Z"/><path class="cls-7" d="M367.57,586.25a4.11,4.11,0,0,0,.2-.73S367.68,585.79,367.57,586.25Z"/><path class="cls-2" d="M484.84,560.12a24.91,24.91,0,0,0-2.39-12.88c.95,5.31,1.18,13.66-3.13,20.36-6.72,10.44-12.93,4.7-12.93,4.7s3.62,7.09.06,12.29-9.61,2.4-9.61,2.4a14.85,14.85,0,0,0-8.07-13.53c7.56,6.9,3.86,22-4.4,27.2,15.54,38.9-28.06,17-19.9,10.72,5.18-1.09,3.56-7,3.56-7-4.24,8.79-10.3-.45-10.3-.45s-1.22,3.83-8.07,4.46a7.63,7.63,0,0,1-7.54-3.54,8.08,8.08,0,0,0,4.68-8.23,8.34,8.34,0,0,1-9,6A8.76,8.76,0,0,1,390,595a8.38,8.38,0,0,0,2.57,8.45c1.22.09.5.48,1.67.48l.41.92a8.81,8.81,0,0,0,5.24.76,15.9,15.9,0,0,1-1.2,1.93l2.22.87c.38.24-.05.37,1.78,1.5,4,2.44.71.7,4.9,2.49s3.19,1.88,4.89,3l3.82,1.89a12.07,12.07,0,0,0,1.05-.84,20.2,20.2,0,0,0,12.47,6.15c5.74.58,36.28,16.37,19.64-14.69,4.33-5.7,7.82-11.84,9.15-15.93a11,11,0,0,0,2.31.49c6.45.65,12.14-4.68,12.72-11.89a14.75,14.75,0,0,0,0-2.1A22.76,22.76,0,0,0,484.84,560.12Z"/><path class="cls-2" d="M85,546.36a6,6,0,0,0,1,.54,7.34,7.34,0,0,1-1.41-8.55,5.77,5.77,0,0,1,7.33-2.88,6.56,6.56,0,0,0-.92-.73,5.75,5.75,0,0,0-8.36,2.35A7.26,7.26,0,0,0,85,546.36Z"/><path class="cls-2" d="M79.88,534.34a5.59,5.59,0,0,0,1.12.19,7.37,7.37,0,0,1-3.36-8.17c.77-3.37,3.51-5.59,6.43-5.39a5,5,0,0,0-1.07-.43c-3.31-.94-6.69,1.4-7.55,5.2S76.57,533.4,79.88,534.34Z"/><path class="cls-2" d="M100.32,511.25a7.9,7.9,0,0,1,6.77-6.88c3.75-.65,7.21,1.21,8.31,4.27a6,6,0,0,0-.05-1.27c-.52-3.77-4.38-6.24-8.61-5.5S99.49,506.25,100,510A6.14,6.14,0,0,0,100.32,511.25Z"/><path class="cls-2" d="M166.91,567.89c2.6,2.47,7,1.51,9.74-2.14s2.91-8.62.31-11.09a5.16,5.16,0,0,0-1-.7c1.76,2.64,1.37,6.91-1.09,10.15s-6.17,4.36-8.79,2.85A5.83,5.83,0,0,0,166.91,567.89Z"/><path class="cls-2" d="M86.09,586.25a4.11,4.11,0,0,0,.2-.73S86.2,585.79,86.09,586.25Z"/><path class="cls-2" d="M173.22,599.84c-3.55,5.2-9.61,2.4-9.61,2.4a14.87,14.87,0,0,0-8.07-13.54c7.56,6.91,15.61,6.79,7.35,12s-18.18-3.28-13-4.37,3.56-7,3.56-7c-4.23,8.79-10.29-.45-10.29-.45s-1.22,3.83-8.07,4.46a7.65,7.65,0,0,1-7.55-3.54,8.12,8.12,0,0,0,4.71-6.7,7.81,7.81,0,0,0,0-1.53,8.33,8.33,0,0,1-9,6,8.76,8.76,0,0,1-7.87-7.65,7.45,7.45,0,0,0-.27,1.51,8.69,8.69,0,0,0,7.89,9.18,8.57,8.57,0,0,0,2.27-.08c-1.29,2.41-3.59,5.43-7,5.26a7.22,7.22,0,0,1-6.76-5.36c-3.59,4-8.93-2.8-8.93-2.8,3.14-1.73,4.26-9.08,4.26-9.08s-2.08,8-9.55,8.26-7.63-7.64-7.63-7.64c-1.92,14.14,11.17,10.78,11.17,10.78.48,8.67-7.43,14.32-12.21,8.72-3.88-4.55-3-10.35-2.55-12.38-1.2,3.39-6.08,3.92-8-.23-2-4.45.24-6.27.24-6.27s-4.63.71-6.38-2a10,10,0,0,1-1.35-5.25c2.42,4.51,6.71,6.72,10.12,5a5.22,5.22,0,0,0,1.18-.8c-3.51.76-7.54-2.06-9.51-6.9s-1.21-10.09,1.61-12.55a5.27,5.27,0,0,0-1.31.47c-3.75,1.9-5,7.88-2.78,13.34a3.52,3.52,0,0,0,.17.39l-.21.11.34.19.18.39a6.28,6.28,0,0,0-1.17,3.2c-.25,3.24,1.89,6.11,4.79,6.4a4.73,4.73,0,0,0,1.41-.08,11.38,11.38,0,0,0-.51,2.52c-.4,5,2.62,9.52,6.9,10.62,1.84,5,6,8.64,11.13,9.15,5.43.55,10.38-2.63,12.86-7.64a12.61,12.61,0,0,0,9.48,6.28,12.07,12.07,0,0,0,10.32-4.28,11.57,11.57,0,0,0,8.71,5.8,10.86,10.86,0,0,0,8.39-2.84,20.21,20.21,0,0,0,12.46,6.16c9.81,1,6.91,9.59,10.13-.29a11,11,0,0,0,2.31.49c6.45.65,9-6.06,9.58-13.28a14.59,14.59,0,0,0,0-2.09C177.6,592.1,161,584.89,173.22,599.84Z"/><polygon class="cls-2" points="106.25 672.55 100.66 673.47 214.04 750.52 106.25 672.55"/><polygon class="cls-2" points="463.19 672.55 468.77 673.47 355.4 750.52 463.19 672.55"/><path class="cls-1" d="M246.06,591.91l-1.93.6c-.19,4.25-.15,15.36-.92,18.63-.42,1.79,5.27-5.75,5.68-7,0,.06-5.6,17.17-3,13.85,5.29-6.84,2.37-1.14,1.87,4.82-.15,1.86-2.46,8.91-.69,9.68,3.51,1.53,16.37,3.42,19.63,1.65,3-1.62,5.55-1.74,8.87-4,1.8-1.21,3-1.36,5.42-3.18,1.2-1.26,4.6-1.6,6.4-.39,3.32,2.24,4.89,5.92,7.88,7.54,3.27,1.77,16.12-.12,19.64-1.65,1.76-.77-.54-7.82-.7-9.68-.49-6-3.42-11.66,1.88-4.82,2.57,3.32-3-13.79-3-13.85.4,1.24,6.1,8.78,5.68,7-.77-3.27-.73-14.38-.93-18.63l-1.92-.6-.25.13c-8.52,2.05-11.75.24-21.41,4.29-1.47.62-7.69,1.45-13.24,1.93-5.55-.48-11.78-1.31-13.25-1.93-9.65-4.05-12.88-2.24-21.41-4.29Z"/><path class="cls-2" d="M259.23,542a4.53,4.53,0,0,1,4.48,4.62,4.64,4.64,0,0,1-4.13,5A4.53,4.53,0,0,1,255.1,547,4.64,4.64,0,0,1,259.23,542Z"/><path class="cls-2" d="M243.49,475.55,262,469.17c-8.44,11.28-21,56.69-10.45,68.44-2.65.77-15.43-31.7-16-43a91.09,91.09,0,0,0-1.16,9.22c-.28,10.19,6.68,43.76,15.34,49.84-1.13.5-16.43-3.37-30.73-30.85,1.51,41.66,78,49.43,23.33,47.28-11.34-.45-26.28-4.06-31.46-14.32l-.3-.65-2.18-18.45,5.67-28Z"/><path class="cls-2" d="M261.1,634.83l-2.45,1.1c1.08,4.23,3.52,5.47,5.49,8.86,1.14,2,3.64,3.81,3.21,5.36-.8,3-2.31,3.09.24,4.7s5.74,2.08,7,4.53c3.06,6,7.13,4.4,7.1,7.25-.06,4.82,9.66,6.31,13.59-4.94-4,2.56-6.77,2.07-7.13,1.37-1.8-3.53.3-1.78.43-3.21-.22-.24-5.4-1.17-5.84-2.38s3.13.82,3.45.9c5.9,1.34,6.37-1.68,10.86-3.27,3.15-1.11-.22-1.16,2.24-1.46,1.25-.15,4.06-1.8,3.56-2-1.39-.67-9.15-.19-11.11-.06s-5.91-.89-7.42-.32c-2.2.84-13.91-1.51-12.11-1.94,1.29-.31,3.12-1.81,4.23-2.18,5.65-1.89,6.58.49,10.38.12a62.33,62.33,0,0,1,7.69-.53c3.72,0,6.75.83,8.16-2.9,1.13-3-.93,2.47-5.26,2.09a20.71,20.71,0,0,0-5.94.07,17.13,17.13,0,0,1-4.7.19c-4.21,0-6.3-2.15-10.61-.19a19.78,19.78,0,0,1-5.92,1.08c1.84-3.85,4.07-2.53,8.33-4.66,1.35-.67,2.28,1.24,6.29-.1,4.55-1.52-4.74-2.9-5.39-7.12-.2-1.37-1.53-5.49-2.85-5-4.88,1.9.15,1.84-9,2.84C266.06,633.19,263.07,635.83,261.1,634.83Z"/><path class="cls-2" d="M270.78,653.48l15.44,15.08c-1.85,1.46-2.92-.27-5.08-1.13-20-8-30.37-11.92-40-24.68a82.8,82.8,0,0,1-12.78-26.37C229.63,619.21,248,646,246,638c-1.51-6-3.57-7.6-7.27-13a5.11,5.11,0,0,1-.58-1.17l19.25,10.83,10.36,2.25Z"/><path class="cls-2" d="M264.59,699.46a30.94,30.94,0,0,1,5.79-4.16c5.76-2.89,9.57-14,5.85-21-2-3.83-4.69-8.28-4.15-12.76,5.31,4.45,9.46,5.93,13.44,5.74v51.06c-5.75.43-6.43,5.45-12.21,5.33-2.28,0-5.36,6.66-16.84.13-2.58-1.47-14.67-1.1-18.23.9-.64.36-3.8-5-2.34-5.52,3.68-1.27,4.25.2,10.5-2.78,6.65-3.15,6.82-7.94,14.42-12.35C263.64,702.42,264.09,699.8,264.59,699.46Z"/><path class="cls-2" d="M302.75,699.46A30.94,30.94,0,0,0,297,695.3c-5.76-2.88-9.57-14-5.85-21,2-3.83,4.69-8.28,4.15-12.76-5.31,4.45-5.76,5.93-9.74,5.74v51.06c5.75.43,6.44,5.45,12.21,5.33,2.28,0,5.37,6.66,16.85.13,2.58-1.47,14.67-1.1,18.22.9.64.36,3.8-5,2.34-5.52-3.67-1.27-4.24.19-10.5-2.78-6.64-3.15-10.52-7.94-18.12-12.35C303.7,702.43,303.25,699.8,302.75,699.46Z"/><path class="cls-2" d="M235.16,581.33l-5.73,4.95,31.35,5.81,10.73,2.85,13-.05,13,.05c13.37-4.15,23.07-5.65,37.42-8.38l-6.63-9.9,5.8-5c-37.46,1.52-64,1.42-101.58-.1l3.71,8.84-1,.89Zm-8.35.51,5.32-2.5-4.86-11.6,57.22,2.32,59.67-2.42-11.36,9.73,9,10.27-6.4,2.53-26.71,5.08-10.76,3.33-13.43,0-13.41,0L260,595.65l-29.45-5.46-8.72-3.87Z"/><path class="cls-2" d="M207.94,637.28c-2.51-3.93-6.21-10,.74-12.23,11.92-3.9,13.14,12.6,11.9,13.36-2.76,1.69-5-9.25-9.77-7.5C208.27,631.83,210.14,640.73,207.94,637.28Z"/><path class="cls-2" d="M208.12,627.33c-3.85-2.77-7.29-4.1-7.82-10.76-.57-7.23,15-7.35,13.59,6.69-.49,4.89-2.06,2.68-2.52-.84-1.16-8.82-8.56-8.32-7.17-3a11.85,11.85,0,0,0,3.39,5.8C207.65,625.49,207.77,627.08,208.12,627.33Z"/><path class="cls-2" d="M205.36,613.66l-.72.88c-1.71-5-3.57-6.11-2.62-11.37.54-2.94-.58-8.92.49-8.91,2.73,0,2,8.8,3.75,13,1.92,4.69-.62,9.84-1.21.55-.11-1.71-3.27-7.62-1.48.41C204,610.17,204.19,612.45,205.36,613.66Z"/><path class="cls-2" d="M358.23,637.28c2.5-3.93,6.21-10-.74-12.23-11.92-3.9-13.14,12.6-11.9,13.36,2.75,1.69,5-9.25,9.77-7.5C357.9,631.83,356,640.73,358.23,637.28Z"/><path class="cls-2" d="M358.05,627.33c3.85-2.77,7.28-4.1,7.81-10.76.58-7.23-15-7.35-13.59,6.69.5,4.89,2.07,2.68,2.53-.84,1.16-8.82,8.55-8.32,7.17-3a11.85,11.85,0,0,1-3.39,5.8C358.52,625.49,358.4,627.08,358.05,627.33Z"/><path class="cls-2" d="M360.81,613.66l.72.88c1.71-5,3.56-6.11,2.61-11.37-.53-2.94.59-8.92-.48-8.91-2.73,0-2,8.8-3.75,13-1.92,4.69.62,9.84,1.21.55.11-1.71,3.27-7.62,1.47.41C362.15,610.17,362,612.45,360.81,613.66Z"/><path class="cls-2" d="M179.81,662.35a27.92,27.92,0,0,1-8.64-11.14,121.61,121.61,0,0,0,42.23,13c-6.15.51-5.68,3.69-18.45,1.51C185.16,665.29,183,664.7,179.81,662.35Z"/><path class="cls-2" d="M388,662.35a27.92,27.92,0,0,0,8.64-11.14,121.61,121.61,0,0,1-42.23,13c6.15.51,5.68,3.69,18.45,1.51C382.61,665.29,384.77,664.7,388,662.35Z"/><path class="cls-2" d="M89.89,629.54c-2,11.86-.41,22.22,6.22,26l-6.55.53a31.59,31.59,0,0,1-5-11.82C82.8,636.58,82.51,633.16,89.89,629.54Z"/><path class="cls-2" d="M479,629.54c2,11.86.42,22.22-6.21,26l6.55.53a31.75,31.75,0,0,0,5-11.82C486.11,636.58,486.4,633.16,479,629.54Z"/><polygon class="cls-2" points="210.58 676.13 207.57 674.79 223.51 710.58 224.81 710.72 210.58 676.13"/><polygon class="cls-2" points="225.52 666.72 222.51 665.38 235.47 712.09 236.76 712.22 225.52 666.72"/><polygon class="cls-2" points="356.33 676.13 359.34 674.79 343.4 710.58 342.11 710.72 356.33 676.13"/><polygon class="cls-2" points="341.39 666.72 344.4 665.38 331.45 712.09 330.15 712.22 341.39 666.72"/><path class="cls-2" d="M308.52,542a4.53,4.53,0,0,1,4.48,4.62,4.63,4.63,0,0,1-4.13,5A4.53,4.53,0,0,1,304.4,547,4.63,4.63,0,0,1,308.52,542Z"/><path class="cls-7" d="M266.61,695.3c-.45.23-.92.45-1.42.68-4.23,5.92-3.63,6-10.05,9l-3.55,1.09c-4,7.25-5.81,8.39-12.87,11.39l-2.33-.69c-1-1-1.31-.74-2.3-1.75,7.85.63,10.95-9.83,13.57-16.21a12.13,12.13,0,0,0,.37-3.57h18.58Z"/><path class="cls-7" d="M247.2,654.58A126.44,126.44,0,0,0,262.13,662l8.21,2.61c5,10.94,9.7,20.42,1.09,27.63l-23.8-.22a45,45,0,0,0-5.55-13.43c-3.65-6.11-6.47-10-9-12.54Z"/><path class="cls-7" d="M150.15,640.72c-9.51,3.14-20,7-30.95,8.91,32.07-16.83,28.72-17.63,63.5-19.34h9.07l1.84-.41c2.42,3.87,4.84,5.64,8.09,8.64,10,7.78,13.4,9.55,25.49,6.17l3.93-1.23,2.32-1L245,653.18,231.3,664.36c-7.7-6.14-13,.77-32.91-7.88l-21.7-7c-3.74-1.86-7.45-3-11.13-5.48.09,1.69-.23,4.06-.15,5.76-6.24-.42-11.13-2.14-17.37-2.55,15.06-6.62,35.33-8.86,51.88-.75C194.76,633.78,159.43,636,150.15,640.72Z"/><path class="cls-7" d="M301.2,695c.45.23.92.46,1.41.68,4.24,5.93,3.64,6,10.05,9l3.56,1.1c4,7.25,5.81,8.39,12.87,11.38l2.33-.68c1-1,1.31-.74,2.3-1.76-7.86.64-11-9.82-13.58-16.21a12.37,12.37,0,0,1-.36-3.56H301.2Z"/><path class="cls-7" d="M320.6,654.31a128.64,128.64,0,0,1-14.92,7.39l-8.22,2.6c-5,10.94-9.69,20.42-1.09,27.63l23.81-.22a44.63,44.63,0,0,1,5.55-13.42c3.64-6.11,6.47-10,8.94-12.54Z"/><path class="cls-7" d="M417.66,640.44c9.5,3.14,20,7,30.95,8.91-32.08-16.82-28.73-17.62-63.5-19.33H376l-1.84-.41c-2.42,3.87-4.85,5.64-8.09,8.64-10,7.77-13.4,9.55-25.5,6.17l-3.92-1.24-2.33-1-11.58,10.69,13.72,11.18c7.7-6.14,12.95.77,32.92-7.88l21.7-7c3.73-1.87,7.45-3,11.12-5.49-.08,1.69.24,4.07.15,5.76,6.24-.41,11.13-2.13,17.37-2.54-15.05-6.62-35.33-8.86-51.88-.75C373.05,633.51,408.38,635.74,417.66,640.44Z"/><path class="cls-2" d="M277.28,630.5l-5.07,5.08c10.06,10.86,16.29,10,24.65-2.05-3.47,2.62-9,6.08-13.17,6.14a9.17,9.17,0,0,1-5.45-9.39Z"/><polygon class="cls-7" points="273.58 581.11 264.69 583.22 272.32 592.68 295.37 592.68 303.14 583.14 292.38 580.73 284.06 579.7 273.58 581.11"/><path class="cls-2" d="M323.34,645.17l-4.59,2.73c4.06-5.15,7.59-16.26,12.31-19.63,5.57-4,27-30.61,25.5-40-.16-1,3.24-3.21,3.09-.46-.25,4.79-4,17.32-6.92,23.81-2.54,5.72-5.32,8-7.09,10.92-8.13,13.6-6.26,8.6-17.41,17.63C327.58,640.64,323.45,645.13,323.34,645.17Z"/><path class="cls-7" d="M309,516.24h0l.14,0A.7.7,0,0,1,309,516.24Z"/><path class="cls-7" d="M338.63,477.77q.62-2.37,1.32-4.89a66.68,66.68,0,0,1,2.41-6.94c4.62-11.47,13.95-28.2,27.65-28.35,8.15-24.62,82.41-154.76,87.68-155.25,5.1.93-5.36-.77,0,0-.05,0-78.33,136.21-84.83,155,9.36-1.61,122.27-101.28,122.46-101.59,1.56,2.22-1.49-2.11,0,0C489.64,344.29,386.38,440.42,370.87,443c-9.65,26.37-19.53,34.45-25.35,36.68a10.5,10.5,0,0,1-3.6.8c-.54,0-1.07,0-1.6,0v-2.61h1.92a11.41,11.41,0,0,0,3.37-.86c5.3-2.18,14.1-9.76,22.61-33.95-12.37.18-20.67,14.36-24.79,24.34-.95,2.33-1.73,4.51-2.25,6.27-.39,1.37-.76,2.73-1.11,4.09Z"/><path class="cls-2" d="M470,258.92a7.12,7.12,0,0,0,1.89,2.52l1.67,3.83c1.75,4.35,3.28,7.43,3.16,13.17a21,21,0,0,1-1.07,5.7c-1.91,7-5.75,11.09-6.87,13.28-.55.6-.61.88-1.07,1.43-.23.26-.16.16-.33.36-.94,1.16-.13.62-1,1a11.53,11.53,0,0,1-1.85,2.36l-4.15,4.21c-1.49,1.53-1.51,1.05-1.94,2.08l-1.34,1c-1.44.9-3.19,2.1-4.69,3.14L450,314.65l-2.3,1.58a27.4,27.4,0,0,0-6.1,4,19.2,19.2,0,0,0-2.46,2.63c-.81,1.05-1.14,2.19-1.85,3.25l-.18,2c.61,1,.56,2.44,2.34,2.44,1.36,0,3.13-1.19,4.08-1.85a68.69,68.69,0,0,0,6.41-5.67,21.18,21.18,0,0,0,3.38-1.32,23.79,23.79,0,0,1,4.38-1.25c3.33-.59,5.61-.87,8,.1a9.44,9.44,0,0,1,4.62,3.6c1.63,1.95,1.57,4.16,1.12,7.17-1.73,2.2-6.33,7.8-2.64,10.38,2.29,1.61,7.23-6.1,8.5-7.74l5.37-7.41,16.16-21.93a9.37,9.37,0,0,0,1.66-1.67,20.78,20.78,0,0,1,3.76-3.2c3.07-2.26,7.82-4.4,11-3.12.71.29-.16.17,1.08.32a9.38,9.38,0,0,1,1.8,1.31c0,1-.15,1.79.35,2.47,1.1-.17.08-.33.9-.42.23,0,1.53.9,3.85-1.39l.15-1.71-.46-1.55-.45-1.63c-.17-1.76-.77-3.86-1.1-5.72-1.14-6.32-.46-6.59-.35-12.7,0-2-.31-4.74-.15-6.53a5.4,5.4,0,0,0,.27-3.05c-.34-1.16-.58-1.29-1.81-1.47a3,3,0,0,1-.83-.56c.46-.53,1.46-1.15,2-1.64A5,5,0,0,0,522,260c.56-.75-.08-.32.69-1,1.93-1,2.88-3.59,3.38-5.86.77-3.5,0-4.69-1.27-6.31-1-1.12-2-.63-3.93-.75a11.17,11.17,0,0,0-5.67,4,9.41,9.41,0,0,0-2.49,6.74c.12.14,0,.17,0,.19a1.76,1.76,0,0,1-.14.26c-.2.88-.75.87-1,1.61-.6-.28-.06,0-.43-.29-.53-.47-.63-1.5-2.06-.8a35.46,35.46,0,0,1-3.93-.81c-8.32-1.25-13.21.55-22.38-1.25-1.66-.32-6.74-1.14-7.68-2l-1.85-.36c-2.08-1.47-5,.16-5.51,2.91l.06,2.2A3.35,3.35,0,0,0,470,258.92Z"/><path class="cls-8" d="M346.57,470.2v1.36l-.68.42C346.11,471.39,346.33,470.79,346.57,470.2Z"/><path class="cls-8" d="M341.1,458.93V425.19a26.94,26.94,0,0,0-.79-7.18,7.34,7.34,0,0,0-1.86-3.49,10.12,10.12,0,0,0-3.17-2,10.29,10.29,0,0,0-3.78-.67h-9.59V473l-9.09-7.4-19.7-3.67V260.34h45.16a29.71,29.71,0,0,1,6.33.67,29,29,0,0,1,6,2h0a31.18,31.18,0,0,1,5.38,3.17,29.92,29.92,0,0,1,4.61,4.2l0,0a35.49,35.49,0,0,1,3.74,5.11,40.28,40.28,0,0,1,2.92,5.84,35.64,35.64,0,0,1,1.93,6.65,38.58,38.58,0,0,1,.64,7.1v79a57.6,57.6,0,0,1-.4,7.13,31.13,31.13,0,0,1-1.26,5.82,36.08,36.08,0,0,1-1.62,4.27,19,19,0,0,1-2,3.39h0a16.44,16.44,0,0,1-1.77,2.06,21,21,0,0,1,2,2.9v0a35.22,35.22,0,0,1,1.81,3.82c.56,1.38,1.09,2.87,1.57,4.47a33.42,33.42,0,0,1,1.25,5.82,54.86,54.86,0,0,1,.4,6.91v6.66c-1,2.22-1.84,4.19-2.5,5.89a19.5,19.5,0,0,0-3,.65v-13.2a47.8,47.8,0,0,0-.35-6.05,25.93,25.93,0,0,0-1-4.65l0-.06c-.45-1.46-.9-2.76-1.36-3.9a28.61,28.61,0,0,0-1.46-3.07,14.18,14.18,0,0,0-1.66-2.37,7.94,7.94,0,0,0-1.67-1.47l-4.78-3.06,5.06-2.42a7.29,7.29,0,0,0,1.66-1.11,10.76,10.76,0,0,0,1.58-1.74v0a12.13,12.13,0,0,0,1.3-2.28,28.68,28.68,0,0,0,1.33-3.48l0-.06a23.68,23.68,0,0,0,1-4.56,50.57,50.57,0,0,0,.35-6.29v-79a32.51,32.51,0,0,0-.52-5.86,28.3,28.3,0,0,0-1.57-5.37,33.56,33.56,0,0,0-2.45-4.91,30.76,30.76,0,0,0-3.11-4.27A25.62,25.62,0,0,0,353,271.3a26.47,26.47,0,0,0-4.44-2.63,24.3,24.3,0,0,0-5-1.64,25,25,0,0,0-5.33-.55h-39.7V456.73L315,459.79l1.44,1.17V405.72H331.5a15,15,0,0,1,10.39,4,13.27,13.27,0,0,1,3.63,6.39,33.63,33.63,0,0,1,1.05,9v23.92A80.27,80.27,0,0,0,341.1,458.93Z"/><path class="cls-8" d="M367.16,521.45H355.72l.25-9.12L341.1,493.48v-3.65c.31-1,.6-2.12.87-3.25.14-.54.26-1.08.39-1.61a13,13,0,0,0,1.88-.26,17.73,17.73,0,0,0,2.33-.71v7.18l14.91,18.91-.15,5.22h3.1v-49a106.16,106.16,0,0,0,5.46-10.47v65.61Z"/><path class="cls-8" d="M341.83,383.81a15.26,15.26,0,0,1-10.33,3.82H316.44V286.43H331.5a17.72,17.72,0,0,1,5.42.82,15.8,15.8,0,0,1,4.78,2.52,11.36,11.36,0,0,1,3.75,5.35,22.26,22.26,0,0,1,1.12,7.43v67.1a27.7,27.7,0,0,1-1.08,8.23,12.52,12.52,0,0,1-3.66,5.93Zm-10.33-2.32a10.33,10.33,0,0,0,7-2.52,6.67,6.67,0,0,0,1.85-3.11,21.39,21.39,0,0,0,.75-6.21v-67.1a15.73,15.73,0,0,0-.71-5.15,5.47,5.47,0,0,0-1.75-2.57,10.52,10.52,0,0,0-3.22-1.68,12.84,12.84,0,0,0-3.92-.58h-9.59v88.92Z"/><path class="cls-8" d="M219.25,499.42c.25.62.52,1.23.79,1.81,1.72-3.21,3.6-6.31,5.57-9.28A134.64,134.64,0,0,1,235,479.47v-213H221.43a4.38,4.38,0,0,0-3.08,1.32,3.68,3.68,0,0,0-.92,1.28,3.44,3.44,0,0,0-.27,1.41v217.7a32.31,32.31,0,0,0,.52,5.85A28.61,28.61,0,0,0,219.25,499.42Z"/><path class="cls-8" d="M218,509a37.81,37.81,0,0,1-2-3.39c-.63-1.2-1.19-2.43-1.69-3.66a35.13,35.13,0,0,1-1.94-6.65,38.74,38.74,0,0,1-.64-7.1V270.49a10.15,10.15,0,0,1,.82-4.08,9.77,9.77,0,0,1,2.33-3.29,9.34,9.34,0,0,1,6.58-2.78h19.06V481.92l-.78.91A130.39,130.39,0,0,0,230,495.62c-2.77,4.17-5.87-2.33-8,2.09L218.28,504Z"/><polygon class="cls-8" points="286.68 451.91 286.68 266.48 268.81 266.48 268.81 455.3 286.68 451.91"/><polygon class="cls-8" points="292.14 263.41 292.14 457.08 267.46 461.78 263.35 463.31 263.35 260.34 292.14 260.34 292.14 263.41"/><path class="cls-8" d="M202.4,322.17c-.48.21-1.32.62-2.49,1.21l-4.5,2.28h0l-5.09,2.64-4.54,2.37-3.88,2.05v-33.9a12.79,12.79,0,0,0-.7-4.34,10.83,10.83,0,0,0-2.16-3.55,9.1,9.1,0,0,0-7.07-3.2,8.77,8.77,0,0,0-6.74,3.2,10.83,10.83,0,0,0-2.16,3.55,12.79,12.79,0,0,0-.7,4.34v24.12c.11,1.36.28,2.76.53,4.2s.6,3.09,1,4.77l0,.09c.32,1.44.73,3,1.21,4.77s1.06,3.69,1.72,5.77v0c.61,2,1.37,4.15,2.26,6.33s1.94,4.51,3.15,7l27.46,58.2.1.24q1.54,4.13,2.6,7c.81,2.22,1.61,4.5,2.43,6.84v0c.68,2,1.32,4.18,1.94,6.43s1.2,4.54,1.75,6.92a66.18,66.18,0,0,1,1.32,7.25,56.34,56.34,0,0,1,.45,6.95v32.06A38.93,38.93,0,0,1,208,501.4a35.49,35.49,0,0,1-4.17,8l-14-22.28-8.32-13.25V455.06c-.1-1.36-.28-2.76-.53-4.19s-.6-3.1-1-4.77l0-.1q-.5-2.25-1.17-4.83t-1.6-5.84h0A65,65,0,0,0,175,429c-.87-2.19-1.91-4.5-3.11-6.95l-28-58.61-.07-.16c-1.06-2.53-2-4.92-2.81-7.19s-1.58-4.55-2.27-6.88q-1-3.12-1.94-6.45c-.61-2.26-1.16-4.58-1.67-7s-.91-4.87-1.17-7.24a61.27,61.27,0,0,1-.4-6.95V295.53a37.87,37.87,0,0,1,2.57-13.9h0a45.07,45.07,0,0,1,2.9-6.13,41.41,41.41,0,0,1,3.69-5.39v0a31.69,31.69,0,0,1,10-8.15h0a26.36,26.36,0,0,1,6-2.31,26.73,26.73,0,0,1,6.42-.78h14.55a24.51,24.51,0,0,1,6.15.78,25.4,25.4,0,0,1,5.81,2.33h0a30.94,30.94,0,0,1,9.69,8.18l0,0a43.12,43.12,0,0,1,3.56,5.46,49.33,49.33,0,0,1,2.83,6.15,39.55,39.55,0,0,1,1.91,6.77,37.77,37.77,0,0,1,.65,6.92v9.69a30.45,30.45,0,0,1-.57,6.2,15.63,15.63,0,0,1-1.86,5l0,.06a22,22,0,0,1-2.38,3.15,14.33,14.33,0,0,1-2.73,2.37l-.15.1-.23.11Zm-6,195.11-17.06-26.49c-.17.22-.34.43-.52.63a8.75,8.75,0,0,1-3,2.25,9.46,9.46,0,0,1-3.88.77,8.73,8.73,0,0,1-3.65-.75,9.94,9.94,0,0,1-3.14-2.32,10.72,10.72,0,0,1-2.12-3.38,11,11,0,0,1-.69-4V464.36l-2.55-4c-1.13,1.3-2.87,2.21-6,2.24a11.88,11.88,0,0,1-5.43-1.43,20.93,20.93,0,0,1-2.24-1.35c-.22,2.85-1.63,5.62-5,8a9,9,0,0,1-1.22.76l52.49,51.3a29.71,29.71,0,0,0,4-2.63Zm-15.77,6-47.11-45v9.9a38.21,38.21,0,0,0,2.24,13.21,34.68,34.68,0,0,0,6.67,11.13h0a32.79,32.79,0,0,0,9.82,7.66A30,30,0,0,0,164,523.3l.15,0h14.55Q179.72,523.32,180.68,523.26Z"/><path class="cls-8" d="M399.24,429.2v81.35a12.42,12.42,0,0,1-.71,4.22,10.73,10.73,0,0,1-2.1,3.55,8.92,8.92,0,0,1-6.92,3.13H370.45V454.61c1.08-2.43,2.16-5.05,3.23-7.88.68-.29,1.43-.64,2.23-1.06v69.64h13.6a3.9,3.9,0,0,0,3.07-1.34,4.34,4.34,0,0,0,.89-1.48,5.69,5.69,0,0,0,.3-1.94V433.48C395.53,432.13,397.36,430.7,399.24,429.2Z"/><path class="cls-8" d="M409.29,404.4h-7.12a3.24,3.24,0,0,0-1.22.22,3,3,0,0,0-1,.67,2.75,2.75,0,0,0-.74,2v5.41c-1.89,1.55-3.72,3-5.47,4.45V407.3a8.93,8.93,0,0,1,2.59-6.57,8.39,8.39,0,0,1,2.69-1.84,7.91,7.91,0,0,1,3.12-.63h14.47Q412.91,401.4,409.29,404.4Z"/><path class="cls-8" d="M411.54,372.05l30.78-.28-1.65,4.31c-.29.75-.64,1.65-1.05,2.69-3,2.57-6,5.15-9.06,7.73l.62-1.53q1.4-3.44,2.37-5.89h0L434,378l-25.84.23Q409.84,375.15,411.54,372.05Z"/><path class="cls-8" d="M450.63,264.69l-2.12,5.16-2.38,5.83-2,5c-.44,1.06-.82,2-1.17,2.73l-.06.15a18.82,18.82,0,0,1-2,3.08,23.35,23.35,0,0,1-2.64,2.82,11.19,11.19,0,0,1-4.45,2.39,19.93,19.93,0,0,1-5.6.71h-26a3.24,3.24,0,0,0-1.22.22,3.19,3.19,0,0,0-1,.67,2.5,2.5,0,0,0-.56.86,3.19,3.19,0,0,0-.18,1.15v75.28c-1.4,2.54-2.79,5.06-4.15,7.56h-1.32V295.47a10,10,0,0,1,.65-3.6,8.59,8.59,0,0,1,1.94-3,8.39,8.39,0,0,1,2.69-1.84,7.91,7.91,0,0,1,3.12-.63h26a15.46,15.46,0,0,0,4.23-.49,5.9,5.9,0,0,0,2.38-1.25,17.87,17.87,0,0,0,2-2.12,11.82,11.82,0,0,0,1.32-2h0q.24-.54,1-2.43l2-5,2.37-5.83.34-.83H380.18a3.58,3.58,0,0,0-1.51.32,5.11,5.11,0,0,0-1.48,1.1,4.18,4.18,0,0,0-1.28,3V414.79c-2.1,4.21-3.94,8-5.46,11.38V270.87a10.91,10.91,0,0,1,6.15-9.73,8.46,8.46,0,0,1,3.58-.8h72.25Z"/><path class="cls-7" d="M448.15,263.41q-2,4.84-4.49,11c-1.67,4.1-2.72,6.64-3.17,7.64a17.8,17.8,0,0,1-4,5c-1.78,1.62-4.55,2.42-8.33,2.42H410.28V263.41ZM410.28,401.33V375.12l27.88-.25c-.93,2.43-2,5-3,7.75h0l-.35.3-.35.29-.35.3-.35.3-.07.06-.28.24-.35.29-.35.3-.35.3-.35.3-.13.11-.22.19-.35.29-.35.3-.35.3-.35.3-.18.15-.17.14-.35.3-.35.3-.34.29-.35.3-.24.2-.11.1-.35.29-.35.3-.35.3-.35.29-.29.25-.06.05-.35.29-.35.3-.35.29-.34.3-.35.29h0l-.35.3-.35.29-.35.29-.34.3-.35.29,0,0-.3.25-.34.3-.35.29-.35.29-.34.29-.11.09-.24.2-.34.3-.35.29-.34.29-.35.29-.16.13-.18.16-.35.29-.34.28-.34.29-.34.29-.22.18-.13.11-.34.29-.34.28-.34.29-.34.28-.68.57-.34.29-.34.28-.34.29-.31.26,0,0-.33.28-.34.28-.34.28Zm0-111.83h-8.11a5.42,5.42,0,0,0-4,1.68,5.84,5.84,0,0,0-1.67,4.29v79.77h.27l-.44.8-.35.63-.09.17-.43.79-.29.53-.15.27-.43.79-.23.43-.2.36-.43.79-.18.34-.25.45-.42.79-.13.23-.3.55-.42.78-.07.14-.35.64-.42.78,0,0-.4.74,0,.09-.36.68-.42.77-.33.61-.08.16-.41.76-.28.52-.13.24-.4.76-.23.42-.18.34-.4.75-.17.32-.23.43-.39.75-.13.23-.27.51-.39.74-.07.14-.32.6-.39.74,0,0-.36.69-.36.68,0,0L384,399l-.3.58-.07.14-.38.71-.25.49-.12.22-.37.71-.2.4-.16.31-.37.7-.16.3-.2.39-.36.69-.11.22-.24.47-.35.68-.07.13-.28.55-.35.68,0,0-.32.63-.32.62,0,0-.34.66-.27.54-.06.12-.33.65-.23.45-.09.19-.33.64-.05.1-.24.48,0,.06-.31.63-.15.28-.17.34-.31.62-.27.56,0,0-.3.61-.06.12-.24.49-.3.59,0,.05-.27.54-.27.56v0l-.06.12-.37.74-.09.2,0,.09-.27.57-.19.4-.08.16V270.87a7.28,7.28,0,0,1,2.16-5.22,6.63,6.63,0,0,1,4.84-2.24h30.1V289.5Zm0,85.62h-.44l-.14.25-.14.25-.13.25-.14.26-.14.25-.42.75-.13.25-.14.25-.28.5-.14.25-.27.5-.14.25-.27.5-.14.24-.14.25-.14.25-.13.25-.13.23v0l-.14.25-.13.25-.14.24-.13.25-.14.25-.14.25-.13.24-.14.25,0,0-.12.21-.13.24-.14.25-.13.25-.14.24-.13.25-.14.25-.13.24-.05.09-.09.16-.13.24-.14.25-.13.24-.14.25-.13.24-.13.24-.14.25-.07.14-.06.1-.13.25-.14.24-.13.24-.13.25-.14.24-.26.48-.11.19,0,.06-.13.24-.13.24-.13.24-.14.24-.13.24-.13.24-.13.24-.13.24c-7.55,13.8-14.22,26.24-18.77,35.27l.18-.14.11-.09.07-.05.19-.15,0,0,.15-.11.16-.12,0,0,.18-.14.1-.07.1-.08.19-.15h0l.17-.14.14-.11.06,0,.19-.15.07-.05.13-.11.19-.14h0l.2-.16.11-.09.09-.06.2-.16,0,0,.17-.13.16-.13,0,0,.21-.16.08-.07.12-.1.21-.16h0l.34-.27.07-.05.21-.17.06,0,.35-.27,0,0,.22-.17.11-.09.1-.08.22-.17,0,0,.19-.14.17-.14.05,0,.22-.17L389,421l.13-.11.23-.18h0l.22-.18.14-.11.09-.07.22-.18.23-.18.2-.16,0,0,.23-.19.11-.09.12-.09.23-.19,0,0,.21-.17.17-.13.07-.05.23-.19.08-.07.16-.12.23-.18h0l.23-.2.14-.11.1-.08.24-.19,0,0,.19-.16.2-.15,0,0,.24-.2.1-.08L394,417l.25-.19h0l.23-.19.17-.14.08-.06.25-.2.07-.06.18-.15.22-.18,0,0,.25-.2.13-.11.12-.1.25-.2,0,0,.21-.18V407.3a5.84,5.84,0,0,1,1.67-4.29,5.42,5.42,0,0,1,4-1.68h8.11V375.12Zm-54.78,132V478a51,51,0,0,0,6.35-7.64l.08-.12.09-.12v0l.07-.1.08-.12,0,0,.05-.07.08-.12.05-.07,0,0,.08-.12.07-.1,0,0,.16-.24.08-.13.08-.12,0,0,.06-.1.09-.13,0-.05.05-.07.08-.13.05-.08,0,0,.09-.13.06-.1,0,0,.08-.13.08-.13.09-.13.08-.14v0l.07-.11.08-.13,0-.06.05-.08.08-.13.05-.09,0-.05.08-.14.07-.11,0,0,.08-.13.08-.14h0l.09-.14.08-.14,0,0,.06-.11.09-.14,0-.06.05-.09.08-.14.05-.09,0,0,.08-.15.07-.11v0l.09-.15.08-.15.08-.14.09-.15v0l.07-.12.09-.15,0-.06,0-.09.08-.15,0-.09,0-.06.08-.15h0l.07-.15.09-.15.08-.15h0l.09-.16.08-.16,0,0,.07-.12.08-.16.08-.16.09-.16,0-.09,0-.07.09-.16.06-.12,0,0v56.95h-8.63l.19-7.17-3.22-4.09Zm0-68.27V269.48a27.33,27.33,0,0,1,3.22,3.06,35.34,35.34,0,0,1,6.11,10.07,33.12,33.12,0,0,1,2.33,12.49v79a38.57,38.57,0,0,1-1.5,11.93,23.11,23.11,0,0,1-3.11,6.71,11.69,11.69,0,0,1-4.28,3.73,13.59,13.59,0,0,1,4.28,4.84,38.9,38.9,0,0,1,4.61,19.39V433.3l-.74.13h-.05c-.6.12-1.18.26-1.76.43h0l-.19.05-.08,0-.46.14h0l-.46.16h0l-.21.08h0l-.24.09h0l-.22.09h0l-.19.08,0,0-.23.09h0l-.2.09-.07,0-.17.08-.06,0-.18.08-.07,0-.15.07-.09,0-.19.1h0l-.2.1-.07,0-.17.09-.05,0-.19.1,0,0-.19.1,0,0-.17.09-.08.05-.15.08-.07,0-.18.11h0l-.18.11-.07,0-.17.1,0,0-.2.12h0l-.19.12-.07.05-.15.09,0,0-.15.1-.07,0-.07,0-.13.09-.06,0-.18.13h0l-.16.11h0l-.16.12,0,0-.06.05-.05,0-.17.13-.16.12-.06,0-.16.12h0l-.15.11-.06.05,0,0-.17.12h0l-.16.13,0,0,0,0-.17.14-.12.1Zm41-7.49v79.19a8.08,8.08,0,0,1-2,5.6,6.4,6.4,0,0,1-5,2.23H373.18V447.71h0v-.47h0v-.12l0,0V447l0-.06v-.18l.37-.16.06,0,.37-.16,0,0,.37-.17.1-.05.35-.17,0,0h0l0,0,.38-.19.09,0,.37-.2.14-.07.4-.22,0,0,.44-.25h0l.48-.28,0,0,.47-.28.09-.05.43-.26.18-.11.36-.22.07,0h0l0,0,.41-.25.21-.14.33-.2.07,0,.17-.11.44-.28.19-.12.39-.26.08-.05,0,0,0,0,.42-.28.2-.13,0,0,.36-.24.07-.05.19-.13.46-.31h0l.07,0,.12-.09.37-.25.18-.12.37-.26.07-.05.29-.21h0l.38-.27h0l.38-.27.39-.28.31-.22.15-.11.68-.49.07-.05.38-.27.4-.3.41-.3h0l.42-.3.83-.62.42-.31.4-.3,0,0,.42-.32.43-.32h0l2.19-1.67.45-.34Zm-41-161.88V438.85l0,0-.06,0,0,0h0l-.2.16h0l-.17.15-.18.15,0,0,0,0-.18.15,0,0-.18.16,0,0-.18.16,0,0-.18.17,0,0-.18.17,0,0-.19.18h0l-.19.18h0l-.19.19-.12.12-.08.07h0l-.2.19h0l-.19.19-.55.57,0,0-.06.06-.21.23,0,0-.08.09-.15.17h0l-.09.1,0,.06-.15.17,0,0,0,0-.24.27h0l-.77.91-.1.12,0,0-.15.18h0l-.1.12,0,.06-.15.18h0l-.13.17,0,0-.23.29,0,.05-.13.16-.14.19h0l-.13.18h0l-.14.18-.05.08-.09.11-.13.19,0,0,0,.06-.19.25,0,0h0l0,0-.17.23-.05.07,0,0,0,0-.19.26h0l0,.07-.13.19,0,0-.12.16-.13.2-.09.14,0,.05-.13.2,0,0,0,0-.19.3,0,0h0l-.13.19,0,.06-.09.14-.12.2L346,450l-.12.2-.06.09-.07.11-.12.2-.12.18v0l-.12.19v0l-.11.17v0l-.21.33,0,0-.09.15,0,.05-.12.2-.07.12-.05.08-.12.2,0,.09-.07.11-.12.21-.09.15-.07.12-.17.31v0l-.1.18,0,0V425.19q0-9.69-3.66-13.05a12.43,12.43,0,0,0-8.67-3.35V384.56a12.83,12.83,0,0,0,8.67-3.17q3.66-3.17,3.66-11.74v-67.1q0-7.46-3.66-10.25a13.9,13.9,0,0,0-8.67-2.8V263.41h6.78a27.13,27.13,0,0,1,11.33,2.42,28.18,28.18,0,0,1,5.89,3.65Zm0,208.48v29.16l-11.67-14.79v-7.54h.41a17.78,17.78,0,0,0,2.42-.75h0A26.44,26.44,0,0,0,355.5,478Zm-24-214.55V289.5H319.18v95.06H331.5v24.23H319.18V467l-5.27-4.29-18.06-3.37V263.41ZM182,509.72V494.87l12.84,19.92a25.86,25.86,0,0,1-4.67,2.91l-8.17-8Zm0-67c.23.91.43,1.76.61,2.58a56,56,0,0,1,1.67,9.69v23.28l17.91,28.55a33.77,33.77,0,0,0,5.41-19V455.76A58.65,58.65,0,0,0,206,442.34c-1.11-4.72-2.28-9.07-3.61-13q-2.34-6.71-5-13.79L182,383v59.66Zm0-152.59V262a22.24,22.24,0,0,1,8.5,2.69,28.21,28.21,0,0,1,8.83,7.45A42,42,0,0,1,205.28,283a34.84,34.84,0,0,1,2.33,12.49v9.69c0,4.23-.66,7.39-1.94,9.51a15.29,15.29,0,0,1-4.28,4.66c-1.11.49-3.44,1.67-7.11,3.54s-6.83,3.54-9.66,5V298.82a14.77,14.77,0,0,0-2.61-8.73Zm107.4-26.68V454.49l-22.57,4.3-.76.28V263.41ZM220.16,507.16a36.15,36.15,0,0,1-3.4-6.48,33.19,33.19,0,0,1-2.33-12.49V270.49a6.65,6.65,0,0,1,2.17-5,6.84,6.84,0,0,1,4.83-2h16.33V480.69A122.3,122.3,0,0,0,220.16,507.16ZM182,262v28.06a13.14,13.14,0,0,0-1.06-1.33,11.6,11.6,0,0,0-7.6-4V261.92h6.38c.77,0,1.53,0,2.28.11Zm0,121v59.66q-.88-3.63-2.22-8.29a85.48,85.48,0,0,0-5.5-13.8l-.94-2v-54L182,383Zm0,111.85v14.85l-8.66-8.46v-3.82a11.26,11.26,0,0,0,7.44-3.85c.08-.08.15-.17.23-.26l1,1.54Zm-8.66,25.38v-4l4.18,4Zm0-258.33v22.81a12.68,12.68,0,0,0-1.39-.07,11.3,11.3,0,0,0-8.67,4.1,14.56,14.56,0,0,0-3.66,10.06v24.23a56.84,56.84,0,0,0,1.66,9.7q1,4.47,3,10.81a93.14,93.14,0,0,0,5.61,13.79l3.45,7.31v54l-16.44-34.41V263.37a23.72,23.72,0,0,1,8.27-1.45Zm0,235.52v3.82l-4.17-4.08a11.5,11.5,0,0,0,2.78.33c.47,0,.94,0,1.39-.07Zm0,18.82-16.44-15.69v18.28a28.82,28.82,0,0,0,7.27,1.4h9.17v-4Zm-16.44-31.07V455.9l2.72,4.22V484a14.43,14.43,0,0,0,.67,4.47Zm0-221.82V384.22L146.3,362a137.83,137.83,0,0,1-5-13.86,118.36,118.36,0,0,1-3.5-13,65.09,65.09,0,0,1-1.5-13.49V295.53a34.55,34.55,0,0,1,2.33-12.67,39.78,39.78,0,0,1,6.11-10.69,29.37,29.37,0,0,1,9.17-7.45,22.25,22.25,0,0,1,3-1.35Zm0,192.53v29.29L136.3,465.05v-.93a5.63,5.63,0,0,0,1.48-.76c4.93-3.52,3.4-8.13,1.13-11.66h.24a11.64,11.64,0,0,1,1.84.21l.54.1.31.11c.43.12.7.2.88.27l.41.18.8.34.23.22a25.78,25.78,0,0,0,3.21,2.71c.28.18.65.43,1.14.7a3.7,3.7,0,0,0,.43.25,6.89,6.89,0,0,0,3.21.84c2.55,0,3.69-1,4.4-2.28l.36.55Zm0,44.67L136.3,480.9v7.29a32.31,32.31,0,0,0,8.11,22.18,28.94,28.94,0,0,0,12.5,8.48Z"/><path class="cls-7" d="M109.78,446.16l-1.26,1.27L217.81,551.74Z"/><path class="cls-7" d="M140.8,418.12l-1.66,1.15,91.63,142.25Z"/><path class="cls-2" d="M134.29,411.56a4,4,0,0,1-1.07,1.44l-.94,2.2c-1,2.48-1.84,4.24-1.74,7.52a11.64,11.64,0,0,0,.63,3.24c1.12,4,3.32,6.29,4,7.53.32.34.35.5.62.81l.18.2c.55.66.08.36.58.58a6.65,6.65,0,0,0,1.06,1.33l2.39,2.38c.85.86.86.59,1.1,1.17l.77.58c.83.51,1.83,1.18,2.69,1.76l1.36.91,1.32.89a15.22,15.22,0,0,1,3.49,2.27,11,11,0,0,1,1.41,1.48c.47.6.66,1.24,1.07,1.84l.11,1.14c-.34.55-.3,1.39-1.32,1.4a5,5,0,0,1-2.33-1A39.33,39.33,0,0,1,146,448a11.92,11.92,0,0,1-1.93-.74,14,14,0,0,0-2.5-.69c-1.9-.31-3.2-.46-4.57.11a5.38,5.38,0,0,0-2.62,2.07c-.92,1.12-.87,2.38-.6,4.09,1,1.24,3.63,4.41,1.54,5.9-1.29.93-4.14-3.43-4.87-4.36l-3.09-4.2L118,437.77a5.24,5.24,0,0,1-1-.94,11.41,11.41,0,0,0-2.16-1.8c-1.76-1.28-4.47-2.47-6.27-1.72-.4.16.1.09-.61.18a5.53,5.53,0,0,0-1,.76c0,.58.09,1-.19,1.41-.63-.09,0-.19-.52-.24-.12,0-.86.52-2.2-.77l-.09-1,.26-.89.25-.93c.09-1,.42-2.2.6-3.26.63-3.61.24-3.76.15-7.24,0-1.17.15-2.7.06-3.73a3,3,0,0,1-.17-1.73c.19-.66.33-.74,1-.85a1.41,1.41,0,0,0,.47-.32,13.08,13.08,0,0,0-1.14-.92,2.94,2.94,0,0,1-.89-1.39c-.32-.43,0-.19-.4-.57-1.1-.54-1.65-2-1.94-3.32-.46-2,0-2.67.69-3.6.55-.64,1.14-.37,2.24-.45a6.41,6.41,0,0,1,3.25,2.23,5.34,5.34,0,0,1,1.44,3.83c-.07.07,0,.09,0,.11s.06.1.08.14c.12.5.44.49.56.91.34-.16,0,0,.24-.16s.35-.86,1.17-.47a20.94,20.94,0,0,0,2.24-.48c4.74-.76,7.52.24,12.74-.83,1-.19,3.84-.68,4.37-1.16l1.05-.21a2.12,2.12,0,0,1,3.16,1.62l0,1.26A1.94,1.94,0,0,1,134.29,411.56Z"/><path class="cls-2" d="M259,719.9c-1.68.37-18.07,3.51-20.23,3.6a6.54,6.54,0,0,0-.82-2c3.57-.16,13.51-5.44,15.33-8.59,4.68-8.13,10-7.31,11-13.41-2.06,5.15-11,6.65-12.17,9-2.46,5.13-7.4,7.79-12.16,9.86-3.58,1.56-4.32-.41-6.79-2.41-.91-.74-1.51-.91-1.84-2.1l4.1-.17c6.58-.24,10.39-15.66,10.35-15.75-3,7.14-6.31,11.21-8.71,12.65-2.59,1.55-8.09,1.35-11.18-.11-.86-.4-.75-.44-1.48-.8a14,14,0,0,1-6.05-4.81c-6.57-9-20.83-24.27-28.67-31.58,1.56,6.36,21.64,26.29,26.93,33.69,4.06,5.66,10.6,5.56,14.59,10.93,1.36,1.82,0,1.57,1.27,2.8.65.64,1.47.4,2.33,1.07a6.78,6.78,0,0,1,1.48,2.55c1.26,2.56,17.19.23,19.87-.51L259,719.9Zm50.11,0c1.68.37,18.07,3.51,20.23,3.6a6.54,6.54,0,0,1,.82-2c-3.58-.16-13.52-5.44-15.33-8.59-4.69-8.13-11-7.31-12.09-13.41,2.06,5.15,12.09,6.65,13.23,9,2.45,5.13,7.4,7.79,12.15,9.86,3.59,1.56,4.32-.41,6.79-2.41.91-.74,1.52-.91,1.85-2.1l-4.11-.17c-6.58-.24-10.39-15.66-10.34-15.75,3,7.14,6.31,11.21,8.7,12.65,2.6,1.55,8.09,1.35,11.18-.11.86-.4.76-.44,1.49-.8a14.06,14.06,0,0,0,6-4.81c6.57-9,20.83-24.27,28.68-31.58-1.57,6.36-21.64,26.29-26.94,33.69-4.05,5.66-10.6,5.56-14.59,10.93-1.35,1.82,0,1.57-1.26,2.8-.66.64-1.47.4-2.33,1.07a6.78,6.78,0,0,0-1.48,2.55c-1.27,2.56-17.2.23-19.88-.51l-2.81-3.91ZM447.6,612.05c-41.14-33.07-64.94-44.62-73.32-44,5.67,4,6.57,10.48,6.73,14.35,10.79-1.45,22.71,3.85,34.83,10.23l-11.61-.76c15,2.74,29.32,10.45,43.37,20.2ZM284.06,560c10.09-.14,19.95.08,28.92,2,11.53,2.46,43.66-10.52,44.83-16.93,1.41-7.76-7.38-30.73-11.31-37.24-12-19.89-32.38-29.09-51.15-32a89,89,0,0,0-11.29-1,89.11,89.11,0,0,0-11.29,1c-18.77,2.88-39.13,12.08-51.14,32-3.94,6.51-12.72,29.48-11.31,37.24,1.16,6.41,33.29,19.39,44.82,16.93,9-1.91,18.84-2.13,28.92-2Zm0-105.88c23.93,1,47.12,11.75,61.58,29.18,12.69,15.29,15.28,35.71,17.95,59.27,1.06,9.34-.47,13.23-.43,17.23,0,4.48.68,4.93-1,8.29-.05,1.21-.27,2.79-.28,3.33-.18,7.52-3.88,4.4-11.92,5.29-2.6.29-4-.18-5.29,1.82.73,3.65,3.54,2.69,2.33,7.6l-4.32,1.27c-11.66,3.47-22.49,1.49-33.61-1.74-3.54,2.43-8.28,10.09-12.31,11.1.46-4.1,8-9.14,10.12-12.45a95.4,95.4,0,0,0-22.79-4.6,95.4,95.4,0,0,0-22.79,4.6c2.16,3.31,9.67,8.35,10.12,12.45-4-1-8.76-8.67-12.3-11.1-11.12,3.23-22,5.21-33.62,1.74l-4.31-1.27c-1.21-4.91,1.6-4,2.33-7.6-1.31-2-2.69-1.53-5.3-1.82-8-.89-11.74,2.23-11.91-5.29,0-.54-.24-2.12-.28-3.33-1.71-3.36-1.07-3.81-1-8.29,0-4-1.5-7.89-.44-17.23,2.68-23.56,5.27-44,17.95-59.27,14.47-17.43,37.65-28.18,61.58-29.18Zm11.2,207.44c5.16-.9,11.74-3,16-6.09,6.1-4.46,9.34-10.59,13.13-14.62l13.61-11c1.82-2.53,4.34-4.36,6.16-6.85,3.54-4.83,6.1-8.18,7.91-14.26.37-1.24.6-2.22,1-3.51,1.72-5,3.68-12.72,5.69-16.95l-4.46-.2c-.51,14.27-19.72,33-30,42.1-9.77,8.61-26.2,10.63-34.95-.11a6.58,6.58,0,0,0-10.58,0c-8.74,10.74-25.18,8.72-34.95.11-10.3-9.09-29.51-27.83-30-42.1l-4.45.2c2,4.23,4,11.9,5.69,16.95.43,1.29.67,2.27,1,3.51,1.81,6.08,4.36,9.43,7.91,14.26,1.82,2.49,4.34,4.32,6.15,6.85l7.37,9.71a131.73,131.73,0,0,0,13.34,12c.41.31.75.55,1,.73l-.3,3.56c0,.41,0,.19-.05,0-2-.58-16.37-12.3-17.24-15.44-5.26.24-7.09,3.56-11.75,3.89-5,.34-9.62.15-12.59-2.12l-7.83-5.69a7.56,7.56,0,0,1-.89-.66l-3.94-4.32c-1.23-1.62-2.28-2.53-2.57-5.12-1.75,1.43-1.59,2.16-4.73,2.32-39.91,2-32.88-1.62-73.87,21.39-2.19,1.24-1.8,2-4.91,2.13h0c5.73-.26,26.25-5.48,33.35-7.58,7.73-2.29,12.75-4.57,21-6.31,6.07-1.27,28.36.25,32,5.82-9.42-3.8-25.34-6.82-41.46-.78-4.54,1.7-7.15,2.25-12.36,4,1.65,1.07,4.17,1.27,6,1.4,2.07.15,4.25.3,6.3.6,2.51.37,10.33,2.35,12,2.31-1.08-2.06-1.21-2.56-1.33-5.76,2.16,1.15,2.94,1.93,5.83,3.34,2.54,1.24,13.59,5,17.66,8.5-1.52-.74-3.7-1.3-5.49-2l-15.65-6.61c1,3.33,4.19,9.25,6.83,11.23,11.28,8.45,9.74,4.1,22.55,6.48,9.89,1.85,13.92-2.6,20.26-2.89v-.42c-6.59.3-22.4-3.11-27.4-6.66,7.87,3.1,20.67,5.34,29,6.5,1.67.24,4.6,0,6.49.45,5.83,2.21,10,12.47,13.82,18.28h0l-4.46-5.86c-2.77-3.67-5.6-8-10.65-9.63-6.61-2.14-7.48-.49-15.14,1.88.36,1,1.17,1.08,2.66,1.54-3.45.16-4.34.62-7.83.4l-7.44-.95c2.8,2.51,22.15,6.85,25.35,11.75-7.46-3.68-18.16-5.62-26.63-8.9L184,668.06a31.2,31.2,0,0,1-10.85-7.23,33.82,33.82,0,0,1-2.71-3.65c-1.62-2.13-.38-1.91-3.27-2.54-4.67-1-9.77-2.32-14.7-2.55-4.17-.21-6.42-1.24-10.15-1.56-8-.7-10.83-.14-18.32,1.76-.93.24-1.59.51-2.39.74-1.6.45-3,.77-4.6,1.25-3.22.94-7.73-.18-10.52,1.13A12.72,12.72,0,0,1,101,656c-3.32-.37-7.15-6.94-7.94-10.31-1.26-5.38-.83-5.73-.09-11.12a14.88,14.88,0,0,1,.53-2.65c.63-2.46,1.1-4.79,3-6.56L124,603.89c2.47-1.64,4.45-3.45,7.08-5.09l18.06-12.57c1.35-1,2.27-1.67,3.62-2.66,2.53-1.86,4.87-3,7.33-4.84a22,22,0,0,0,1.68-1.46l5.33-3.71c8-5.72,14.37-10.21,24.6-12.21,3.57-.7,7.14-1.53,10.09.1,1.69,1.19-.91,6.64-1.31,9-14.24.93-10.79,36.38-4.46,52.67,7.2,18.52,20.87,17.67,34.75,13.38-1.81-3.49-4.75-6.57-7.31-9.35-3.68-4-4.45-6.14-6.85-9.9-2.61-4.1-4.62-12.22-5.9-17.13-.88-3.37-1.79-6.05-2.69-8.89-.56-1.77-.58-2.94-1.72-4-1.41-1.3-1.72-.81-2-3.64-.34-3.35-.48-7.64-1.44-9.1,4.78,5.64,3.41,8.19,4.91,10,1,1.24,3.42.84,11.47.48.74,4.34,5.43,16,12.34,25.95,10.58,15.24,27.06,24.34,35.15,22.4,10-2.41,10.52-7.34,17.31-8.47,6.8,1.13,7.28,6.06,17.32,8.47,8.09,1.94,24.57-7.16,35.14-22.4,6.92-9.95,11.6-21.61,12.35-25.95,8,.36,10.46.76,11.47-.48,1.5-1.83.13-4.38,4.9-10-1,1.46-1.1,5.75-1.43,9.1-.29,2.83-.59,2.34-2,3.64-1.14,1-1.15,2.22-1.71,4-.91,2.84-1.81,5.52-2.69,8.89-1.28,4.91-3.29,13-5.9,17.13-2.4,3.76-3.17,5.92-6.85,9.9-2.57,2.78-5.5,5.86-7.32,9.35,13.88,4.29,27.56,5.14,34.76-13.38,6.33-16.29,9.77-51.74-4.47-52.67-.39-2.32-3-7.77-1.3-9,2.95-1.63,6.52-.8,10.08-.1,10.24,2,16.57,6.49,24.61,12.21l5.32,3.71c.63.55,1,.94,1.69,1.46,2.45,1.81,4.8,3,7.33,4.84,1.35,1,2.26,1.65,3.62,2.66L437,598.8c2.62,1.64,4.61,3.45,7.08,5.09l27.61,21.51c1.85,1.77,2.32,4.1,2.95,6.56a15.74,15.74,0,0,1,.54,2.65c.74,5.39,1.17,5.74-.09,11.12-.8,3.37-4.62,9.94-7.95,10.31a12.75,12.75,0,0,1-5.55-.63c-2.78-1.31-7.29-.19-10.51-1.13-1.64-.48-3-.8-4.61-1.25-.8-.23-1.46-.5-2.39-.74-7.48-1.9-10.33-2.46-18.31-1.76-3.73.32-6,1.35-10.16,1.56-4.93.23-10,1.53-14.7,2.55-2.88.63-1.64.41-3.26,2.54a35.29,35.29,0,0,1-2.72,3.65,31.17,31.17,0,0,1-10.84,7.23l-12.48,4.38c-8.47,3.28-19.17,5.22-26.63,8.9,3.19-4.9,22.55-9.24,25.35-11.75l-7.44.95c-3.49.22-4.39-.24-7.83-.4,1.49-.46,2.29-.51,2.66-1.54-7.67-2.37-8.54-4-15.14-1.88-5.06,1.63-7.88,6-10.65,9.63l-4.47,5.86h0c3.8-5.81,8-16.07,13.82-18.28,1.89-.48,4.83-.21,6.5-.45,8.28-1.16,21.08-3.4,29-6.5-5,3.55-20.81,7-27.4,6.66v.42c6.33.29,10.37,4.74,20.26,2.89,12.81-2.38,11.27,2,22.55-6.48,2.64-2,5.84-7.9,6.83-11.23l-15.65,6.61c-1.8.71-4,1.27-5.5,2,4.08-3.49,15.12-7.26,17.67-8.5,2.89-1.41,3.67-2.19,5.82-3.34-.11,3.2-.25,3.7-1.32,5.76,1.7,0,9.52-1.94,12-2.31,2-.3,4.23-.45,6.3-.6,1.82-.13,4.35-.33,6-1.4-5.21-1.79-7.83-2.34-12.36-4-16.13-6-32.05-3-41.47.78,3.63-5.57,25.93-7.09,32-5.82,8.29,1.74,13.3,4,21,6.31,7.1,2.1,27.63,7.32,33.36,7.58h0c-3.11-.14-2.72-.89-4.92-2.13-41-23-33.95-19.43-73.86-21.39-3.14-.16-3-.89-4.73-2.32-.29,2.59-1.34,3.5-2.57,5.12l-3.95,4.32a6.21,6.21,0,0,1-.89.66l-7.82,5.69c-3,2.27-7.58,2.46-12.59,2.12-4.67-.33-7.35-5.57-12.61-5.8-3.71,2.59-11.74,12.69-21.81,18.6-4.8,2.82-12.73,5.22-15.91,4.4Zm-120.85-83,.87,14.69c.59-10.84,4.2-15.9,8.82-19-4.12,20.91-.56,26.06,2.37,32.5-1.84-18,1.34-32.07,9.26-42.38-18,2.45-24.78,10.48-39.83,21.92Z"/><path class="cls-8" d="M233,176.77a34,34,0,0,0,7.09-2.9,36.1,36.1,0,0,0,6.65-4.75,57.38,57.38,0,0,0,6-6.19,58.07,58.07,0,0,0,5.05-7.08,67,67,0,0,0,7.13-15.92,58.78,58.78,0,0,0,1.85-8,44.85,44.85,0,0,0,.57-7.29,37.33,37.33,0,0,0-.78-7.4,27.19,27.19,0,0,0-2.11-6.21,15.74,15.74,0,0,0-3.23-4.53,13.82,13.82,0,0,0-4.5-2.85h0a16.37,16.37,0,0,0-6.66-.79,26.57,26.57,0,0,0-8.06,2.09,62.62,62.62,0,0,0-9.27,4.91,97.85,97.85,0,0,0-9.92,7.24q-5.16,4.26-10.41,9.38t-10.66,11.2q-5.48,6.13-10.68,12.61t-10.39,13.56q-5.15,7-10,14.23t-9.34,14.63q-4.58,7.52-8.49,14.59t-7.35,14.1q-3.39,6.91-6,13.32T134.88,247a86.62,86.62,0,0,0-2.78,10.68,43.75,43.75,0,0,0-.85,8.55,24.25,24.25,0,0,0,.43,4.41,16.65,16.65,0,0,0,1.15,3.62,17.92,17.92,0,0,0,1.78,3.13,15.2,15.2,0,0,0,2.2,2.5,15.6,15.6,0,0,0,2.69,2,16.8,16.8,0,0,0,3.14,1.41,21.09,21.09,0,0,0,3.57.86,23,23,0,0,0,3.83.25,43.18,43.18,0,0,0,7.72-.86,65.07,65.07,0,0,0,8.71-2.4q4.65-1.62,9.41-3.7t9.67-4.64q5-2.62,9.83-5.44c3.21-1.89,6.48-3.91,9.83-6.09s6.44-4.26,9.57-6.45,6.18-4.39,9-6.53,5.7-4.36,8.28-6.44,4.95-4.08,7.39-6.21,4.45-3.94,6.29-5.65,3.51-3.32,4.89-4.73l2.29-2.34.21.3.84-1.28,3.07-4.77,0,0,1.87-2.83,2.48-3.73c.73-1.09,1.69-2.56,2.89-4.39,1.59-2.43,2.64-4,3.13-4.79.94-1.44,2-3.16,3.33-5.16l3.48-5.48q1.82-2.88,3.44-5.52c.95-1.53,2-3.32,3.25-5.35s2.18-3.66,3-5.1c1-1.69,1.88-3.3,2.72-4.81s1.63-3,2.25-4.25h0c.64-1.26,1.18-2.41,1.63-3.45l.05-.13a8.85,8.85,0,0,0,.46-1.11,3.17,3.17,0,0,0,.16-.67l.15-1.26.64-4.65,3,.8a7.4,7.4,0,0,1,2,.87,9.42,9.42,0,0,1,1.74,1.38,9.89,9.89,0,0,1,1.38,1.76,8.19,8.19,0,0,1,.94,2.16h0a26.65,26.65,0,0,1,1,5.68,35.7,35.7,0,0,1-.19,6.22,30,30,0,0,1-1.8,7.18,53.37,53.37,0,0,1-3.71,7.68q-3.27,5.81-7.1,12.08h0q-3.74,6.1-7.86,12.35-4,6-7.87,12.25-3.13,5-6.08,9.91c1-.89,2.13-1.89,3.34-3l9-8.47c.5-.62,1-1.23,1.58-1.82a35.67,35.67,0,0,1,4.33-3.92q2.24-1.73,4.35-3.2c1.26-.87,2.47-1.67,3.65-2.39a44.43,44.43,0,0,1,3.5-3.4,33.1,33.1,0,0,1,3.92-2.94,35.6,35.6,0,0,1,3.81-2.14,25.36,25.36,0,0,1,3.72-1.44,26.11,26.11,0,0,1,3.48-.78,20.08,20.08,0,0,1,3.34-.22,19.31,19.31,0,0,1,3.08.29,15,15,0,0,1,2.82.82l.1.05A8.85,8.85,0,0,1,324.2,204a6.61,6.61,0,0,1,1.73,3.09,31.27,31.27,0,0,1,.68,3.58v.12q.45,5.09-2.84,11.16l1.3-1.19c.46-.43,1-1,1.74-1.62l.63-1q1.86-2.93,3.15-4.92l.06-.09a18,18,0,0,0,1.42-2.34,15.59,15.59,0,0,0,.91-2.14,10.8,10.8,0,0,0,.43-2.14,16.9,16.9,0,0,0,.05-2.78l-.18-3.29,2.93-.17a15.21,15.21,0,0,1,4.31.31,9.65,9.65,0,0,1,3.71,1.7,11.42,11.42,0,0,1,4.08,6,15.07,15.07,0,0,1,.59,3.5,16.64,16.64,0,0,1-.18,3.58,18,18,0,0,1-.88,3.41,15.42,15.42,0,0,1-1.52,3l-.1.13q-.32.44-.69,1c-.24.35-.44.66-.62.94s-.49.76-.73,1.11-.43.63-.7,1c-.4.71-.86,1.52-1.39,2.42s-1.07,1.81-1.52,2.55l-2.36,3.83c.53-.45,1.08-.92,1.64-1.42l2.91-2.58a45.09,45.09,0,0,1,3.81-6.86c.6-.9,1.41-2.12,2.44-3.69l2.49-3.83a6.44,6.44,0,0,1,.36-.64c.19-.33.41-.67.64-1s.47-.71.81-1.2.69-1,.88-1.24l.76-1.05c.22-.32.43-.64.63-.95l.08-.13v-.21l6.89-10.56,1-.3.75-.2.74-.15h0a5.66,5.66,0,0,1,1.2-.06,7.84,7.84,0,0,1,1,.13,15,15,0,0,1,4.22,1,7,7,0,0,1,3.31,2.85,8.83,8.83,0,0,1,1.16,3.51,10.71,10.71,0,0,1-.24,3.71,18.7,18.7,0,0,1-1.07,3.22h0a23.5,23.5,0,0,1-1.65,3.09l-1.6,2.5c-.48.73-1,1.43-1.42,2.1l-7.15,10.58q-.53.75-1.32,2c-.43.7-.9,1.46-1.38,2.27l.32-.27q2-1.73,4.81-4.55l11.65-11.91a4.68,4.68,0,0,1,1.75-1.23c.58-.72,1.17-1.43,1.78-2.13,1-1.13,1.87-2.12,2.66-3s1.53-1.59,2.13-2.16h0A54.12,54.12,0,0,1,391,205.5a40.33,40.33,0,0,1,5.88-3.61,14.8,14.8,0,0,1,6.1-1.67,9.29,9.29,0,0,1,5.61,1.65h0a12.51,12.51,0,0,1,2.8,2.54,10.64,10.64,0,0,1,1,1.46l1.17-1.87q1.47-2.33,3-4.78l3.24-5.08,3.38-5.26c1.74-2.72-1.09,1.7,3.44-5.4q2-3.07,3.32-5.31,1.69-2.73,3-5.06c.89-1.52,1.8-3.11,2.72-4.74.79-1.43,1.58-2.87,2.35-4.33s1.33-2.58,1.82-3.63.87-1.92,1.15-2.69l0-.09v-.11a8.44,8.44,0,0,1,0-1.31,4.84,4.84,0,0,1,.38-1.74l.19-.46.35-.4a3.28,3.28,0,0,1,2-1.15h0a3,3,0,0,1,2.42.7l1.51,1.23a3.3,3.3,0,0,1,1.06,1,3.5,3.5,0,0,1,.26.43,16.65,16.65,0,0,1,2.49,5.78,24.12,24.12,0,0,1,.46,7.11q-.56,7.49-6,16.91-2.73,4.88-5.39,9.29c-1.74,2.91-3.63,5.95-5.64,9.1q-5.67,8.86-11.8,17.94l-.05.08c-.42.59-.86,1.25-1.31,2s-.92,1.51-1.35,2.28-1.07,1.88-1.79,3.08c-.4.67-.83,1.39-1.29,2.14l3-2.56,2.2-1.91,1.49-1.33h0c.85-.78,1.52-1.43,2-1.95h0c.33-.35.66-.7,1-1s.72-.79,1.1-1.24,1-1.1,1.63-1.77,1.27-1.32,2.26-2.31l.22-.22.25-.16a4.56,4.56,0,0,1,2.5-.82,4,4,0,0,1,2.65.93q3.32,2.63.62,6.77l-.18.27-.21.21c-1.74,1.78-3.16,3.24-4.27,4.4s-2.59,2.75-4.21,4.51c-1.44,1.56-2.93,3.09-4.49,4.61s-3.11,3-4.77,4.41l0,0a38.06,38.06,0,0,1-4.15,3.08,41,41,0,0,1-4.49,2.49,14.5,14.5,0,0,1-5.76,1.36,19.8,19.8,0,0,1-6.28-.89h0a6.19,6.19,0,0,1-4.43-4.92q-.82.81-1.65,1.56c-1,.86-2,1.66-3,2.39a20.88,20.88,0,0,1-3.27,2,18,18,0,0,1-3.44,1.26h0a9.48,9.48,0,0,1-4,.18,11.12,11.12,0,0,1-3.86-1.47,12,12,0,0,1-2.05-1.46,18.61,18.61,0,0,1-2-2,14,14,0,0,1-1.7-2.49,10.3,10.3,0,0,1-1-2.69l-1.05,1c-.81.77-1.71,1.55-2.67,2.36a35.25,35.25,0,0,1-3,2.23c-1,.69-2.08,1.32-3.14,1.89a22.87,22.87,0,0,1-3.44,1.48,21.37,21.37,0,0,1-3.61.87,16.09,16.09,0,0,1-3.86.14,18.76,18.76,0,0,1-3.9-.75h0a6.12,6.12,0,0,1-4.25-4.4c-.76.6-1.54,1.16-2.36,1.69a29.8,29.8,0,0,1-2.93,1.71,25.59,25.59,0,0,1-3.1,1.33,22.89,22.89,0,0,1-3.21.87,12.13,12.13,0,0,1-3.51.23,10.78,10.78,0,0,1-3.37-.85h0a9,9,0,0,1-1.26-.6,12.56,12.56,0,0,1-1.35-.89,6.85,6.85,0,0,1-2.53-3.71,14.52,14.52,0,0,1-.73-3.63,9.83,9.83,0,0,1,.27-3l-.17.07-1.63.64q-1.08.42-1.8.66c-.6.2-1.21.39-1.82.56A15.81,15.81,0,0,1,309,241l-.61.1a62.74,62.74,0,0,1-5.54,4.34,50.43,50.43,0,0,1-6.43,3.77,25.32,25.32,0,0,1-6.3,2.2,13.51,13.51,0,0,1-5.78-.05h0l-1.69-.4-.21-.09a16.52,16.52,0,0,1-3.66-2.16,11.4,11.4,0,0,1-2.72-3,14.11,14.11,0,0,1-1.49-3.27c-.11-.36-.21-.72-.29-1.09-1,.9-2,1.73-3,2.48a49.6,49.6,0,0,1-4.75,3.42,35.48,35.48,0,0,1-4.43,2.4,22.17,22.17,0,0,1-4.24,1.41,15.79,15.79,0,0,1-4.07.37,13.86,13.86,0,0,1-3.93-.71l-.12,0a6.21,6.21,0,0,1-2.76-2.15,8.78,8.78,0,0,1-1.47-3.32,10.57,10.57,0,0,1-.26-2.4c-.76.73-1.55,1.46-2.35,2.2q-3.92,3.62-8.26,7.28t-9,7.31q-9.43,7.32-20,14.16-5.46,3.53-10.6,6.47t-10.69,5.72h0q-5.33,2.66-10.66,4.81t-10.48,3.77h0a80.56,80.56,0,0,1-10.06,2.45,58.74,58.74,0,0,1-9.36.91,37.55,37.55,0,0,1-6.18-.4,31.41,31.41,0,0,1-5.79-1.42,28.39,28.39,0,0,1-5.28-2.44,27.08,27.08,0,0,1-4.59-3.46,26.55,26.55,0,0,1-3.8-4.48,30,30,0,0,1-2.89-5.39,32,32,0,0,1-1.85-6.23,39.76,39.76,0,0,1-.65-6.82,69.3,69.3,0,0,1,.69-10.18,92,92,0,0,1,2.28-10.9c1-3.75,2.14-7.45,3.36-11.11s2.61-7.4,4.11-11.15,3-7.4,4.64-10.95,3.29-7.17,5-10.59,3.29-6.54,4.94-9.75q2.29-4.45,4.51-8.62h0q1.92-3.54,4.49-7.63t5.94-8.92q3.41-4.89,7.13-9.82t8-10.27q4.22-5.21,8.9-10.51t9.61-10.45q5-5.22,10.2-10t10.51-8.88q5.3-4.14,10.72-7.6a115.87,115.87,0,0,1,10.77-6.11,58.65,58.65,0,0,1,10.77-4.13,43.15,43.15,0,0,1,10.42-1.48,29.65,29.65,0,0,1,8.18,1,26.86,26.86,0,0,1,7.37,3.22,36.9,36.9,0,0,1,6.17,4.86,38.26,38.26,0,0,1,5.09,6.18,49.87,49.87,0,0,1,4,7.12,56.9,56.9,0,0,1,2.94,7.92,64.62,64.62,0,0,1,1.82,8.28A58.76,58.76,0,0,1,286,135a65.28,65.28,0,0,1-1.15,13.17A60.93,60.93,0,0,1,281,160.55a79.76,79.76,0,0,1-5.75,11.08,71.68,71.68,0,0,1-7.26,9.7,70.9,70.9,0,0,1-8.52,8.12,65.71,65.71,0,0,1-9.55,6.39,51.43,51.43,0,0,1-20.2,6.46h-.19a6.32,6.32,0,0,1-3.46-.87h0a6.29,6.29,0,0,1-2.51-3,11,11,0,0,1-.86-3.41,15.4,15.4,0,0,1,.14-3.62,19.87,19.87,0,0,1,1-3.75,24.81,24.81,0,0,1,1.71-3.7,18.79,18.79,0,0,1,2.65-3.67,21.81,21.81,0,0,1,3.44-3l.68-.49Zm9.63,2.95a39.24,39.24,0,0,1-8.31,3.4,15.57,15.57,0,0,0-2.06,1.86,12.59,12.59,0,0,0-1.76,2.44,17.94,17.94,0,0,0-1.25,2.71,12.43,12.43,0,0,0-.62,2.37,7.88,7.88,0,0,0-.09,1.89,3.47,3.47,0,0,0,.29,1.18c0,.07.05.11.06.11h0a1,1,0,0,0,.46.11A46.13,46.13,0,0,0,247.38,190a59.84,59.84,0,0,0,8.73-5.84,64.4,64.4,0,0,0,7.78-7.42,66.77,66.77,0,0,0,6.62-8.84,70.82,70.82,0,0,0,5.27-10.13,53.27,53.27,0,0,0,3.34-10.94,58.12,58.12,0,0,0,1-11.71,50.44,50.44,0,0,0-.6-7.28,54.3,54.3,0,0,0-1.62-7.34,50.71,50.71,0,0,0-2.56-7,44.58,44.58,0,0,0-3.45-6.19,32.24,32.24,0,0,0-4.28-5.16,31.18,31.18,0,0,0-5.2-4.1,21.28,21.28,0,0,0-5.86-2.55,24.62,24.62,0,0,0-6.78-.82A38.17,38.17,0,0,0,240.66,96a53.29,53.29,0,0,0-9.77,3.75,108.86,108.86,0,0,0-10.25,5.8q-5.08,3.24-10.27,7.29t-10.16,8.58q-5,4.53-9.9,9.66t-9.46,10.28q-4.47,5.07-8.71,10.3t-7.91,10.09q-3.79,5-7,9.62t-5.78,8.69c-1.68,2.67-3.1,5.08-4.25,7.2h0q-2.06,3.84-4.46,8.54-2.24,4.32-4.9,9.67-2.57,5.15-4.89,10.33t-4.53,10.68q-2.15,5.37-4,10.78c-1.22,3.64-2.31,7.2-3.26,10.71a84,84,0,0,0-2.09,10,60.18,60.18,0,0,0-.62,9.08,30.88,30.88,0,0,0,.54,5.54,24.34,24.34,0,0,0,1.43,4.83,23.61,23.61,0,0,0,2.23,4.22,20.19,20.19,0,0,0,2.9,3.4,21.42,21.42,0,0,0,3.6,2.7,23,23,0,0,0,4.26,2,26.55,26.55,0,0,0,4.86,1.19,32.17,32.17,0,0,0,5.34.35,51.84,51.84,0,0,0,6-.44,28.28,28.28,0,0,1-4.16-.31,25.9,25.9,0,0,1-4.46-1.06,22.65,22.65,0,0,1-4.16-1.87,20.9,20.9,0,0,1-3.66-2.69,21.47,21.47,0,0,1-3.12-3.52,25,25,0,0,1-2.42-4.26A23.68,23.68,0,0,1,126,272a32.34,32.34,0,0,1-.57-5.73,52.2,52.2,0,0,1,1-10,94.93,94.93,0,0,1,3-11.57c1.33-4.13,2.91-8.41,4.73-12.81s3.9-9,6.22-13.73,4.78-9.45,7.51-14.39,5.6-9.88,8.62-14.84,6.19-9.9,9.51-14.86,6.64-9.71,10.11-14.46,7-9.33,10.58-13.79S194,137.1,197.59,133s7.33-8,11-11.51,7.23-6.79,10.77-9.71a102.66,102.66,0,0,1,10.51-7.68,68.28,68.28,0,0,1,10.08-5.31,31.82,31.82,0,0,1,9.7-2.5,21.26,21.26,0,0,1,8.89,1.13l.09,0a19.65,19.65,0,0,1,6.32,4.05,22.17,22.17,0,0,1,4.57,6.38,33.88,33.88,0,0,1,2.65,7.81,44.2,44.2,0,0,1,.94,8.84,51.66,51.66,0,0,1-.63,8.49,67.54,67.54,0,0,1-2.08,9,74.9,74.9,0,0,1-3.35,9,76.8,76.8,0,0,1-4.48,8.53,66.46,66.46,0,0,1-5.6,7.84,63.2,63.2,0,0,1-6.63,6.86,42.1,42.1,0,0,1-7.72,5.49Zm14.33,48.73.67.94-1.69,2.06c-.77.94-1.61,1.92-2.51,2.93a25.23,25.23,0,0,0-1.36,3.39h0a23.77,23.77,0,0,0-.9,3.84,5.77,5.77,0,0,0,0,1.87,2.5,2.5,0,0,0,.31.82.44.44,0,0,0,.15.12,8.68,8.68,0,0,0,2.41.44,10.51,10.51,0,0,0,2.78-.27,14.6,14.6,0,0,0,2.25-.68,3,3,0,0,1-.24-.38,4.43,4.43,0,0,1-.53-1.66l0-.16v-.25a10,10,0,0,1,.94-3.84,41,41,0,0,1,2.19-4.31l0-.05q3.6-6.09,7.43-12.2t8-12.37q4.05-6.15,7.73-12.17h0q3.57-5.84,7-11.87l0,0a45.07,45.07,0,0,0,3.25-6.7,22.48,22.48,0,0,0,1.4-5.47,27.58,27.58,0,0,0,.14-4.94,21.12,21.12,0,0,0-.35-2.74l-.18.38c-.48,1.12-1.07,2.36-1.76,3.73h0q-1.07,2.13-2.36,4.47c-.91,1.65-1.84,3.29-2.79,4.94q-1.63,2.85-3,5.2c-.89,1.48-2,3.29-3.29,5.4-1.17,1.89-2.33,3.75-3.5,5.6-1,1.62-2.18,3.44-3.5,5.5-1,1.55-2.11,3.28-3.34,5.19L269,210c-.81,1.24-1.78,2.72-2.91,4.42l-2.48,3.75L261.76,221h0l-4.86,7.49Zm33-6.22a4.78,4.78,0,0,1,0,2,6.31,6.31,0,0,1-1.51,2.87l-.05,0q-3.36,3.68-6.27,6.64c-.7.72-1.4,1.43-2.09,2.11q-.07.33-.12.63a9.14,9.14,0,0,0-.13,2,6.51,6.51,0,0,0,.29,1.7,7.72,7.72,0,0,0,.79,1.71,5.36,5.36,0,0,0,1.29,1.39,11,11,0,0,0,2.23,1.33l1.19.28h0a7.28,7.28,0,0,0,1.73.19,6.51,6.51,0,0,1-1.17-1.34,7.45,7.45,0,0,1-1.15-3.18,11.79,11.79,0,0,1,0-3,15.34,15.34,0,0,1,.68-3,15.94,15.94,0,0,1,1.2-2.77,13.29,13.29,0,0,1,1.67-2.39l2.8-3.21,1.84,4a5.3,5.3,0,0,1,.43,1.95c0,.41,0,.94,0,1.58a2.37,2.37,0,0,0,.06.52,3.3,3.3,0,0,0,.28.7h0a1.56,1.56,0,0,0,.38.41,4.15,4.15,0,0,0,1.08.62,3.94,3.94,0,0,0,1.61.18,16.55,16.55,0,0,0,2.93-.46,5.65,5.65,0,0,1-2.89-4h0a8.18,8.18,0,0,1-.11-2.43,10.91,10.91,0,0,1,.52-2.33,14.21,14.21,0,0,1,.78-1.92,12.3,12.3,0,0,1,1-1.7,23.84,23.84,0,0,1,1.86-2.28,26.43,26.43,0,0,1,2.19-2.17c.76-.67,1.55-1.32,2.37-1.94s1.65-1.19,2.44-1.68,1.59-.93,2.4-1.34a25.4,25.4,0,0,1,2.35-1,10.77,10.77,0,0,1,2.37-.63,5.87,5.87,0,0,1,2.43.16l.13.06a4,4,0,0,1,2.59,2.58,9.72,9.72,0,0,0,.54-3.68,23.29,23.29,0,0,0-.51-2.7s0,0,0,0a3,3,0,0,0-.85-.57,9.15,9.15,0,0,0-1.77-.51,13,13,0,0,0-2.22-.22,15.6,15.6,0,0,0-2.5.17,19.46,19.46,0,0,0-2.77.63,20.35,20.35,0,0,0-2.91,1.13,29.5,29.5,0,0,0-3.21,1.81,27.71,27.71,0,0,0-3.25,2.43,39.48,39.48,0,0,0-3.28,3.22l-.28.31-.38.23c-1.17.7-2.41,1.51-3.71,2.41-1,.72-2.13,1.52-3.27,2.39Zm23.95-2.72c-.33.14-.68.3-1,.48-.6.3-1.26.67-2,1.11s-1.37.89-2,1.37-1.31,1-2,1.64a24.16,24.16,0,0,0-1.76,1.73,17.21,17.21,0,0,0-1.37,1.69v0a4.52,4.52,0,0,0-.44.74,9,9,0,0,0-.44,1.08,4,4,0,0,0-.16.64h.28a8.37,8.37,0,0,0,1.77-.33l.09,0a3.22,3.22,0,0,0,.94-.5,15,15,0,0,0,1.93-1.63c.78-.76,1.54-1.56,2.26-2.41a32.58,32.58,0,0,0,2.08-2.66,25.09,25.09,0,0,0,1.63-2.57h0l.2-.36Zm22-3.32.17.22q2.18,3.06-.43,6l-.14.16c-1.08,1.06-2.26,2.27-3.54,3.61s-2.47,2.62-3.69,4a36.65,36.65,0,0,1-2.73,2.71c-.65,1.17-1.3,2.36-1.93,3.56h0a29.22,29.22,0,0,0-1.77,3.89h0a2.38,2.38,0,0,0-.08.85,7.55,7.55,0,0,0,.4,1.89l.06.19a.57.57,0,0,0,.23.28,5.61,5.61,0,0,0,.72.48,2.9,2.9,0,0,0,.57.27l.16.05a5.44,5.44,0,0,0,1.73.44,7.22,7.22,0,0,0,2.06-.13A17.09,17.09,0,0,0,330,244a4.37,4.37,0,0,1-.88-2.13l0-.27v-.27a10.6,10.6,0,0,1,1.07-4h0q.83-1.9,2.5-5l.1-.17q1.36-2.18,3.09-5c.55-.9,1-1.71,1.45-2.41s.88-1.53,1.41-2.48l.09-.16.11-.16c.22-.3.45-.63.7-1s.44-.65.62-.93l.73-1.12.73-1a8.42,8.42,0,0,0,.84-1.67,11.08,11.08,0,0,0,.63-4.1,8.43,8.43,0,0,0-.32-1.86,4.86,4.86,0,0,0-.65-1.4,5.6,5.6,0,0,0-1.18-1.21,4.14,4.14,0,0,0-1.6-.71l-.14,0,0,.35a17,17,0,0,1-.75,3.61A20.29,20.29,0,0,1,337.1,214a24.37,24.37,0,0,1-1.25,2.16Zm-18.79,22.06h0l2,.9-2-.9Zm34.16-10.48a35.68,35.68,0,0,0-3.48,6.42l-.3.73-.81.7-.72,3.7a9.73,9.73,0,0,0-.21,3.93.43.43,0,0,0,.27.33h0a13.28,13.28,0,0,0,2.81.55,11.93,11.93,0,0,0,2.68-.09,16.45,16.45,0,0,0,2.52-.6,4.07,4.07,0,0,1-.77-1.07h0a4.47,4.47,0,0,1-.44-1.48l0-.16v-.25a14.08,14.08,0,0,1,.56-4.12,17.17,17.17,0,0,1,1.7-3.89c.64-1.08,1.22-2,1.73-2.85s1-1.56,1.5-2.27l7.15-10.58c.38-.55.83-1.21,1.33-2l1.53-2.37a16.37,16.37,0,0,0,1.15-2.2h0a13.19,13.19,0,0,0,.68-2,3.54,3.54,0,0,0,.1-1.21,1.89,1.89,0,0,0-.25-.77,1.7,1.7,0,0,0-.61-.35,9.74,9.74,0,0,0-2.76-.65h-.14l-.11,0-.35-.06h0l-4.85,7.43c-.07.14-.14.29-.22.44s-.35.62-.6,1-.48.75-.76,1.16l-.87,1.23c-.39.52-.65.89-.79,1.08s-.42.62-.7,1l-.51.8-.09.15-.1.24-.16.25L353.7,224l-2.48,3.74Zm32.91-7.1a5.67,5.67,0,0,1,.09,2,8,8,0,0,1-1.34,3.32l-.15.23-6.93,7.41-.24.58a11.94,11.94,0,0,0-.83,2.88h0a5.8,5.8,0,0,0,0,2l0,.11a2.88,2.88,0,0,0,.32.86,7.84,7.84,0,0,0,.93,1.36,11,11,0,0,0,1.29,1.34,6.09,6.09,0,0,0,1.12.79l.11.07a5.77,5.77,0,0,0,2,.77,4.44,4.44,0,0,0,1.09.06,8.87,8.87,0,0,1-1.84-1.13h0a4.82,4.82,0,0,1-1.77-4.18,11,11,0,0,1,.93-3.76,33.62,33.62,0,0,1,1.72-3.46c.65-1.17,1.41-2.37,2.26-3.6s1.7-2.4,2.64-3.6,1.91-2.39,2.92-3.55,2.07-2.28,3-3.17a26.15,26.15,0,0,1,2.89-2.37c.51-.39,1-.76,1.52-1.1s1.11-.73,1.75-1.11,1.23-.71,1.86-1a18.39,18.39,0,0,1,1.83-.79,11.29,11.29,0,0,1,1.84-.53,9.89,9.89,0,0,1,1.84-.21,5.35,5.35,0,0,1,2.25.44,5.52,5.52,0,0,1,.75.42v0a7.94,7.94,0,0,0-.34-1.72,3.5,3.5,0,0,0-.64-1.15,6.47,6.47,0,0,0-1.48-1.32l0,0a4.07,4.07,0,0,0-2.47-.7,9.62,9.62,0,0,0-3.88,1.14,33.64,33.64,0,0,0-5,3.1,48.21,48.21,0,0,0-5.12,4.39l0,0c-.56.52-1.19,1.16-1.9,1.92s-1.6,1.74-2.52,2.8l-.47.55Zm-62.35,19.68h0Zm83.88,2.41a9.18,9.18,0,0,0,3.31-.7q-1.71-1.38-.9-4.7a15.1,15.1,0,0,1,.61-1.89h0c.23-.58.54-1.26.91-2s.67-1.32,1-1.93.67-1.23,1-1.81l.05-.08c.9-1.46,1.69-2.76,2.36-3.88s1.22-2.08,1.69-2.93,1-1.78,1.51-2.55,1-1.56,1.54-2.31h0q5.91-8.76,11.65-17.73,2.69-4.2,5.53-8.95t5.31-9.11l0,0q4.67-8,5.09-13.91a16.82,16.82,0,0,0-.28-5,11.4,11.4,0,0,0-.36-1.25c-.2.46-.43,1-.67,1.47-.56,1.19-1.21,2.49-2,3.91s-1.52,2.83-2.44,4.48q-1.2,2.13-2.79,4.85t-3.1,5.19q-1.85,3-3.38,5.4c-2.2,3.46.55-.87-3.46,5.41L424.53,198q-1.21,1.88-3.22,5.05-1.57,2.46-3,4.78L415.59,212h0c-1.87,3,1.72-2.72-2.3,3.67l-6.76,10.77.08-.76-1.43,2-1.22-.36-2.53,8.78a14,14,0,0,0-.78,5.39c.05.31.17.49.35.54h0a15.15,15.15,0,0,0,4.64.68Zm-1.15-25.36-.24,0a7.11,7.11,0,0,0-1.1.32c-.43.16-.87.35-1.3.56s-.92.49-1.43.79-1,.62-1.5,1-1,.66-1.36,1l-.12.09a18,18,0,0,0-2.2,1.81c-.83.78-1.7,1.7-2.61,2.73S390.8,227.89,390,229s-1.65,2.18-2.41,3.29-1.39,2.11-1.95,3.09a28.14,28.14,0,0,0-1.36,2.77l-.13.3h.06a8.14,8.14,0,0,0,1.11-.43,7.07,7.07,0,0,0,.94-.56l.1-.06a23.82,23.82,0,0,0,3.71-3,25.74,25.74,0,0,0,3.12-3.77c1-1.43,2-2.94,3-4.55s1.87-3,2.67-4.32a4.88,4.88,0,0,1,1-1.31,3.07,3.07,0,0,1,1.64-.85,2.61,2.61,0,0,1,1.82.35l.17-.32c.19-.35.38-.7.58-1a3.81,3.81,0,0,0,.3-.57h0a5.24,5.24,0,0,0,.22-.57Zm.16,4.17c0,.05,0,.05,0,0Z"/><path class="cls-1" d="M381.15,247.69v-7.47a1.32,1.32,0,0,0,.34.4,3.69,3.69,0,0,0,3.41.94,9.55,9.55,0,0,0,2.89-1.39,27.6,27.6,0,0,0,7.66-7.61q3.18-4.65,5.88-9.21c.31-.6.55-.73.72-.37s.84.71,2,1.06l1.43-2a14.22,14.22,0,0,1,.87-1.64,8.64,8.64,0,0,0,.87-1.91,9.26,9.26,0,0,0,.38-1.9,2.1,2.1,0,0,0-.58-1.62,2.22,2.22,0,0,0-1.95-.87,8.4,8.4,0,0,0-2.82.58,18.66,18.66,0,0,0-3.22,1.58,36.14,36.14,0,0,0-3.12,2.12,30.38,30.38,0,0,0-5.35,5,74.75,74.75,0,0,0-5.34,6.85,36.51,36.51,0,0,0-3.64,6.46,10.77,10.77,0,0,0-.46,1.29V222.86a1.63,1.63,0,0,0,0-1.59v-1.8c.45-.55.91-1.1,1.38-1.63,1.91-2.2,3.45-3.84,4.63-5a43.23,43.23,0,0,1,10.89-8q5.46-2.7,9-.22a8,8,0,0,1,3.36,4.2,12.06,12.06,0,0,1,.46,5l5-7.93q2.93-4.65,6.27-9.84L429,185.38q3.5-5.48,6.42-10.48t5.15-9.2a60.54,60.54,0,0,0,3.15-6.73,4.17,4.17,0,0,0,.22-1.81,2.72,2.72,0,0,1,.07-1.26c.21-.24.43-.28.64-.1l1.64,1.33c.1.12.19.18.24.18s.14.12.25.36c2,2.74,2.79,6.34,2.46,10.8s-2.18,9.61-5.56,15.44q-5.22,9.28-10.94,18.22T421,220a50.46,50.46,0,0,0-2.85,4.56c-.95,1.7-2.33,4-4.12,6.93-.64,1.09-1.27,2.27-1.9,3.55a16.35,16.35,0,0,0-1.26,3.18c-.2.84-.06,1.32.42,1.43s1.58-.44,3.29-1.67c.86-.61,1.93-1.47,3.21-2.57l4.47-3.86q2.56-2.2,3.76-3.31t2.16-2.1c.64-.68,1.36-1.47,2.15-2.38s2.05-2.23,3.75-3.94a1.6,1.6,0,0,1,2,0c.6.47.58,1.2,0,2.17q-4.32,4.39-8.54,9a121.32,121.32,0,0,1-9,8.8,36.18,36.18,0,0,1-8,5.18q-4.33,2-10.17.32-4.21-1.2-1.57-10.28-1.9,2.2-4.47,5a36.4,36.4,0,0,1-5.35,4.77,17.16,17.16,0,0,1-5.79,2.79A6.85,6.85,0,0,1,381.15,247.69Zm0-28.22v1.8a1.18,1.18,0,0,0-.25-.25,1.33,1.33,0,0,0-2,.3l-2.33,2.39v2.12c.18-.29.37-.58.56-.87q1.92-2.9,4-5.49Zm0,3.39V238a3,3,0,0,0,0,2.2v7.47a8,8,0,0,1-3.95-1.23,4.76,4.76,0,0,1-.64-.39v-17.8l4-4.26A6,6,0,0,0,381.15,222.86Zm-4.59.85v2.12a44.51,44.51,0,0,0-3.64,7,11.86,11.86,0,0,0-1,7.06,8.51,8.51,0,0,0,2,3.77,12.26,12.26,0,0,0,2.62,2.45v-17.8l-8,8.56a56.38,56.38,0,0,1-4.88,4.58,33.09,33.09,0,0,1-5.61,3.79,19.41,19.41,0,0,1-6.19,2.07,14.83,14.83,0,0,1-6.63-.54q-3.57-1-2.19-8.1a33.7,33.7,0,0,1-4.08,3.86,29.71,29.71,0,0,1-5.21,3.41,21.85,21.85,0,0,1-5.63,2,9.89,9.89,0,0,1-1.76.2V227.62q3.72-4.08,7.14-7.46a1.28,1.28,0,0,0,.22-1.72c-.38-.54-.95-.5-1.7.11-1.91,1.72-3.62,3.28-5.11,4.68-.18.18-.37.34-.55.51v1.71l.37-.59q3-4.83,6.19-9.75a20.8,20.8,0,0,0,2.76-5.37,17,17,0,0,0,.66-6.24q4-.24,6.23,1.44a8.15,8.15,0,0,1,3,4.3,12.5,12.5,0,0,1,.3,5.5,12.63,12.63,0,0,1-1.88,5.09c-.53.73-1,1.43-1.43,2.1s-.9,1.37-1.43,2.1c-.95,1.7-1.92,3.37-2.93,5s-2,3.31-3.09,5c-2.11,3.88-3.16,6.31-3.15,7.27.12.72.71.83,1.78.34a21.79,21.79,0,0,0,3.69-2.31c1.39-1,2.8-2.21,4.24-3.5s2.59-2.29,3.44-3a39.44,39.44,0,0,1,3.8-7q2.39-3.56,5.08-7.75a11.81,11.81,0,0,1,.87-1.46c.48-.72,1-1.49,1.59-2.28s1.09-1.52,1.51-2.19a4.43,4.43,0,0,0,.63-1.18l5.72-8.75a9.14,9.14,0,0,1,1.21-.29,3.66,3.66,0,0,1,1.37.07q4.37.48,5.52,2.45a6.07,6.07,0,0,1,.54,4.6,17.6,17.6,0,0,1-2.29,5.27c-1.11,1.77-2.09,3.25-2.93,4.47l-7.15,10.58q-1.27,1.83-3.1,4.92a11.82,11.82,0,0,0-1.78,6.17c.11,1,1.11,1,3,.05s4.73-3.35,8.56-7.26Zm-50.17,0v1.71q-2.81,4.56-5.33,9.34a31.29,31.29,0,0,0-2,4.36,7.92,7.92,0,0,0,.3,5.06,3.74,3.74,0,0,0,1.39,2.06,8,8,0,0,0,2,1.14,8.34,8.34,0,0,0,3.58.67V227.62l-.21.23a29.08,29.08,0,0,1-8.16,6.44c-.21.12-.75.37-1.61.75s-1.85.78-3,1.21a34.36,34.36,0,0,1-3.38,1.13,12.05,12.05,0,0,1-1.33.32v-6.93c.27-.24.55-.51.84-.79a39.53,39.53,0,0,0,4.7-5.48,23.4,23.4,0,0,0,3.09-5.65c.63-1.75.45-2.8-.52-3.15a5.17,5.17,0,0,0-3.15.4,24.88,24.88,0,0,0-4.25,2.14l-.71.45V205.37l.72-.23a20.37,20.37,0,0,1,6.05-.9,13.71,13.71,0,0,1,4.94.93,4.35,4.35,0,0,1,2.69,2.76,27.71,27.71,0,0,1,.6,3.15q.38,4.15-2.63,9.53a71.21,71.21,0,0,1-8.43,11.59,27.9,27.9,0,0,0,5.38-2.25,36.91,36.91,0,0,0,4.49-2.95Q324.45,225.55,326.39,223.74Zm-17.66-18.37v13.32a33.88,33.88,0,0,0-3.7,2.87,23.87,23.87,0,0,0-3.58,3.93,9,9,0,0,0-1.11,2.08V210q1.14-.89,2.28-1.62a28.12,28.12,0,0,1,6.11-3Zm0,25.4v6.93a8.94,8.94,0,0,1-1.49.18,57.48,57.48,0,0,1-6.9,5.36v-3.91l.61-.46-.61.15v-6.79a3,3,0,0,0,1,.76c.86.41,2.21.36,4-.15A8.59,8.59,0,0,0,308.73,230.77ZM300.34,210v17.55l-.24.65a5.7,5.7,0,0,0-.29,2.9,2.6,2.6,0,0,0,.53,1.11V239c-2.7.62-4.7.67-6,.12a6.52,6.52,0,0,1-.84-.4V215.82c.69-.45,1.36-.87,2-1.27a40.3,40.3,0,0,1,4.83-4.53Zm0,29.31c-1,.76-1.91,1.38-2.67,1.84a15.4,15.4,0,0,1-3,1.4q-.63.24-1.2.42v4c.56-.24,1.14-.5,1.73-.78a46,46,0,0,0,5.12-2.94v-3.91Zm-6.85-52.15V163a8.28,8.28,0,0,0,.64-2.24c.1-.84.19-1.63.29-2.35a6.11,6.11,0,0,1,3.92,3.92,27.06,27.06,0,0,1,.69,10.56q-.66,5.88-5.1,13.53ZM279.92,117c.28.81.53,1.63.77,2.46a57.91,57.91,0,0,1,2.36,15.59,59.62,59.62,0,0,1-3.13,20.11V117Zm13.57,46v24.21q-6.14,10.86-13.57,22.21v-22c1.19-1.93,2.35-3.82,3.46-5.68q3.17-5.28,5.78-10t4-8c.11-.23.21-.45.3-.67Zm0,52.85v22.92a5,5,0,0,1-2.09-2,5.79,5.79,0,0,1-.76-3.06,5.64,5.64,0,0,0-.11-1.9,11.59,11.59,0,0,0-2.21,4,9.67,9.67,0,0,0-.52,4.34,3.6,3.6,0,0,0,1.89,2.86,5.1,5.1,0,0,0,3.8,0v4c-3.32,1.36-6.19,1.75-8.59,1.17l-1.45-.34a13.31,13.31,0,0,1-3.53-2.19V231.54q3-3.07,6.37-6.74c.85-1,1-1.73.46-2.26s-1.19-.44-1.93.3l-4.9,4.58v1l.39-.64a30.56,30.56,0,0,1,7.1-7.6C289.57,218.51,291.59,217.06,293.49,215.82ZM265.6,146.74q1.13-2.84,2-5.78a54.64,54.64,0,0,0,2.56-16.39,35,35,0,0,0-3.24-15.13,21.35,21.35,0,0,0-1.33-2.35V96.38a34.59,34.59,0,0,1,8.64,9A49.66,49.66,0,0,1,279.92,117v38.16c-.45,1.35-1,2.68-1.52,4A72,72,0,0,1,265.94,179l-.34.38V146.74Zm14.32,40.6v22l-.81,1.24Q272,221.48,265.6,232V209.72l4.22-6.45q3.26-5,6.82-10.67c1.12-1.78,2.22-3.53,3.28-5.26Zm0,40.08-7.25,6.79a82.59,82.59,0,0,1-7.07,6.08V244a66.62,66.62,0,0,0,9-7.23c1.68-1.57,3.47-3.33,5.36-5.26V245.6a8.27,8.27,0,0,1-1.53-1.8,10.7,10.7,0,0,1-1.59-5.13,14.42,14.42,0,0,1,.91-5.52,28.28,28.28,0,0,1,2.21-4.73ZM233.33,180a37.31,37.31,0,0,0,15.17-8.34,61.41,61.41,0,0,0,11.63-14,71.71,71.71,0,0,0,5.47-10.95V179.4a64.47,64.47,0,0,1-16.94,13.5,48.73,48.73,0,0,1-19.15,6.15,3.29,3.29,0,0,1-3.34-2,9,9,0,0,1-.46-5.05A18.75,18.75,0,0,1,228,185.7a17.24,17.24,0,0,1,5.19-5.68Zm32.27-72.93V96.38q-.84-.6-1.74-1.17a25.16,25.16,0,0,0-14.09-3.77q-9.53.14-20.05,5.34a123.17,123.17,0,0,0-21,13.4,190.77,190.77,0,0,0-20.38,18.54q-9.9,10.34-18.34,20.76t-15,19.91a178.13,178.13,0,0,0-10.23,16.22q-4.28,8-9.4,18.3t-9.53,21.27a198.07,198.07,0,0,0-7.35,21.88,74.15,74.15,0,0,0-2.84,20.09,31.24,31.24,0,0,0,2.23,11.71,24.12,24.12,0,0,0,14.78,14,32.35,32.35,0,0,0,11.08,1.68,67.2,67.2,0,0,0,18.7-3.25,142.7,142.7,0,0,0,20.74-8.42,218.17,218.17,0,0,0,21-12.05q10.42-6.74,19.79-14t17.12-14.42a133.16,133.16,0,0,0,12.69-13.19l-1.15-1.61q-4.31,4.4-11.34,10.55T225.41,251q-8.81,6.63-18.75,13.09t-19.89,11.67a143.19,143.19,0,0,1-19.45,8.49,55.38,55.38,0,0,1-17.25,3.41,24.74,24.74,0,0,1-8.25-1.24,18.92,18.92,0,0,1-6.83-4,20.16,20.16,0,0,1-4.76-6.7,23.59,23.59,0,0,1-1.88-9.46q-.09-8.31,3.81-20.38a198.11,198.11,0,0,1,10.77-26.08q6.85-14,16-29t19.46-29.09q10.33-14.15,21.26-26.41A195.91,195.91,0,0,1,221,114.43q10.49-8.64,19.88-12.57t16.71-1.32a16.77,16.77,0,0,1,8,6.55Zm0,102.63V232c-.6,1-1.21,2-1.8,3q-2.7,4.74-2.68,6.36c.12,1,1.06,1,2.83,0a16.44,16.44,0,0,0,1.65-1.09V244l-.49.32a25.17,25.17,0,0,1-7.79,3.45,12.33,12.33,0,0,1-6.63-.27,4.15,4.15,0,0,1-2.38-3.22q-.59-2.52,1-7.6a34.25,34.25,0,0,1,4.1-8.37q2.87-4.38,6-9.3,1.59-2.37,4.37-6.57Z"/></svg>