<?xml version="1.0" encoding="utf-8"?>
<!-- Generator: Adobe Illustrator 22.0.0, SVG Export Plug-In . SVG Version: 6.00 Build 0)  -->
<svg version="1.1" baseProfile="tiny" id="Layer_1" xmlns="http://www.w3.org/2000/svg" xmlns:xlink="http://www.w3.org/1999/xlink"
	 x="0px" y="0px" viewBox="0 0 208.9 144.8" xml:space="preserve">
<g>
	<g id="XMLID_1_">
		<g>
			<path fill="#606161" d="M205.1,93.2c3.8,1.9,3.6,3.6,2.8,7.5c-0.5,2.3-1.4,4.4-2.6,6.1c-1.1-0.1-2.2-0.2-3.4-0.3
				C205.3,104.6,206.1,99.3,205.1,93.2z"/>
			<path fill="#787878" d="M172.7,74.2c-6.2-3.3-12.3-6-17.9-5.2c0-0.4,0-0.8-0.1-1.2c-0.2-1.9-1-4.4-3.4-6.1
				c3.2-0.2,10.7,3,23,11.5c4.3,3,9.2,6.7,14.6,11c-7.2-5-14.6-8.9-22.2-10.4C168.7,74,170.7,74.1,172.7,74.2z"/>
			<path fill="#606161" d="M174.3,73.2c-12.3-8.6-19.8-11.8-23-11.5l-0.7,1.1l-2.7,0.1c-0.2-1.2-1.5-4-0.7-4.6
				c1.5-0.8,3.4-0.4,5.2-0.1c5.2,1,8.5,3.3,12.6,6.3l2.7,1.9c0.3,0.3,0.5,0.5,0.9,0.7c1.3,0.9,2.5,1.5,3.8,2.5
				c0.7,0.5,1.2,0.9,1.9,1.4l1.1,0.7L174.3,73.2z"/>
			<path fill="#62AEE0" d="M174.7,102.1c-3.2,0.2-5.7,1.1-8.9,1.3c0-0.9-0.1-2.1-0.1-3l0.1-0.9C169,100,172,100.9,174.7,102.1z"/>
			<path fill="#606161" d="M162.8,104.3c-0.7,1.6-1.8,3.5-4.4,5.7c-1.6,1.2-2.7,1.5-7.8,1.7c-6.6,1.1-6.3-0.5-9.5-0.8
				C148.9,110.1,156.2,107.7,162.8,104.3z"/>
			<path fill="#30302F" d="M150.6,62.7l0.7-1.1c2.4,1.7,3.1,4.2,3.4,6.1l-1.5,0.2L150.6,62.7z"/>
			<path fill="#62AEE0" d="M152.3,93.4c1.6,0,3.1,0,4.7,0c17.8,0.9,16.1,1.3,32.6,9.9c-5.6-1-11-3-15.9-4.6
				c-4.8-2.4-22.9-3.6-25.5,3c5.5-2.7,11.9-3.2,17.8-2.2l-0.1,0.9c-1.9,1.3-3.8,1.9-5.7,2.8c-3.7,1.2-7.4,2.4-11.1,3.6
				c-10.2,4.4-12.9,0.9-16.9,4l-7-5.7l5.9-5.5c0.4,0.2,0.8,0.3,1.2,0.5c0.7,0.2,1.3,0.4,2,0.6c6.2,1.7,7.9,0.8,13.1-3.2
				c1.7-1.5,2.9-2.4,4.2-4.4C151.6,93.3,151.9,93.4,152.3,93.4z"/>
			<path fill="#62AEE0" d="M148,70.6c0,0.1-0.1,0.2-0.1,0.3C148,70.8,148,70.7,148,70.6z"/>
			<path fill="#F9A64A" d="M141.4,89.5c0.6-4.5,4.4-4.3,3.7-1.5c-0.5,2.1-1.7,2.9-1.7,3c0,0,0,0.1,0,0.1c-0.2-0.1-0.3-0.1-0.5-0.2
				c-0.6-0.2-1.1-0.3-1.6-0.3C141.2,90.3,141.3,89.9,141.4,89.5z"/>
			<path fill="#F9A64A" d="M144.6,82c0.1-0.9,1.7-3.9,0.8,0.2c-0.1,0.6-0.2,1.3-0.4,1.9c-0.2,0-0.4-0.1-0.6-0.1
				C144.4,83.6,144.5,83,144.6,82z"/>
			<path fill="#606161" d="M144.4,85c0.2-0.2,0.4-0.6,0.5-0.9c0.1,0,0.2,0.1,0.4,0.1c-0.2,0.4-0.3,0.8-0.5,1.3L144.4,85z"/>
			<path fill="#606161" d="M144.6,82c-0.1,1-0.2,1.6-0.3,2c-0.2,0-0.4,0-0.7,0.1c-0.1-0.6,0-1.5,0.3-2.4c0.9-2.1,0.5-6.7,1.9-6.7
				c0.6,0,0,3.1,0.2,4.6c0.4,2.2-0.2,3-0.8,4.5c-0.1,0-0.2-0.1-0.4-0.1c0.2-0.6,0.3-1.3,0.4-1.9C146.3,78.1,144.7,81.1,144.6,82z"/>
			<path fill="#606161" d="M143.7,84.1c0.2,0,0.4-0.1,0.7-0.1C144.1,85,143.8,84.8,143.7,84.1z"/>
			<path fill="#606161" d="M143.1,92c0.3-0.2,0.6-0.4,0.8-0.6c1.9,1.4,0.3,4-0.8,5.7c-0.2,0.3-0.3,0.4-0.4,0.4c-0.5,0,0-3.3-1.1-3.7
				c-2.3-0.8-3.4,3.9-4.7,3.9c-0.1,0-0.1,0-0.2,0c0,0-0.1,0-0.1-0.1c-0.5-0.3-0.2-6.3,3.5-7.1c0.2,1.2,0.7,0.9,1-0.1
				c0.5,0,1,0.1,1.6,0.3c0.2,0.1,0.4,0.1,0.5,0.2C143.2,91.3,143.2,91.9,143.1,92z"/>
			<path fill="#606161" d="M143.7,116.4l-0.4,0.9c-0.5,0.1-0.9,0.3-1.4,0.4l0.3-0.6L143.7,116.4z"/>
			<path fill="#606161" d="M143.3,91.1c0.2,0.1,0.4,0.2,0.6,0.4c-0.3,0.2-0.6,0.4-0.8,0.6C143.2,91.9,143.2,91.3,143.3,91.1z"/>
			<path fill="#606161" d="M143.3,117.3l-7.5,16.9c0,0-0.1,0-0.1,0c-0.4,0.2-0.3,0.2-0.8,0.4l7-17
				C142.3,117.6,142.8,117.4,143.3,117.3z"/>
			<path fill="#FDF3F3" d="M149.3,113.7c-1.4,1.3-11.4,3.5-13,6c1.6-0.8,3.5-1.4,5.5-2l-7,17c-1.4,0.7-3.9,0.8-5.4,0.2l6.4-22.9
				c2.7-0.7,3.4,0.1,7,1.2c-0.2,0.5-0.6,0.6-1.4,0.8c1.8,0.1,2.2,0.3,4,0.2L149.3,113.7z"/>
			<path fill="#F9A64A" d="M142.7,97.6L142.7,97.6c-1.8,0.6-3.7,0.6-5.8,0.3c1.3-0.1,2.4-4.8,4.7-3.9
				C142.7,94.3,142.2,97.6,142.7,97.6z"/>
			<path fill="#606161" d="M140.1,90c-0.2-1.5,0.1-2.7,0.5-3.6c0.7-1.3,1.9-2.1,3.1-2.2c0.1,0.7,0.4,0.9,0.7-0.1
				c0.2,0,0.4,0,0.6,0.1c-0.1,0.4-0.3,0.7-0.5,0.9l0.4,0.5c0.2-0.5,0.3-0.9,0.5-1.3c1.1,0.3,1.8,1.1,1.7,2.3
				c-0.2,2.9-1.5,3.8-3.1,4.9c-0.2-0.1-0.4-0.3-0.6-0.4c0-0.1,0-0.1,0-0.1c0-0.1,1.2-0.9,1.7-3c0.7-2.7-3.1-3-3.7,1.5
				c-0.1,0.4-0.1,0.7-0.2,1c-0.3,0-0.7,0-1,0.1C140.1,90.5,140.1,90.2,140.1,90z"/>
			<path fill="#606161" d="M140.2,90.7c0.3-0.1,0.6-0.1,1-0.1C140.8,91.5,140.4,91.8,140.2,90.7z"/>
			<path fill="#F9A64A" d="M147.9,71c0-0.1,0.1-0.2,0.1-0.3C148,70.7,148,70.8,147.9,71z M143.7,84.1c-1.2,0.2-2.4,0.9-3.1,2.2
				l-0.5-0.3c1.1-2.2,2-5.8,2.6-8c0.5-1.7,0.9-3.1,1.4-4.6c0.3-0.9,0.3-1.5,0.9-2.1c0.7-0.7,0.9-0.4,1-1.9c0.2-1.7,0.2-3.9,0.7-4.7
				c-0.1,0.1-0.2,0.3-0.3,0.4l1.4-2.5l0.2,0v0c7.3,0.5,5.5,18.7,2.3,27c-1.8,4.7-4.4,6.9-7.5,7.8l0-0.1c0.1,0,0.2-0.1,0.4-0.4
				c1.1-1.7,2.7-4.3,0.8-5.7c1.6-1.1,2.9-2,3.1-4.9c0.1-1.2-0.7-2-1.7-2.3c0.7-1.6,1.2-2.4,0.8-4.5c-0.3-1.5,0.3-4.6-0.2-4.6
				c-1.4,0-1,4.5-1.9,6.7C143.6,82.6,143.6,83.5,143.7,84.1z"/>
			<path fill="#606161" d="M140.3,83.9l3.1-11.1l0.5-1.1C143.7,74.2,141.8,80.6,140.3,83.9z"/>
			<path fill="#606161" d="M138.3,70.3c0,0.2-0.1,0.5-0.2,0.7l-0.8-0.1c0.6-2.5-0.8-2-1.2-3.9c0.7-1,1.4-0.8,2.7-0.9
				c2.9-0.3,4.7,0.4,5.5-0.5l1.7,0.1c-1.7,2.4-1.2,3.5-1.9,4.4C143.7,70.7,142.4,70.5,138.3,70.3z"/>
			<path fill="#F9A64A" d="M140.2,90.7c-3.7,0.8-4.1,6.8-3.5,7.1c0,0,0.1,0,0.1,0.1c-1.4-0.2-2.9-0.6-4.4-1.1
				c0.9-1.8,2.4-3.4,3.8-4.8c1.9-2,2.3-3.1,3.5-5.1c0.2-0.2,0.3-0.5,0.4-0.8l0.5,0.3c-0.5,0.9-0.7,2.1-0.5,3.6
				C140.1,90.2,140.1,90.5,140.2,90.7z"/>
			<path fill="#FFFFFF" d="M137.1,11.4v0.7c-0.1,0.1-0.2,0.2-0.3,0.2C136.9,12.1,137,11.7,137.1,11.4z"/>
			<path fill="#606161" d="M137,97.8c-0.1,0-0.1,0-0.2,0C136.8,97.8,136.9,97.8,137,97.8z"/>
			<path fill="#FDF3F3" d="M138.8,131.8c-0.9,1.2-1.7,1.8-3,2.4l7.5-16.9c2.3-0.7,4.6-1.3,6.7-2.1l3-1l0.5,1.5
				C149.4,119.4,142.1,127.2,138.8,131.8z"/>
			<path fill="#606161" d="M136.7,89.6c0.9-1.5,2.3-2.7,3.6-5.6L140,85l-3.9,5.5C136.3,90.2,136.5,89.9,136.7,89.6z"/>
			<path fill="#606161" d="M136,111.6l-0.1,0.5c-0.2,0.1-0.5,0.1-0.8,0.2c-0.2,0.1-0.5,0.2-0.7,0.3l0.1-0.3L136,111.6z"/>
			<path fill="#606161" d="M135.9,112l-6.4,22.9c-0.1-0.1-0.3-0.1-0.4-0.2c-0.1,0-0.1-0.1-0.2-0.1l5.5-22.1c0.2-0.1,0.5-0.2,0.7-0.3
				C135.4,112.2,135.7,112.1,135.9,112z"/>
			<path fill="#606161" d="M135.5,134.8l-0.7,0.1l0.1-0.1c0.4-0.2,0.4-0.2,0.8-0.4c0,0,0.1,0,0.1,0L135.5,134.8z"/>
			<path fill="#606161" d="M136.1,90.5c-1.9,3.1-2.6,3.9-3.7,4.7l2.5-3.2L136.1,90.5z"/>
			<path fill="#606161" d="M131.1,96.8l1.3-1.6c1.1-0.8,1.8-1.6,3.7-4.7L140,85l0.3-1.1c0,0,0,0,0,0c1.5-3.3,3.4-9.7,3.5-12.2
				L145,69l1.4-3.6l0-0.1c0,0,0,0,0,0c0.1-0.1,0.2-0.3,0.3-0.4c-0.5,0.8-0.6,3-0.7,4.7c-0.1,1.5-0.3,1.2-1,1.9
				c-0.6,0.5-0.6,1.1-0.9,2.1c-0.5,1.5-0.9,2.8-1.4,4.6c-0.6,2.2-1.5,5.8-2.6,8c-0.1,0.3-0.3,0.5-0.4,0.8c-1.2,1.9-1.6,3-3.5,5.1
				c-1.3,1.4-2.8,3-3.8,4.8c1.5,0.5,2.9,0.8,4.4,1.1c0.1,0,0.1,0,0.2,0c2,0.3,4,0.3,5.8-0.2c3-0.8,5.7-3.1,7.5-7.8
				c3.2-8.4,5-26.5-2.3-27v0l2.7-0.1l2.6,5.2l0.6,11.3l-3,10.8l-1.7,3.2l-4,3.9L141,99l-7.4-0.9L131.1,96.8z"/>
			<path fill="#62AEE0" d="M123.8,105.9l7.2,5.9c-1.3,1.3-2.7,3.3-4.6,6.4c-1.3,2.1-2.4,4.6-2.8,6.9l-12.2,0.1
				c-4.4-3.7-2-8.6,0.6-14.2c1.4-0.4,2.8-0.9,4.2-1.3C119.1,108.4,121.2,107.4,123.8,105.9z"/>
			<path fill="#606161" d="M130.1,142c-0.1-0.1-0.3-0.2-0.5-0.2c0.2-0.5,0.4-1,0.7-1.3s0.7-0.2,1.1-0.4
				C131.1,140.9,130.3,142.1,130.1,142z"/>
			<path fill="#606161" d="M129.5,134.9l-0.2,0.6l-0.7,0.1l0.2-1c0.1,0,0.1,0.1,0.2,0.1C129.3,134.8,129.4,134.9,129.5,134.9z"/>
			<path fill="#62AEE0" d="M123.6,128.6c1.3,3.3,2.9,8.6,7,8.3c-0.5,0.5-0.7,0.4-1.2,0.9c-0.4,0.1-0.8,0.2-1.2,0.4
				c-3.6-1.5-4.6-2.1-6.6-5.8c-0.6-0.2-1.2-0.4-1.8-0.6c-3.3-1.6-3-1.6-5.2-4.6c-0.3-0.1-0.5-0.2-0.7-0.3h9.5l0,0
				C123.4,127.4,123.4,128,123.6,128.6z"/>
			<path fill="#606161" d="M124.7,128.3c1.5,3.5,3.1,5.5,4.3,6.4l-0.2,1l0.7-0.1l0.2-0.6c1.4,0.6,3.9,0.5,5.4-0.2l-0.1,0.1l0.7-0.1
				l0.2-0.5c1.4-0.7,2.1-1.2,3-2.4c3.4-4.6,10.7-12.5,14.7-16.2c-0.8,3.3-11.1,13.5-13.8,17.3c-2.1,2.9-5.4,2.9-7.5,5.6
				c-0.7,0.9,0,0.8-0.7,1.4c0,0-0.1,0.1-0.1,0.1c0.1-0.4,0.1-0.8-0.1-0.9c-0.7-0.2-1.2-0.3-1.7-0.3c0.5-0.3,0.9-0.8,1.6-1.3
				c0.5-0.4,0.8-0.5,0.9-1.1c-0.7,0-1.4-0.1-2.1-0.1C126.6,136.2,124.7,128.3,124.7,128.3z"/>
			<path fill="#606161" d="M129.6,141.8c-0.6,1.1-6.6,0.4-9.2-0.1c0.1-0.1,0.2-0.1,0.4-0.2c0.9-0.5,4.3-0.6,6.8-0.2
				C128.4,141.4,129.1,141.6,129.6,141.8C129.6,141.8,129.6,141.8,129.6,141.8z"/>
			<path fill="#606161" d="M125.8,99c-0.9,1-1.7,2.1-2.7,3.4c2-2.7,3.8-8.1,6.1-9.8c2.9-2,13.8-15.7,13.1-20.5l1.1,0.1
				c-1,2.2-2,6.1-2.9,8.7c-0.2,0.7-0.3,1.2-0.5,1.8c-0.9,3.1-2.2,4.8-4.1,7.3c-0.9,1.3-2.2,2.2-3.2,3.5L125.8,99z"/>
			<path fill="#606161" d="M127.7,138.7c-1.3-0.6-2.7-1.3-3.9-2.2c0.7,0.4,1.3,0.8,2.1,1.2c2,1,2.9,1,3.7,1.1
				C129.1,139.1,128.6,139.1,127.7,138.7z"/>
			<path fill="#606161" d="M123.1,102.3c0.9-1.2,1.8-2.4,2.7-3.4l7-5.6c0.9-1.3,2.2-2.2,3.2-3.5c1.8-2.5,3.1-4.2,4.1-7.3
				c0.2-0.6,0.3-1.1,0.5-1.8c0.9-2.6,1.9-6.5,2.9-8.7l-1.1-0.1c-0.1-0.5,1.7-1.7,1.6-0.2l-0.5,1.1l-3.1,11.1c0,0,0,0,0,0
				c-1.3,2.9-2.7,4.1-3.6,5.6c-0.2,0.3-0.4,0.6-0.6,0.9l-1.1,1.6l-2.5,3.2c-0.9,0.7-2.2,1.3-4.7,3.4c-0.3,0.3-2.5,2.6-2.5,2.6
				l-2.3,1.4C122.9,102.5,123,102.4,123.1,102.3z"/>
			<path fill="#606161" d="M127.6,141.3c-2.5-0.4-5.9-0.3-6.8,0.2c-0.1,0.1-0.2,0.1-0.4,0.2h0c-0.4-0.1-0.8-0.2-1-0.2l-1.4-2
				C118.7,139.7,125.2,140.9,127.6,141.3L127.6,141.3z"/>
			<path fill="#FDF3F3" d="M125.1,72.3c-3.9,0.7-7.3,1.5-11.3,2.6c1.5-1.4,2.9-3.4,4.1-4.2C120.3,71.4,122.7,72,125.1,72.3z"/>
			<path fill="#B7B7B7" d="M120.5,89.7c-0.3-3.1-1.8-6,1-2.5c1.3,1.6-1.3-6.3-1.5-7.1c0.3,0.8,3.1,4.4,2.9,3.5
				c-0.4-1.6-0.4-6.6-0.5-9l9-1.7l3.3-1.3h0c0.1,0,0.3-0.1,0.4-0.1l2.2-0.7l0.8,0.1c-0.7,2.6-3,8-6.2,12.6
				c-3.1,4.4-7.1,7.8-10.8,9.8C121.1,92.2,120.6,90.4,120.5,89.7z"/>
			<path fill="#30302F" d="M119.9,50.7c0,1.4-0.9,2.5-2.1,2.6c-1.2,0.1-2.2-1-2.3-2.4c-0.1-1.4,0.9-2.5,2.1-2.6
				C118.8,48.2,119.9,49.3,119.9,50.7z"/>
			<path fill="#606161" d="M92.3,70.7c-2.7,0.8-5.3,1.4-7.9,1.7L77,71l2.9-2.5l0.5-0.5l-1.9-4.5c19.3,0.8,32.9,0.8,52.1,0.1l-3,2.5
				l3.4,5.1c-2.2,0.4-4.2,0.8-6,1.1c-2.4-0.3-4.8-0.9-7.2-1.6c-1.2,0.8-2.7,2.8-4.1,4.2c-0.6,0.2-1.2,0.3-1.8,0.5h-0.1
				c1-1.9,3.9-4,4.9-5.5c-0.6-0.2-1.2-0.4-1.9-0.6c-1.6-0.5-3.4-0.9-5.4-1.2l-0.1,0l-0.1,0c0,0,0,0-0.1,0c-1.3-0.2-2.7-0.4-4.1-0.5
				c-1.9,0.2-3.7,0.4-5.3,0.7l-0.1,0l-0.1,0c-1.6,0.3-3.1,0.7-4.4,1.1c0,0,0,0,0,0c-0.6,0.2-1.2,0.4-1.8,0.6
				c0.9,1.4,3.8,3.5,4.8,5.3l-1.9-0.5C94.9,73.4,93.4,71.5,92.3,70.7z"/>
			<path fill="#606161" d="M121.3,73.9c-3.2,0.8-5,0.5-7.6,1.1c0.1,0,0.1-0.1,0.2-0.1c4-1.2,7.5-1.9,11.3-2.6
				c3.1,0.4,6.3,0.3,9.6-0.6l-3.3,1.3l-9,1.7c0-0.2,0-0.4,0-0.5l-1-0.3L121.3,73.9z"/>
			<path fill="#606161" d="M115,129.7c1.5,2.1,5.9,2.9,6.4,4c0.6,1.2,1.4,2.1,2.3,2.9c-2.3-1.5-4.2-3.4-7.2-5.1
				C115.7,130.9,115.3,130.2,115,129.7z"/>
			<path fill="#606161" d="M120.9,135.9c-2.4-4.2-5.7-3.8-6.2-6.9c0.1,0.2,0.2,0.5,0.4,0.7c0.3,0.5,0.7,1.2,1.6,1.7
				c3,1.8,4.9,3.6,7.2,5.1c1.2,0.9,2.5,1.6,3.9,2.2c0.9,0.4,1.4,0.3,1.9,0.1c0,0,0,0,0,0c0.5,0,1,0.1,1.7,0.3
				c0.2,0.1,0.2,0.4,0.1,0.9v0c-0.3,0.2-0.7,0.1-1.1,0.4s-0.5,0.8-0.7,1.3c-0.5-0.2-1.2-0.3-2-0.5v0c0.3,0.1,0.6,0.1,0.7,0.1
				c0.1-0.6,0.2-0.6,0.4-1C126.9,140.2,121.8,137.5,120.9,135.9z"/>
			<path fill="#606161" d="M115,129.7c-0.2-0.2-0.3-0.4-0.4-0.7C114.8,129.1,114.9,129.4,115,129.7z"/>
			<path fill="#FDF3F3" d="M114.9,69.4l-4,4.9H99.1l-3.9-4.8c0,0,0,0,0,0l4.4-1.1c0.1,0,0.1,0,0.2,0l5.3-0.7l4.1,0.5c0,0,0,0,0.1,0
				c0.1,0,0.1,0,0.2,0L114.9,69.4z"/>
			<path fill="#606161" d="M105.8,114.1c1.6,0.1,3.8-1,5-4.4c0.2,2.3-1.1,4.5-2.1,6.5c-1.9,3.6,0.1,9.3,3,10.8c1.7,0.9,2.7,2,3,2.1
				c0.5,3.1,3.8,2.7,6.2,6.9c0.9,1.6,6,4.3,7.9,4.4c-0.2,0.4-0.3,0.5-0.4,1c-0.1,0-0.4,0-0.7-0.1c-2.4-0.3-8.9-1.6-9.6-1.8l1.4,2
				c0.2,0.1,0.5,0.1,1,0.2c-5.6,3-7.1-0.3-8.3-0.3c-3,0.1-3.3-2.5-6.3-2.7V114.1z"/>
			<path fill="#787878" d="M111.8,75.6c0.7-0.2,1.2-0.4,1.8-0.5c-0.7,0.7-1.4,1.2-2,1.3C111.6,76.1,111.7,75.8,111.8,75.6z"/>
			<path fill="#606161" d="M112,75.4c0.6-0.2,1.2-0.4,1.8-0.5c-0.1,0.1-0.1,0.1-0.2,0.1c-0.5,0.1-1.1,0.3-1.8,0.5
				C111.8,75.5,111.9,75.5,112,75.4L112,75.4z"/>
			<path fill="#30302F" d="M193.3,104.8l0.4,0C193.6,104.8,193.5,104.8,193.3,104.8z M119,107.3c-2.5,1.4-6.5,2.7-8.2,2.3
				c2.6-0.5,6-1.5,8.2-3.1c1.6-1.2,2.8-2.5,3.9-3.9l2.3-1.4c0.1,0,2.2-2.3,2.5-2.6c2.5-2.1,3.8-2.7,4.7-3.4l-1.3,1.6l2.5,1.3L141,99
				l4.2-1.8l4-3.9l1.7-3.2l3-10.8l-0.6-11.3l1.5-0.2c0.1,0.5,0.1,0.9,0.1,1.2c5.5-0.7,11.7,2,17.9,5.2c-2-0.1-4-0.3-6-0.4
				c7.7,1.4,15,5.4,22.2,10.4c-5.5-4.4-10.3-8-14.6-11l1-1.5l8.2,5.7c1.3,0.8,2.4,1.8,3.6,2.6l14.2,11c1,0.9,1.2,2.1,1.5,3.4
				c0.2,0.6,0.2,0.6,0.3,1.4c0.4,2.8,0.6,2.9,0,5.7c-0.4,1.7-2.4,5.1-4.1,5.3c-0.9,0.1-2.2,0-2.8-0.3c-1.4-0.7-3.7-0.1-5.4-0.6
				c-0.8-0.2-1.5-0.4-2.4-0.6c-0.4-0.1-0.7-0.3-1.2-0.4c-3.8-1-5.3-1.3-9.4-0.9c-1.9,0.2-3.1,0.7-5.2,0.8c-2.5,0.1-5.1,0.8-7.5,1.3
				c-1.5,0.3-0.8,0.2-1.7,1.3c-0.5,0.7-0.8,1.3-1.4,1.9c-1.5,1.5-3.6,3-5.6,3.7l-3.4,1.2l-3,1c-2.1,0.8-4.4,1.5-6.7,2.1l0.4-0.9
				l-1.5,0.7l-0.3,0.6c-2,0.6-3.9,1.2-5.5,2c1.6-2.5,11.6-4.7,13-6l-3.8,0.5c-1.8,0.1-2.3-0.1-4-0.2c0.8-0.2,1.2-0.3,1.4-0.8
				c-3.6-1.1-4.3-1.9-7-1.2l0.1-0.5l-1.5,0.7l-0.1,0.3c-2.2,1-3.5,3-4.8,4.7l-2.3,3c1-1.5,2-3.6,3.2-5.4c1.2-1.8,2.4-3.4,3.9-4
				c1-0.2,2.5-0.1,3.3-0.2c4.3-0.6,10.8-1.7,14.9-3.3c-2.6,1.8-10.7,3.6-14.1,3.4l0,0.2c3.2,0.1,5.3,2.4,10.4,1.5
				c6.6-1.2,5.8,1,11.6-3.3c1.4-1,3-4.1,3.5-5.8l-8,3.4c-0.9,0.4-2,0.7-2.8,1c2.1-1.8,7.8-3.7,9.1-4.4c1.5-0.7,1.9-1.1,3-1.7
				c-0.1,1.6-0.1,1.9-0.7,3c0.9,0,4.9-1,6.2-1.2c1.1-0.2,2.2-0.2,3.2-0.3c0.9-0.1,2.2-0.2,3.1-0.7c-2.7-0.9-4-1.2-6.3-2.1
				c-8.3-3.1-16.4-1.5-21.3,0.4c1.9-2.8,13.3-3.6,16.4-3c4.3,0.9,6.8,2.1,10.8,3.2c3.5,1,13.1,3.5,16.6,3.8
				c-0.4-0.1-0.7-0.2-0.9-0.3c-0.3-0.2-0.5-0.4-1.1-0.8c-21-11.8-17.4-10-37.9-11c-1.6-0.1-1.5-0.5-2.4-1.2
				c-0.2,1.3-0.7,1.8-1.3,2.6l-2,2.2c-0.2,0.1-0.3,0.2-0.5,0.3l-4,2.9c-1.5,1.2-3.9,1.3-6.5,1.1c-2.4-0.2-3.8-2.8-6.5-3
				C128.3,99.1,124.1,104.3,119,107.3z"/>
			<path fill="#787878" d="M111.6,95.2c-0.1,0.2-0.2,0.3-0.4,0.5c-0.1,0-0.2-0.1-0.2-0.1C111.3,95.5,111.5,95.4,111.6,95.2z"/>
			<path fill="#606161" d="M111.3,95.7c2.2,0.6,7.9-0.3,9.6-1c0.3-0.1,0.4-0.6,0.3-1.3c3.7-2,7.7-5.4,10.8-9.8
				c3.2-4.6,5.5-10,6.2-12.6c0.1-0.3,0.1-0.5,0.2-0.7c4.1,0.2,5.4,0.4,5.9-0.2c0.7-0.9,0.2-2,1.9-4.4c0.1-0.1,0.2-0.2,0.3-0.4l0,0.1
				L145,69l-1.1,2.8c0.1-1.4-1.7-0.3-1.6,0.2l-1.1-0.1c-0.3,7.3-10.1,16.9-15.4,21.6c-4,3.5-10.1,4.9-14.7,2.6
				C111.1,96,111.2,95.9,111.3,95.7z"/>
			<path fill="#606161" d="M111.1,95.6c0.1,0,0.1,0.1,0.2,0.1c-0.1,0.1-0.2,0.2-0.3,0.4c-0.1-0.1-0.2-0.1-0.3-0.2
				C110.8,95.8,110.9,95.7,111.1,95.6z"/>
			<path fill="#606161" d="M110.8,109.6C110.8,109.6,110.8,109.6,110.8,109.6c-0.1,0.1-0.2,0.2-0.3,0.3
				C110.6,109.8,110.7,109.7,110.8,109.6z"/>
			<path fill="#FDF3F3" d="M107.8,93.5c0.8,1,1.8,1.8,2.9,2.4c-1.7,1.2-3.9,2.4-5.6,2.5c-0.9-0.5-2.2-1.3-2.3-2.3
				c-0.1-0.4-0.3-1.3-0.6-1.9c0-0.1,0-0.2,0-0.4c0.1-0.1,0.2-0.2,0.3-0.3c0.9-1.1,1.8-1.3,2.7-1.4C106,92.2,106.9,92.4,107.8,93.5z"
				/>
			<path fill="#FDF3F3" d="M141.1,111c3.2,0.3,2.9,1.9,9.5,0.8c5-0.2,6.1-0.5,7.8-1.7c2.6-2.2,3.7-4.1,4.4-5.7
				C156.2,107.7,148.9,110.1,141.1,111z M130.9,99.7l-5.9,5.5l7,5.7c3.9-3.1,6.6,0.4,16.9-4c3.7-1.2,7.4-2.4,11.1-3.6
				c1.9-1,3.8-1.6,5.7-2.8c0,0.9,0.1,2.1,0.1,3c3.2-0.2,5.7-1.1,8.9-1.3c-2.7-1.2-5.7-2.1-8.8-2.6c-5.9-1-12.2-0.5-17.8,2.2
				c2.6-6.5,20.8-5.4,25.5-3c4.9,1.6,10.2,3.6,15.9,4.6c-16.5-8.6-14.7-9-32.6-9.9c-1.5,0-3.1,0-4.7,0c-0.3-0.1-0.6-0.1-0.9-0.2
				c-1.2,2-2.5,2.9-4.2,4.4c-5.2,4-6.9,4.9-13.1,3.2c-0.7-0.2-1.3-0.4-2-0.6C131.7,100,131.3,99.8,130.9,99.7z M114.6,127.1
				c2.2,3,1.9,3.1,5.2,4.6c0.6,0.2,1.2,0.4,1.8,0.6c2,3.7,3,4.3,6.6,5.8c0.4-0.1,0.8-0.2,1.2-0.4c0.5-0.5,0.7-0.4,1.2-0.9
				c-4,0.3-5.6-5-7-8.3c-0.1-0.6-0.2-1.2-0.2-1.8l0,0h-9.5C114.1,126.9,114.3,127,114.6,127.1z M108.7,116.1c1-1.9,2.4-4.2,2.1-6.5
				c0,0,0-0.1,0-0.1c1.6,0.4,5.7-0.8,8.2-2.3c5.2-3,9.3-8.2,11.2-9.5c2.7,0.1,4.1,2.8,6.5,3c2.6,0.2,4.9,0.1,6.5-1.1l4-2.9
				c0.2-0.1,0.3-0.2,0.5-0.3l2-2.2c0.6-0.8,1.2-1.3,1.3-2.6c0.9,0.7,0.8,1.1,2.4,1.2c20.5,1,16.9-0.8,37.9,11
				c0.6,0.3,0.8,0.6,1.1,0.8c0.2,0.1,0.5,0.2,0.9,0.3c-3.5-0.4-13.1-2.8-16.6-3.8c-4-1.2-6.5-2.3-10.8-3.2c-3.1-0.7-14.5,0.1-16.4,3
				c4.8-1.9,13-3.5,21.3-0.4c2.3,0.9,3.7,1.2,6.3,2.1c-0.8,0.5-2.1,0.6-3.1,0.7c-1.1,0.1-2.2,0.1-3.2,0.3c-1.3,0.2-5.3,1.2-6.2,1.2
				c0.6-1.1,0.6-1.3,0.7-3c-1.1,0.6-1.5,1-3,1.7c-1.3,0.6-7,2.6-9.1,4.4c0.8-0.4,1.9-0.7,2.8-1l8-3.4c-0.5,1.7-2.1,4.7-3.5,5.8
				c-5.8,4.3-5,2.1-11.6,3.3c-5.1,1-7.1-1.3-10.4-1.5l0-0.2c3.4,0.2,11.5-1.6,14.1-3.4c-4,1.6-10.6,2.7-14.9,3.3
				c-0.9,0.1-2.4,0-3.3,0.2c-1.5,0.6-2.8,2.2-3.9,4c-1.2,1.8-2.2,3.9-3.2,5.4l2.3-3c1.3-1.7,2.6-3.7,4.8-4.7l-5.5,22.1
				c-1.2-0.8-2.8-2.9-4.3-6.4c0,0,1.9,8,5.3,8.1c0.7,0,1.4,0.1,2.1,0.1c-0.2,0.6-0.5,0.7-0.9,1.1c-0.6,0.5-1.1,1.1-1.6,1.3
				c0,0,0,0,0,0c-0.8-0.1-1.7-0.1-3.7-1.1c-0.8-0.4-1.4-0.8-2.1-1.2c-1-0.8-1.8-1.7-2.3-2.9c-0.5-1.1-4.9-1.9-6.4-4
				c-0.2-0.3-0.3-0.6-0.4-0.7c-0.2-0.1-1.2-1.3-3-2.1C108.7,125.4,106.8,119.7,108.7,116.1z M111.9,111c-2.6,5.6-5,10.5-0.6,14.2
				l12.2-0.1c0.5-2.3,1.6-4.7,2.8-6.9c1.9-3.1,3.3-5.1,4.6-6.4l-7.2-5.9c-2.6,1.5-4.8,2.5-7.7,3.8
				C114.8,110.1,113.3,110.6,111.9,111z"/>
			<path fill="#606161" d="M109.3,68.1L109.3,68.1C109.4,68.1,109.3,68.1,109.3,68.1L109.3,68.1z"/>
			<path fill="#606161" d="M105.8,112.8l0.4,0.3c-0.1,0.1-0.2,0.2-0.4,0.2V112.8z"/>
			<path fill="#606161" d="M105.8,112.5c2,0.1,2.2-0.6,4.7-2.7c0.1-0.1,0.2-0.1,0.3-0.2c-1.2,3.4-3.4,4.5-5,4.4v-0.6
				c0.1,0,0.2-0.1,0.4-0.2l-0.4-0.3V112.5z"/>
			<path fill="#FDF3F3" d="M101.2,102.2c2.7-0.9,3.3,0.1,4.9,0.1l-0.1,1.9c-0.3,0-0.6,0-0.8,0.1c-1.1,0.4-7.1-0.8-6.2-1
				C99.7,103.1,100.6,102.4,101.2,102.2z"/>
			<path fill="#606161" d="M105.8,113.4v0.6c-0.9-0.1-1.6-0.6-1.9-1.3C104.7,113.2,105.2,113.7,105.8,113.4z"/>
			<path fill="#606161" d="M105.8,112.5v0.3l-0.3-0.3C105.6,112.5,105.7,112.5,105.8,112.5z"/>
			<path fill="#606161" d="M105.5,112.5l0.3,0.3v0.6c-0.6,0.3-1.1-0.2-1.9-0.6c-0.1-0.1-0.1-0.3-0.1-0.4
				C104.4,112.5,105,112.6,105.5,112.5z"/>
			<path fill="#606161" d="M105.5,99.7c1.2-0.4,0.5-0.8-0.4-1.3c1.8-0.1,4-1.3,5.6-2.5c0.1,0.1,0.2,0.1,0.3,0.2
				c-2.5,3.4-4.7,4.7-7.2,3.9C104.3,100,104.8,99.9,105.5,99.7z"/>
			<path fill="#787878" d="M103.5,77.1c2.8-0.2,6-0.7,6.8-1c0.6-0.2,1.1-0.4,1.5-0.6c-0.1,0.3-0.2,0.5-0.2,0.8
				c0.7-0.2,1.3-0.7,2-1.3c2.7-0.6,4.4-0.3,7.6-1.1l0.1-0.1l1,0.3c0,0.2,0,0.3,0,0.5l-4.7,0.9l-5.5,1.7l-6.9,0l-1.8,0V77.1z"/>
			<path fill="#606161" d="M105,98.4c-0.1,0-0.1,0-0.2,0c0,0-2.7-1-2.8-4.2c0.3,0.6,0.6,1.5,0.6,1.9C102.9,97.1,104.1,97.8,105,98.4
				z"/>
			<path fill="#FDF3F3" d="M106.5,101.7c-2.2,0-3.2-1.1-5.4-0.1c-0.9,0.4-2.1,0.5-3,0.6c0.9-2,2.1-1.3,4.3-2.4
				c0.5-0.2,0.8,0.1,1.6,0.2c2.5,0.8,4.6-0.5,7.2-3.9c4.6,2.3,10.7,0.9,14.7-2.6c5.3-4.7,15.1-14.3,15.4-21.6l1.1,0.1
				c0.8,4.8-10.2,18.5-13.1,20.5c-2.3,1.7-4.1,7.1-6.1,9.8c-0.1,0.1-0.1,0.2-0.2,0.3c-1.1,1.3-2.3,2.7-3.9,3.9
				c-2.2,1.6-5.6,2.7-8.2,3.1c-0.1,0.1-0.2,0.2-0.3,0.3c-1.9,1.1-3.1,0.8-3.3,0.5c-0.9-1.8,0.2-0.9,0.2-1.7c-0.1-0.1-2.8-0.6-3-1.2
				c-0.2-0.7,1.6,0.4,1.8,0.5c3,0.7,3.3-0.9,5.6-1.7c1.6-0.6-0.1-0.6,1.1-0.7c0.6-0.1,2.1-0.9,1.8-1c-0.7-0.3-4.7-0.1-5.7,0
				c-0.8,0.1-2.1-0.2-3-0.2l0.1-1.9c0.1,0,0.3,0,0.4,0c1.6-0.2,2.2-0.3,3.9-0.3c1.9,0,3.5,0.4,4.2-1.5c0.6-1.5-0.5,1.3-2.7,1.1
				c-0.8-0.1-2.3-0.2-3,0C108.1,101.8,107.2,101.7,106.5,101.7z"/>
			<path fill="#606161" d="M98.9,109.6c1.9,1.6,3.5,2.4,4.9,2.8c0,0.2,0,0.3,0.1,0.4c-0.1-0.1-0.2-0.1-0.4-0.2
				c-1.7-0.7-3.2-1.3-4.7-1.9C98.9,110.4,98.9,110,98.9,109.6z"/>
			<path fill="#606161" d="M102.1,93.8c0,0.1,0,0.3,0,0.4c0-0.1-0.1-0.2-0.1-0.2C102,93.9,102,93.9,102.1,93.8z"/>
			<path fill="#606161" d="M99.3,96c1-0.5,1.9-1.2,2.7-2.1c0,0.1,0.1,0.1,0.1,0.2c0.1,3.2,2.8,4.2,2.8,4.2c0.1,0,0.1,0,0.2,0
				c1,0.6,1.6,0.9,0.4,1.3c-0.7,0.2-1.2,0.3-1.6,0.2c-1.5-0.5-3-1.7-4.9-3.7C99.1,96.2,99.2,96.1,99.3,96z"/>
			<path fill="#606161" d="M101.9,94c-0.1-0.1-0.2-0.2-0.2-0.3c0.1,0,0.3-0.1,0.4-0.1c0,0.1,0,0.2,0,0.2C102,93.9,102,93.9,101.9,94
				z"/>
			<path fill="#606161" d="M101.9,94c-0.8,0.9-1.7,1.5-2.7,2.1c0.8-0.8,1.5-1.6,2.3-2.3c0,0,0.1,0,0.1,0
				C101.8,93.7,101.9,93.8,101.9,94z"/>
			<path fill="#62AEE0" d="M98,111.1c2.6,5.6,5,10.5,0.6,14.2l-12.2-0.1c-0.4-2.3-1.6-4.8-2.8-6.9c-1.9-3.1-3.3-5.1-4.6-6.4l7.2-5.9
				c2.6,1.5,4.8,2.5,7.7,3.8C95.2,110.3,96.6,110.7,98,111.1z"/>
			<path fill="#606161" d="M97.9,94.8c0.9-0.3,1.8-0.6,2.8-1.3c0.9-0.6,1.5-0.7,2.8-1.6c0.6-0.7,2.4-0.8,3.3-0.2
				c1.7,1.1,2.5,3,4,3.9c0.1,0,0.2,0.1,0.2,0.1c-0.1,0.1-0.2,0.2-0.4,0.3c-1.1-0.6-2.1-1.4-2.9-2.4c-0.9-1.1-1.8-1.3-2.7-1.4
				c-0.9,0.1-1.9,0.3-2.7,1.4c-0.1,0.1-0.2,0.2-0.3,0.3c0-0.1,0-0.2,0-0.2c-0.1,0-0.3,0.1-0.4,0.1c-0.1-0.1-0.3-0.2-0.5-0.1
				C99,94.4,100.8,94.4,97.9,94.8z"/>
			<path fill="#606161" d="M99.8,68.3c-0.1,0-0.1,0-0.2,0L99.8,68.3L99.8,68.3z"/>
			<path fill="#606161" d="M97.7,102.2l-1-5.2l-0.1,0c0.9-0.2,1.8-0.5,2.6-0.9c-0.1,0.1-0.2,0.2-0.3,0.3c1.8,2,3.4,3.2,4.9,3.7
				c-0.8-0.1-1.2-0.4-1.6-0.2c-2.2,1.1-3.3,0.4-4.3,2.4L97.7,102.2z"/>
			<path fill="#606161" d="M99,103.3c-0.9,0.2,5.1,1.4,6.2,1c0.2-0.1,0.5-0.1,0.8-0.1c0.9,0,2.2,0.3,3,0.2c1-0.1,5-0.3,5.7,0
				c0.3,0.1-1.2,1-1.8,1c-1.3,0.2,0.5,0.2-1.1,0.7c-2.3,0.8-2.5,2.4-5.6,1.7c-0.2,0-2-1.1-1.8-0.5c0.2,0.6,2.9,1.1,3,1.2
				c-0.1,0.7-1.1-0.2-0.2,1.7c0.2,0.3,1.4,0.6,3.3-0.5c-2.4,2.1-2.7,2.8-4.7,2.7c-0.1,0-0.2,0-0.3,0l-7.3-7.1l-0.6-3.2l0.3-0.1
				c1-0.1,2.2-0.2,3-0.6c2.2-1,3.3,0.1,5.4,0.1c0.8,0,1.7,0.1,2.4-0.1c0.7-0.2,2.3-0.1,3,0c2.2,0.2,3.3-2.6,2.7-1.1
				c-0.7,1.9-2.3,1.5-4.2,1.5c-1.8,0-2.3,0.1-3.9,0.3c-0.1,0-0.3,0-0.4,0c-1.6,0-2.2-1-4.9-0.1C100.6,102.4,99.7,103.1,99,103.3z"/>
			<path fill="#606161" d="M98.6,75.4l6.7,0l6.6,0c0,0,0,0.1-0.1,0.1c-0.5,0.2-1,0.4-1.5,0.6c-0.7,0.3-3.9,0.7-6.8,1
				c-1.7-0.2-3.6-0.4-4.9-0.6l0-0.2c0-0.3-0.2-0.7-0.4-1L98.6,75.4z"/>
			<path fill="#606161" d="M98.6,76.4c-0.7-0.2-1.5-0.8-2.3-1.5l1.9,0.5C98.4,75.7,98.5,76,98.6,76.4z"/>
			<path fill="#FDF3F3" d="M98.2,75.3c-1-1.9-3.9-3.9-4.8-5.3c0.6-0.2,1.1-0.4,1.8-0.6l3.9,4.8h11.8l4-4.9c0.7,0.2,1.3,0.4,1.9,0.6
				c-0.9,1.5-3.9,3.6-4.9,5.5l-6.6,0l-6.7,0L98.2,75.3z"/>
			<path fill="#787878" d="M96.8,94.9c4.5-1.3,4.9-3.6,8.2-4.2c3.5,0.6,3.7,3.1,8.9,4.3c1.8,0.4,4.4-0.2,7.2-1.7
				c0.1,0.6,0,1.2-0.3,1.3c-1.7,0.7-7.4,1.6-9.6,1c0.1-0.2,0.2-0.3,0.4-0.5c-0.2,0.1-0.4,0.3-0.6,0.4c-0.1,0-0.2-0.1-0.2-0.1
				c-1.5-0.8-2.3-2.7-4-3.9c-0.9-0.6-2.7-0.5-3.3,0.2c-1.2,0.9-1.9,1-2.8,1.6c-1,0.7-1.9,1-2.8,1.3C97.6,94.9,97.2,94.9,96.8,94.9z"
				/>
			<path fill="#606161" d="M96.5,103.8c0.2-0.8-1.1-1.8-1.6-2.7c-0.9-1.5-2-2.2-2.6-3.9c1.5,0.2,3,0.2,4.4-0.1l0.1,0l1,5.2l0.6,3.2
				l7.3,7.1c-0.5,0-1.1-0.1-1.7-0.2c0-0.1,0-0.1,0-0.2c0-1.5-2.1-0.7-3.6-3.7c-0.6-1.3-2.2-1.5-3.6-2.3
				C95.3,105.3,96.1,105.3,96.5,103.8z"/>
			<path fill="#787878" d="M96.6,95c0.1,0,0.2,0,0.2,0c-0.2,0.1-0.4,0.1-0.7,0.2c0,0-0.1,0-0.1,0C96.3,95,96.5,95,96.6,95z"/>
			<path fill="#FDF3F3" d="M96.3,74.8L93.1,74l-8.8-1.6c2.6-0.3,5.3-0.9,7.9-1.7C93.4,71.5,94.9,73.4,96.3,74.8z"/>
			<path fill="#787878" d="M96.8,94.9c0.4,0,0.7-0.1,1-0.1c-0.6,0.2-1.1,0.4-1.7,0.7c-0.4,0.2-0.9,0.3-1.7,0.3
				c0.6-0.2,1.2-0.6,1.6-0.8c0,0,0.1,0,0.1,0C96.4,95.1,96.6,95,96.8,94.9z"/>
			<path fill="#606161" d="M96.7,97c-1.4,0.3-2.9,0.4-4.4,0.1c-0.1-0.2-0.1-0.4-0.2-0.6l0.7-0.3L96.7,97z"/>
			<path fill="#30302F" d="M94.6,50.7c0,1.4-0.9,2.5-2.1,2.6c-1.2,0.1-2.2-1-2.3-2.4c-0.1-1.4,0.9-2.5,2.1-2.6
				C93.6,48.2,94.6,49.3,94.6,50.7z"/>
			<path fill="#606161" d="M93.3,95.9c0.4,0,0.8,0,1.2,0C94.1,96,93.7,96.1,93.3,95.9z"/>
			<path fill="#606161" d="M96.7,97l-3.9-0.8l0.5-0.2c0,0,0,0,0,0c0.3,0.2,0.7,0.1,1.2,0c0,0,0,0,0,0c0.7,0,1.3-0.1,1.7-0.3
				c0.6-0.3,1.2-0.5,1.7-0.7c3-0.4,1.1-0.4,3.4-1.3c0.2-0.1,0.3,0,0.5,0.1c0,0-0.1,0-0.1,0c-0.8,0.8-1.6,1.6-2.3,2.3
				C98.4,96.4,97.6,96.8,96.7,97z"/>
			<path fill="#787878" d="M93.3,95.9C93.3,95.9,93.3,95.9,93.3,95.9L93.3,95.9C93.3,95.9,93.3,95.9,93.3,95.9z"/>
			<path fill="#606161" d="M93.3,95.9l-0.5,0.2l-1.4-0.3l-0.1-0.1C92,95.8,92.7,95.9,93.3,95.9z"/>
			<path fill="#787878" d="M85.8,92.7l5.5,3.1c-2.1-0.2-4.3-0.7-5.2-1.1c0,0-0.1,0-0.1-0.1C85.7,94.4,85.7,93.6,85.8,92.7z"/>
			<path fill="#606161" d="M93.7,62.2c0.2,0.7-2.4,0.8-10.1,0.5c-2.4-0.1-5-0.5-7.5-1.2L93.7,62.2z"/>
			<path fill="#606161" d="M88.6,104.9l0,0.5c-1.7-1.3-3.2-2.7-4.7-4.5c1.4,1.3,3,2.7,4.2,3.6C88.2,104.7,88.4,104.8,88.6,104.9z"/>
			<path fill="#787878" d="M86.1,91.6c3.8,2.7,7.6,4,10.1,3.5c-0.5,0.2-1.1,0.6-1.6,0.8c0,0,0,0,0,0c-0.4,0-0.7,0-1.2,0c0,0,0,0,0,0
				l0,0c-0.6,0-1.3-0.1-2-0.1l-5.5-3.1C85.9,92.3,86,92,86.1,91.6z"/>
			<path fill="#606161" d="M88.4,46C87,46.4,80.5,29.8,80.2,24l-1.1-0.6c3.5-3.2,7.6-5.4,11.8-6.9C87.3,25.6,84.1,41.2,88.4,46z"/>
			<path fill="#606161" d="M87.5,54.3c-0.6,0.3-8.4-1.7-15.8-15.8l-1.8-0.6c1.1-3,2.3-5.8,3.2-7.1c1.7-2.9,3.8-5.3,6.1-7.4l1.1,0.6
				c0,0-0.6,3.2-0.6,4.7C79.5,33.9,83,51.1,87.5,54.3z"/>
			<path fill="#787878" d="M87,80.2c-0.3,0.8-3.1,4.4-2.9,3.5c0.4-1.7,0.4-7.2,0.5-9.5l8.1,1.5l5.7,1.5l5.1,0l1.8,0l6.9,0l5.5-1.7
				l4.7-0.9c0.1,2.4,0.1,7.5,0.5,9c0.2,0.9-2.5-2.7-2.9-3.5c0.2,0.8,2.8,8.7,1.5,7.1c-2.7-3.5-1.2-0.6-1,2.5
				c0.1,0.6,0.6,2.4,0.7,3.7c-2.8,1.5-5.4,2.1-7.2,1.7c-5.2-1.2-5.4-3.8-8.9-4.3c-3.3,0.6-3.7,2.9-8.2,4.2c-0.1,0-0.1,0-0.2,0
				c-0.1,0-0.3,0.1-0.5,0.2c-2.4,0.5-6.2-0.8-10.1-3.5c0.2-0.8,0.4-1.5,0.4-1.9c0.3-3.1,1.8-6-1-2.5C84.2,88.9,86.8,81,87,80.2z"/>
			<path fill="#606161" d="M86.1,94.7c0.9,0.4,3.1,0.9,5.2,1.1l0.1,0.1l1.4,0.3L92,96.5c0.1,0.2,0.1,0.4,0.2,0.6
				C90,96.8,87.8,96,86,94.7L86.1,94.7C86,94.7,86.1,94.7,86.1,94.7z"/>
			<path fill="#606161" d="M93.2,131.4c-3.9,2.3-4,4.7-7.4,6.3c-1.8,0.9-2.7,1-3.5,1.1c0.1,0,0.1,0,0.2-0.1c2.4-1.1,5-2.4,6.2-5.1
				c0.6-1.2,5.2-2,6.2-4.6c0,0.1,0,0.2-0.1,0.3c0,0,0,0,0,0C94.6,129.9,94.2,130.8,93.2,131.4z"/>
			<path fill="#606161" d="M84.4,93.5c-0.6-0.5-1.3-1.1-2-1.8c-0.2-0.3-0.4-0.5-0.6-0.9c-0.1-0.1-0.3-0.4-0.3-0.6l4.3,2.4
				c-0.1,0.9-0.2,1.7,0.2,1.9l0,0.1C85.4,94.3,84.9,93.9,84.4,93.5z"/>
			<path fill="#787878" d="M92.7,75.8l-8.1-1.5c0,0,0-0.1,0-0.1l1-0.3l0.1,0.1c4.4,1,6,0.1,11,2.2c0.3,0.1,1,0.3,1.9,0.4
				c1.4,0.2,3.2,0.4,4.9,0.6v0.2l-5.1,0L92.7,75.8z"/>
			<path fill="#62AEE0" d="M85.1,105.3l-7,5.7c-3.9-3.1-6.6,0.4-16.9-4c-3.7-1.2-7.4-2.4-11.1-3.6c-1.9-1-3.8-1.6-5.7-2.8l-0.1-0.9
				c5.9-1,12.2-0.5,17.8,2.2c-2.6-6.5-20.8-5.4-25.5-3c-4.9,1.6-10.3,3.6-15.9,4.6c16.5-8.6,14.7-9,32.6-9.9c1.5,0,3.1,0,4.7,0
				c0.3-0.1,0.6-0.1,0.9-0.2c1.2,2,2.5,2.9,4.1,4.4c5.2,4,6.9,4.9,13.1,3.2c0.7-0.2,1.3-0.4,2-0.6c0.4-0.2,0.8-0.3,1.2-0.5
				L85.1,105.3z"/>
			<path fill="#606161" d="M84.4,93.5c0.5,0.4,1,0.8,1.5,1.2c1.9,1.3,4.1,2.1,6.3,2.4c0.6,1.7,1.7,2.4,2.6,3.9
				c0.6,1,1.9,1.9,1.6,2.7c-0.4,1.5-1.2,1.6,0.1,2.4c1.4,0.9,2.9,1.1,3.6,2.3c1.6,3.1,3.7,2.3,3.6,3.7c0,0.1,0,0.1,0,0.2
				c-1.5-0.3-3.1-1.2-4.9-2.8c0,0.4-0.1,0.8,0,1.1c-4.3-1.8-7.6-3.3-10.4-5.3l0-0.5c-0.2-0.1-0.3-0.2-0.5-0.4
				c-1.2-0.9-2.8-2.3-4.2-3.6c-0.2-0.3-0.5-0.6-0.7-0.9c-4.6-6.1-6.4-13-6.6-13.5c0.7,1.6,10.1,15.1,9.1,11.1
				c-0.7-2.7-1.6-3.7-3.1-5.8C83.1,92.4,83.8,93,84.4,93.5z"/>
			<path fill="#606161" d="M92.2,139.5c-0.9,0.2-9.3,1.8-10.4,1.8c-0.1-0.6-0.2-0.6-0.4-1c1.8-0.1,6.9-2.8,7.9-4.4
				c2.3-4,4.9-3.8,5.6-6.5c0,0,0,0,0,0c0.1-0.2,0.1-0.3,0.2-0.3c0.2-0.1,1.3-1.3,3-2.1c3-1.5,4.9-7.2,3-10.8c-0.9-1.6-2-3.5-2.1-5.4
				c1.4,0.6,3,1.2,4.7,1.9c0.1,0.1,0.3,0.1,0.4,0.2c0.2,0.7,1,1.2,1.9,1.3v24.7c-3,0.2-3.3,2.8-6.3,2.7c-1.2,0-2.7,3.4-8.6,0.1
				c0,0-0.1,0-0.1-0.1L92.2,139.5z"/>
			<path fill="#606161" d="M81,139c0.5-0.1,0.9-0.1,1.3-0.2C81.7,139,81.3,139.1,81,139z"/>
			<path fill="#606161" d="M90.8,141.5c-1.2,0.3-7.1,1.2-9.4,0.7l0.1-0.3c0,0,0.1,0,0.1,0C83.4,141,89.3,140.8,90.8,141.5
				L90.8,141.5z"/>
			<path fill="#606161" d="M81.5,142c-0.5-0.2-1.8-2.6-1.1-2.8c0.2-0.1,0.4-0.1,0.6-0.2c0.3,0.1,0.8,0,1.3-0.2
				c0.8-0.1,1.7-0.2,3.5-1.1c3.4-1.6,3.5-4.1,7.4-6.3c1.1-0.6,1.5-1.5,1.7-2c-0.7,2.8-3.3,2.5-5.6,6.5c-0.9,1.6-6,4.3-7.9,4.4
				c0.2,0.4,0.3,0.5,0.4,1c1.1-0.1,9.5-1.7,10.4-1.8l-1.4,1.9h0c-1.5-0.7-7.5-0.5-9.2,0.5C81.5,142,81.5,142,81.5,142z"/>
			<path fill="#FDF3F3" d="M85.6,97.5c1,4.1-8.3-9.5-9.1-11.1c0,0,0,0,0,0l0.4-0.3c1.9,2.1,3.8,4,5.6,5.6
				C84,93.8,84.9,94.8,85.6,97.5z"/>
			<path fill="#30302F" d="M87.5,54.3c-4.4-3.1-8-20.3-7.9-25.6c0-1.5,0.6-4.7,0.6-4.7c0.3,5.8,6.8,22.5,8.2,22.1
				c-4.3-4.8-1.1-20.4,2.5-29.6c2.8-1,5.6-1.7,8.4-2.1c2-0.3,3.9-0.5,5.8-0.5c1.9,0.1,3.8,0.2,5.8,0.5c9.6,1.5,20.1,6.2,26.2,16.4
				c2,3.3,6.5,15.1,5.8,19.1c-0.6,3.3-17.1,10-23,8.7c-4.6-1-9.7-1.1-14.8-1c-5.2-0.1-10.2,0-14.8,1c-0.7,0.1-1.4,0.2-2.3,0.1
				c-6.4-3.6-15.8-9.9-16.2-20.2C79,52.5,86.9,54.5,87.5,54.3z M117.8,53.2c1.2-0.1,2.2-1.2,2.1-2.6c-0.1-1.4-1.1-2.4-2.3-2.4
				c-1.2,0.1-2.2,1.2-2.1,2.6C115.6,52.2,116.6,53.3,117.8,53.2z M92.5,53.2c1.2-0.1,2.2-1.2,2.1-2.6c-0.1-1.4-1.1-2.4-2.3-2.4
				c-1.2,0.1-2.2,1.2-2.1,2.6C90.3,52.2,91.3,53.3,92.5,53.2z"/>
			<path fill="#62AEE0" d="M79.4,137c4,0.3,5.6-5,7-8.3c0.1-0.6,0.2-1.2,0.2-1.8h0h9.5c-0.2,0.1-0.5,0.2-0.7,0.3
				c-2.2,3-1.9,3.1-5.2,4.6c-0.6,0.2-1.2,0.4-1.8,0.6c-2.1,3.7-3,4.3-6.6,5.8c-0.4-0.1-0.8-0.2-1.2-0.3
				C80.1,137.4,80,137.6,79.4,137z"/>
			<path fill="#606161" d="M80.6,134.9l0.2,0.7l-0.7-0.1l-0.1-0.4C80.2,135.1,80.5,135,80.6,134.9z"/>
			<path fill="#606161" d="M75,112.3l5.6,22.7c-0.2,0.1-0.4,0.2-0.6,0.2l-4.4-15.9l-2-7.4C74,111.9,74.5,112.1,75,112.3z"/>
			<path fill="#FDF3F3" d="M75.6,119.2l4.4,15.9c-1.5,0.4-3.5,0.2-4.8-0.4c-0.4-0.2-0.4-0.2-0.8-0.4c0,0,0,0,0,0l-6.9-16.8
				c2.3,0.7,4.4,1.4,6.3,2.2L75.6,119.2z"/>
			<path fill="#30302F" d="M78.4,67.4l-2.5-6l0.2,0c2.5,0.7,5.2,1.1,7.5,1.2c7.6,0.3,10.3,0.2,10.1-0.5l11.5,0.5l30.6-1.2l-5.8,5
				l4.6,5.3h0c-3.3,0.9-6.4,1-9.6,0.6c1.9-0.3,3.9-0.7,6-1.1l-3.4-5.1l3-2.5c-19.2,0.8-32.8,0.7-52.1-0.1l1.9,4.5L80,68.4L77,71
				l7.3,1.4c-3.1,0.3-6.1,0.2-9.3-0.8L73.2,71l0,0l2.5-2.3L78.4,67.4z"/>
			<path fill="#606161" d="M77.6,73l-4.4-2l1.8,0.5c3.2,1,6.3,1.1,9.3,0.8l8.8,1.6l3.2,0.8c0.8,0.8,1.5,1.4,2.3,1.5l0,0.2
				c-0.9-0.1-1.6-0.3-1.9-0.4c-5-2.1-6.6-1.1-11-2.2l-0.1-0.1l-1,0.3c0,0,0,0.1,0,0.1L77.6,73z"/>
			<path fill="#FDF3F3" d="M76.5,86.4C76.5,86.4,76.5,86.4,76.5,86.4c0.1,0.5,2,7.5,6.6,13.5c0.2,0.3,0.5,0.6,0.7,0.9
				c-1-0.9-1.9-1.8-2.6-2.5l-3.8-5c-0.9-1.3-2.2-2.2-3.2-3.5c-1.8-2.5-3.1-4.2-4.1-7.3c-0.2-0.6-0.3-1.1-0.5-1.8
				c-0.4-1.3-0.9-2.9-1.4-4.5l1.6-0.6c1.3,3.5,4.1,7.2,7,10.5L76.5,86.4z"/>
			<path fill="#FDF3F3" d="M73.6,111.9l2,7.4l-1.8,0.5c-1.6-2.5-11.6-4.7-13-6l3.8,0.5c1.8,0.1,2.3-0.1,4-0.2
				c-0.8-0.2-1.2-0.3-1.4-0.8C70.6,112.2,71.4,111.4,73.6,111.9z"/>
			<path fill="#606161" d="M75,112.3c-0.6-0.2-1-0.3-1.5-0.4l-0.1-0.3L75,112.3z"/>
			<path fill="#606161" d="M74.4,134.3l0.2,0.6l-0.7-0.1l-0.4-0.9C73.9,134,74.1,134.1,74.4,134.3z"/>
			<path fill="#606161" d="M67.6,117.5l6.9,16.8c-0.3-0.2-0.6-0.3-0.9-0.5l-7.4-16.7C66.6,117.2,67.1,117.4,67.6,117.5z"/>
			<path fill="#606161" d="M75.7,68.7L73.2,71l-0.3-0.1c-0.6-2.5,0.8-2,1.2-3.9c-0.7-1-1.4-0.8-2.7-0.9c-4.1-0.5-6,1.1-6.1-2.7
				c0-0.3-0.1-1.1-0.1-1.7c-0.6-1.2-0.6-1.6-0.6-2.5c0-0.4,0.1-1,0.1-1.7c0-2.1-0.8-4-0.2-8.8c0.1-1.1,0.2-2.2,0.4-3.2l1.6,0.2
				l0.5,4.1l0.6,5.3l0.2,0.3c1.6,3.1,4.9,5.1,8.6,6.1l-0.2,0l2.5,6L75.7,68.7z"/>
			<path fill="#B7B7B7" d="M73.2,71l4.4,2l7,1.3c-0.1,2.2-0.1,7.8-0.5,9.5c-0.2,0.9,2.6-2.7,2.9-3.5c-0.2,0.8-2.8,8.7-1.5,7.1
				c2.7-3.5,1.2-0.6,1,2.5c0,0.4-0.2,1.1-0.4,1.9c-2.8-2-5.6-4.7-7.9-8C75,79,72.7,73.6,72,71l0.8-0.1L73.2,71L73.2,71z"/>
			<path fill="#606161" d="M69,90.7c3.7,0.8,4.1,6.8,3.5,7.1c-0.1,0.1-0.2,0.1-0.3,0.1c-1.3,0-2.4-4.8-4.7-3.9
				c-0.9,0.3-0.7,2.8-0.9,3.5c-0.2-0.1-0.4-0.1-0.6-0.2c-1.1-1.7-2.7-4.3-0.8-5.7c0.3,0.2,0.6,0.4,0.9,0.6c-0.1-0.1-0.2-0.7-0.2-1
				c0.2-0.1,0.3-0.1,0.5-0.2c0.6-0.2,1.1-0.3,1.6-0.3C68.3,91.5,68.7,91.8,69,90.7z"/>
			<path fill="#F9A64A" d="M69.1,90c0.2-1.5-0.1-2.7-0.5-3.6L70,86c0.2,0.3,0.3,0.6,0.5,0.9c1.2,1.9,1.6,3,3.5,5.1
				c1.3,1.4,2.8,3,3.8,4.8c-1.9,0.6-3.7,1-5.5,1.2l0-0.1c0.1,0,0.2,0,0.3-0.1c0.5-0.3,0.2-6.3-3.5-7.1C69,90.5,69.1,90.2,69.1,90z"
				/>
			<path fill="#FDF3F3" d="M71.4,131.8c-3.4-4.6-10.7-12.5-14.7-16.2l0.5-1.5l3,1c1.9,0.7,3.9,1.3,6,1.9l7.4,16.7
				C72.7,133.3,72.1,132.8,71.4,131.8z"/>
			<path fill="#606161" d="M71.7,38.4c0.4,10.4,9.8,16.7,16.2,20.2c-7-0.3-20.2-5.9-20.7-8.8c0-0.1,0-0.1,0-0.2
				c-0.3-2.5,1.1-7.4,2.7-11.7L71.7,38.4z"/>
			<path fill="#F9A64A" d="M72.2,98c-2,0.2-3.9,0.1-5.6-0.6c0.2-0.7,0-3.2,0.9-3.5c2.3-0.8,3.4,3.9,4.7,3.9L72.2,98z"/>
			<path fill="#606161" d="M70.5,132.9c-2.7-3.8-13-14-13.8-17.3c4,3.7,11.3,11.6,14.7,16.2c0.7,1,1.3,1.5,2.2,2l0.4,0.9l0.7,0.1
				l-0.2-0.6c0,0,0,0,0,0c0.4,0.2,0.3,0.2,0.8,0.4c1.3,0.6,3.3,0.8,4.8,0.4l0.1,0.4l0.7,0.1l-0.2-0.7c0.1,0,0.2-0.1,0.3-0.2
				c1.2-0.7,2.9-2.8,4.5-6.5c0,0-1.9,8-5.3,8.1c-0.7,0-1.4,0.1-2.1,0.1c0.2,0.6,0.5,0.7,1,1.1c0.8,0.7,1.3,1.3,2,1.5
				c-0.2,0-0.4,0.1-0.6,0.2c-0.7,0.2,0.6,2.6,1.1,2.8l-0.1,0.3c-0.4-0.1-0.7-0.2-0.8-0.5c-0.2-0.5-0.4-1-0.8-1.3
				c-0.4-0.3-0.9-0.2-1.2-0.6c-0.6-0.6,0-0.5-0.7-1.4C75.9,135.7,72.6,135.8,70.5,132.9z"/>
			<path fill="#F9A64A" d="M70,86l-1.5,0.4c-0.7-1.3-1.9-2.1-3.1-2.2c0.1-0.6,0-1.5-0.3-2.4c-0.9-2.1-0.5-6.7-1.9-6.7
				c-0.6,0,0,3.1-0.2,4.6c-0.4,2.2,0.2,3,0.8,4.5c-1.1,0.3-1.8,1.1-1.7,2.3c0.2,2.9,1.5,3.8,3.1,4.9c-1.9,1.4-0.3,4,0.8,5.7
				c-2.5-1.1-4.6-3.3-6.1-7.3c-3.2-8.4-5-26.5,2.3-27l1.4,2.5v0c0.3,1,0.4,2.8,0.5,4.2c0.1,1.5,0.3,1.2,1,1.9
				c0.6,0.5,0.6,1.1,0.9,2.1c0.5,1.5,0.9,2.8,1.4,4.6C68,80.3,68.9,83.7,70,86z"/>
			<path fill="#FDF3F3" d="M69.8,75.6l-1.6,0.6c-0.5-1.6-1-3.1-1.5-4.2l2.3-0.1C69.1,73.1,69.4,74.3,69.8,75.6z"/>
			<path fill="#30302F" d="M64.7,45.4c1.3-10.7,2.9-20.1,8.8-27.2c7.4-8.9,19.3-14.5,31.6-15c12.3,0.5,24.2,6,31.6,15
				c6.5,7.8,7.8,18.3,9.2,30.4c0.5,4.8-0.2,6.8-0.2,8.8c0,2.3,0.4,2.5-0.5,4.3c0,0.6-0.1,1.4-0.1,1.7c0,1.2-0.2,1.8-0.6,2.2
				c-0.9,0.9-2.6,0.2-5.5,0.5c-1.3,0.1-2-0.1-2.7,0.9c0.4,1.9,1.8,1.4,1.2,3.9l-2.2,0.7c-0.1,0-0.3,0.1-0.4,0.1l-4.6-5.3l5.8-5
				l-30.6,1.2l-11.5-0.5c-0.2-0.6-2.6-1.7-5.8-3.5c0.9,0,1.6,0,2.3-0.1c4.6-1,9.7-1.1,14.8-1c5.2-0.1,10.2,0,14.8,1
				c5.9,1.3,22.4-5.4,23-8.7c0.7-4-3.8-15.8-5.8-19.1c-6.2-10.2-16.6-14.9-26.2-16.4c-2-0.3-3.9-0.5-5.8-0.5
				c-1.9,0.1-3.8,0.2-5.8,0.5c-2.8,0.4-5.6,1.1-8.4,2.1c1-2.4,1.9-4.3,2.8-5.5l-9.5,3.3l-15.1,17l-2.9,14.4L64.7,45.4z"/>
			<path fill="#606161" d="M47.2,104.3c6.6,3.4,13.9,5.8,21.7,6.7c-3.2,0.3-2.9,1.9-9.5,0.8c-5-0.2-6.1-0.5-7.8-1.7
				C49,107.8,47.9,105.9,47.2,104.3z"/>
			<path fill="#606161" d="M69,90.7c-0.2,1.2-0.7,0.9-1-0.1C68.4,90.6,68.7,90.6,69,90.7z"/>
			<path fill="#F9A64A" d="M67.8,89.5c0.1,0.4,0.1,0.7,0.2,1c-0.5,0-1,0.1-1.6,0.3c-0.2,0.1-0.4,0.1-0.5,0.2c0-0.1,0-0.1,0-0.1
				c0-0.1-1.2-0.9-1.7-3c-0.3-1,0.1-1.7,0.6-1.9C65.7,85.7,67.4,86.6,67.8,89.5z"/>
			<path fill="#606161" d="M67.4,117.1l0.2,0.4c-0.5-0.1-0.9-0.3-1.4-0.4l-0.3-0.7L67.4,117.1z"/>
			<path fill="#606161" d="M67.2,49.8c0.5,2.9,13.6,8.5,20.7,8.8c3.2,1.8,5.6,2.9,5.8,3.5l-17.6-0.7c-3.7-1.1-7-3-8.6-6.1L67.4,55
				l-0.6-5.3l0.5-0.1C67.2,49.7,67.2,49.8,67.2,49.8z"/>
			<path fill="#606161" d="M69.9,37.9c-1.6,4.3-3,9.3-2.7,11.7l-0.5,0.1l-0.5-4.1l2.9-14.4l15.1-17l9.5-3.3
				c-0.9,1.2-1.9,3.1-2.8,5.5c-4.2,1.5-8.2,3.8-11.8,6.9c-2.3,2.1-4.4,4.5-6.1,7.4C72.2,32.1,71,34.8,69.9,37.9z"/>
			<path fill="#606161" d="M66.6,97.4c-0.1,0.3-0.2,0.3-0.6-0.2C66.2,97.2,66.4,97.3,66.6,97.4z"/>
			<path fill="#606161" d="M65.9,91.1c0,0.3,0.1,0.9,0.2,1c-0.3-0.2-0.6-0.4-0.9-0.6C65.4,91.3,65.6,91.2,65.9,91.1z"/>
			<path fill="#606161" d="M65.5,84.1c-0.1,0.7-0.4,0.9-0.7-0.1C65,84.1,65.3,84.1,65.5,84.1z"/>
			<path fill="#606161" d="M67.8,89.5c-0.4-2.9-2.1-3.8-3-3.4l-0.4-0.6l0.4-0.5c-0.2-0.2-0.4-0.6-0.5-0.9c0.2,0,0.4-0.1,0.6-0.1
				c0.2,0.9,0.6,0.7,0.7,0.1c1.2,0.2,2.4,0.9,3.1,2.2c0.5,0.9,0.7,2.1,0.5,3.6c0,0.3-0.1,0.5-0.1,0.7c-0.3-0.1-0.6-0.1-1-0.1
				C67.9,90.3,67.8,89.9,67.8,89.5z"/>
			<path fill="#606161" d="M62.2,62.8c0.2-0.9,0.9-2.7,1-3.8l1.3,0c0,0.9,0,1.4,0.6,2.5c0,0.6,0.1,1.4,0.1,1.7
				c0.1,3.9,2,2.3,6.1,2.7c1.3,0.1,2-0.1,2.7,0.9c-0.4,1.9-1.8,1.4-1.2,3.9L72,71c-0.1-0.3-0.1-0.5-0.2-0.7
				c-4.1,0.2-5.4,0.4-5.9-0.2c-0.8-0.9-0.1-2.2-2.5-5.1c0.1,0.1,0.1,0.3,0.2,0.5L62.2,62.8z"/>
			<path fill="#606161" d="M64.2,84.1c0.1,0.4,0.3,0.7,0.5,0.9l-0.4,0.5c-0.2-0.5-0.3-0.9-0.5-1.3C64,84.2,64.1,84.1,64.2,84.1z"/>
			<path fill="#F9A64A" d="M64.2,84.1c-0.2-0.6-0.3-1.3-0.4-1.9c-0.9-4.1,0.7-1.1,0.8-0.2c0.1,1,0.2,1.6,0.3,2
				C64.6,84.1,64.4,84.1,64.2,84.1z"/>
			<path fill="#606161" d="M65.2,91.4c-1.6-1.1-2.9-2-3.1-4.9c-0.1-1.2,0.7-2,1.7-2.3c0.2,0.4,0.3,0.8,0.5,1.3l0.4,0.6
				c-0.6,0.2-0.9,0.9-0.6,1.9c0.5,2.1,1.7,2.9,1.7,3c0,0,0,0.1,0,0.1C65.6,91.2,65.4,91.3,65.2,91.4z"/>
			<path fill="#606161" d="M66.3,72.2L65,69l-1.4-3.6v0c-0.1-0.2-0.1-0.3-0.2-0.5c2.5,2.9,1.8,4.2,2.5,5.1c0.5,0.6,1.8,0.4,5.9,0.2
				c0,0.2,0.1,0.5,0.2,0.7c0.7,2.6,3,8,6.2,12.6c2.3,3.3,5.1,6,7.9,8c-0.1,0.4-0.2,0.7-0.2,1.1l-4.3-2.4c0,0.2,0.2,0.5,0.3,0.6
				c0.2,0.3,0.4,0.6,0.6,0.9c-1.7-1.6-3.7-3.5-5.6-5.6c-3-3.3-5.7-7-7-10.5c-0.5-1.3-0.8-2.5-0.8-3.7L66.7,72L66.3,72.2z"/>
			<path fill="#606161" d="M63,79.7c0.3-1.5-0.3-4.6,0.2-4.6c1.4,0,1,4.5,1.9,6.7c0.4,0.9,0.4,1.8,0.3,2.4c-0.2,0-0.4-0.1-0.7-0.1
				c-0.1-0.4-0.2-1.1-0.3-2c-0.1-0.9-1.7-3.9-0.8,0.2c0.1,0.6,0.2,1.3,0.4,1.9c-0.1,0-0.2,0.1-0.4,0.1C63.1,82.6,62.6,81.8,63,79.7z
				"/>
			<path fill="#606161" d="M56.2,79.2l0.6-11.3l2.6-5.2l2.8,0.1c-7.3,0.5-5.5,18.7-2.3,27c1.5,3.9,3.6,6.2,6.1,7.3
				c0.3,0.5,0.5,0.5,0.6,0.2c1.7,0.7,3.6,0.8,5.6,0.6c1.8-0.2,3.7-0.6,5.5-1.2c-0.9-1.8-2.4-3.4-3.8-4.8c-1.9-2-2.3-3.1-3.5-5.1
				c-0.2-0.3-0.3-0.6-0.5-0.9c-1.1-2.2-2-5.7-2.5-7.9c-0.5-1.7-0.9-3.1-1.4-4.6c-0.3-0.9-0.3-1.5-0.9-2.1c-0.7-0.7-0.9-0.4-1-1.9
				c-0.1-1.4-0.2-3.2-0.5-4.2L65,69l1.3,3.2l0.3,0.7L70,85l5,7l3.8,4.8l-2.5,1.3L69,99l-4.2-1.8l-4-3.9L59.1,90L56.2,79.2z"/>
			<path fill="#787878" d="M59.8,59.7C55.7,65,54.1,72.2,55,81.5c-1.5-3.3-3.3-5.9-1.2-16.7c-2.4,1.6-4.2,4.2-4.5,9.8
				c-0.1-2.5-0.3-5-0.4-7.5c-3.2,1.3-6.3,2.6-9.5,3.9C47.1,65.1,50.5,61,59.8,59.7z"/>
			<path fill="#30302F" d="M59.8,59.7C50.5,61,47.1,65.1,39.3,71c3.2-1.3,6.3-2.6,9.5-3.9c0.1,2.5,0.3,5,0.4,7.5
				c0.3-5.6,2.2-8.2,4.5-9.8c-2.1,10.7-0.3,13.4,1.2,16.7C54.1,72.2,55.7,65,59.8,59.7z M16.4,104.8c0.2,0,0.3,0,0.4,0
				C16.7,104.8,16.5,104.8,16.4,104.8z M39.4,100.3c-2.3,0.9-3.7,1.2-6.3,2.1c0.9,0.5,2.1,0.6,3.1,0.7c1.1,0.1,2.2,0.1,3.2,0.3
				c1.3,0.2,5.3,1.2,6.2,1.2c-0.5-1.1-0.6-1.3-0.7-3c1.1,0.6,1.5,1,3,1.7c1.3,0.6,7,2.6,9.1,4.4c-0.8-0.4-1.9-0.7-2.8-1l-8-3.4
				c0.5,1.7,2.1,4.7,3.5,5.8c5.8,4.3,5,2.1,11.6,3.3c5.1,1,7.1-1.3,10.4-1.5l0-0.2c-3.4,0.2-11.5-1.6-14.1-3.4
				c4,1.6,10.6,2.7,14.9,3.3c0.9,0.1,2.4,0,3.3,0.2c3,1.1,5.1,6.4,7.1,9.4l-2.3-3c-1.4-1.9-2.9-4.1-5.5-4.9l-1.5-0.7l0.1,0.3
				c-2.2-0.4-3,0.3-6.3,1.3c0.2,0.5,0.6,0.6,1.4,0.8c-1.8,0.1-2.2,0.3-4,0.2l-3.8-0.5c1.4,1.3,11.4,3.5,13,6c-1.8-0.9-4-1.6-6.3-2.2
				l-0.2-0.4l-1.5-0.7l0.3,0.7c-2.1-0.6-4.1-1.2-6-1.9l-3-1l-3.4-1.2c-1.9-0.7-4.1-2.2-5.6-3.7c-0.6-0.6-0.9-1.2-1.4-1.9
				c-0.8-1.1-0.2-1-1.7-1.3c-2.4-0.5-5-1.2-7.5-1.3c-2.1-0.1-3.3-0.6-5.2-0.8c-4.1-0.4-5.6-0.1-9.4,0.9c-0.5,0.1-0.8,0.3-1.2,0.4
				c-0.8,0.2-1.5,0.4-2.4,0.6c-1.7,0.5-4-0.1-5.4,0.6c-0.6,0.3-1.9,0.4-2.8,0.3c-1.7-0.2-3.7-3.6-4.1-5.3c-0.6-2.8-0.4-2.9,0-5.7
				C7.1,95,7.1,95,7.3,94.4c0.3-1.3,0.6-2.5,1.5-3.4L23,80c1.3-0.8,2.3-1.8,3.6-2.6l9.3-6.4c0.7-0.5,1.2-0.9,1.9-1.4
				c1.3-1,2.5-1.6,3.8-2.5c0.4-0.3,0.5-0.5,0.9-0.7l2.7-1.9c4.1-2.9,7.4-5.2,12.6-6.3c1.8-0.4,3.7-0.8,5.2,0.1
				c0.2,0.2,0.3,0.5,0.3,0.8c0,1.1-0.8,2.9-1,3.8l-2.8-0.1l-2.6,5.2l-0.6,11.3l3,10.8l1.7,3.2l4,3.9L69,99l7.4-0.9l2.5-1.3L75,92.1
				l-5-7l-3.4-12.2l-0.3-0.7l0.4-0.2c0.5,1.1,1,2.6,1.5,4.2c0.5,1.6,1,3.2,1.4,4.5c0.2,0.7,0.3,1.2,0.5,1.8c0.9,3.1,2.2,4.8,4.1,7.3
				c0.9,1.3,2.2,2.2,3.2,3.5l3.8,5c0.7,0.8,1.6,1.7,2.6,2.5c1.5,1.8,3,3.3,4.7,4.5l-0.1,1.3c0,0.2,0,0.1,0,0c-1-0.3-8.4-6.3-8.8-7.9
				c-2.7,0.1-3.6,1.8-6,2c-2.6,0.2-4.9,0.1-6.5-1.1l-4-2.9c-0.2-0.1-0.3-0.2-0.5-0.3l-2-2.2c-0.6-0.8-1.2-1.3-1.3-2.6
				c-0.9,0.7-0.8,1.1-2.4,1.2c-20.5,1-16.9-0.8-37.9,11c-1,0.6-1,0.9-2,1c3-0.5,5.4-1,7.8-1.5c3.5-0.8,7-1.8,8.8-2.3
				c4-1.2,6.5-2.3,10.8-3.2c3.1-0.7,14.6,0.1,16.4,3C55.9,98.8,47.7,97.2,39.4,100.3z M40.7,80.5c0.5-2.1,2.2-3.5,4-3.4
				c-0.2-0.1-0.4-0.2-0.7-0.3c-2.1-0.6-4.2,0.9-4.7,3.2s0.7,4.8,2.8,5.4c0.2,0.1,0.5,0.1,0.7,0.1C41.2,84.7,40.2,82.6,40.7,80.5z"/>
			<path fill="#62AEE0" d="M44.3,100.6c0,0.9-0.1,2.1-0.1,3c-3.2-0.2-5.7-1.1-8.9-1.3c2.7-1.2,5.7-2.1,8.8-2.6L44.3,100.6z"/>
			<path fill="#606161" d="M44.7,77.2c-1.8-0.1-3.5,1.3-4,3.4c-0.5,2.1,0.4,4.2,2.1,5.1c-0.2,0-0.5-0.1-0.7-0.1
				c-2.1-0.6-3.3-3-2.8-5.4s2.6-3.8,4.7-3.2C44.3,76.9,44.5,77,44.7,77.2z"/>
			<path fill="#FDF3F3" d="M78.9,111.9c1.3,1.3,2.7,3.3,4.6,6.4c1.3,2.1,2.4,4.6,2.8,6.9l12.2,0.1c4.4-3.7,2-8.6-0.6-14.2
				c-1.4-0.4-2.8-0.9-4.2-1.3c-2.9-1.3-5-2.3-7.7-3.8L78.9,111.9z M79.4,137c0.5,0.5,0.7,0.4,1.2,0.9c0.4,0.1,0.8,0.2,1.2,0.3
				c3.6-1.5,4.6-2.1,6.6-5.8c0.6-0.2,1.2-0.4,1.8-0.6c3.3-1.6,3-1.6,5.2-4.6c0.2-0.1,0.5-0.2,0.7-0.3h-9.5h0c0,0.6,0,1.3-0.2,1.8
				C85.1,132,83.5,137.4,79.4,137z M68.8,111c-7.7-0.9-15.1-3.2-21.7-6.7c0.7,1.6,1.8,3.5,4.4,5.7c1.6,1.2,2.7,1.5,7.8,1.7
				C65.9,112.8,65.7,111.2,68.8,111z M35.3,102.2c3.2,0.2,5.7,1.1,8.9,1.3c0-0.9,0.1-2.1,0.1-3c1.9,1.3,3.8,1.9,5.7,2.8
				c3.7,1.2,7.4,2.4,11.1,3.6c10.2,4.4,12.9,0.9,16.9,4l7-5.7l-5.9-5.5c-0.4,0.2-0.8,0.3-1.2,0.5c-0.7,0.2-1.3,0.4-2,0.6
				c-6.2,1.7-7.9,0.8-13.1-3.2c-1.7-1.5-2.9-2.4-4.1-4.4c-0.3,0.1-0.6,0.1-0.9,0.2c-1.5,0-3.1,0-4.7,0c-17.8,0.9-16.1,1.3-32.6,9.9
				c5.6-1,11-3,15.9-4.6c4.8-2.4,22.9-3.6,25.5,3c-5.5-2.7-11.9-3.2-17.8-2.2C41,100.2,38,101.1,35.3,102.2z M33.1,102.4
				c2.7-0.9,4-1.2,6.3-2.1c8.3-3.1,16.4-1.5,21.3,0.4c-1.9-2.8-13.3-3.6-16.4-3c-4.2,0.9-6.8,2.1-10.8,3.2c-1.8,0.5-5.4,1.5-8.8,2.3
				c-2.4,0.6-4.7,1.1-7.8,1.5c1-0.1,1-0.5,2-1c21-11.8,17.4-10,37.9-11c1.6-0.1,1.5-0.5,2.4-1.2c0.1,1.3,0.7,1.8,1.3,2.6l2,2.2
				c0.2,0.1,0.3,0.2,0.5,0.3l4,2.9c1.5,1.2,3.9,1.3,6.5,1.1c2.4-0.2,3.3-1.9,6-2c0.4,1.6,7.8,7.6,8.8,7.9c0,0.1,0,0.2,0,0l0.1-1.3
				c2.8,2.1,6.1,3.6,10.4,5.3c0.2,1.9,1.3,3.8,2.1,5.4c1.9,3.6,0,9.3-3,10.8c-1.7,0.9-2.7,2-3,2.1c-0.1,0-0.1,0.2-0.2,0.3
				c0-0.1,0-0.2,0.1-0.3c-1.1,2.6-5.7,3.4-6.2,4.6c-1.3,2.6-3.8,4-6.2,5.1c-0.1,0-0.1,0.1-0.2,0.1c-0.4,0-0.8,0.1-1.3,0.2
				c-0.7-0.2-1.2-0.8-2-1.5c-0.5-0.4-0.8-0.5-1-1.1c0.7,0,1.4-0.1,2.1-0.1c3.4-0.1,5.3-8,5.3-8.1c-1.6,3.7-3.2,5.8-4.5,6.5
				c-0.1,0.1-0.2,0.1-0.3,0.2L75,112.3c2.6,0.8,4,3.1,5.5,4.9l2.3,3c-1.9-3-4.1-8.2-7.1-9.4c-1-0.2-2.5-0.1-3.3-0.2
				c-4.2-0.6-10.8-1.7-14.9-3.3c2.6,1.8,10.7,3.6,14.1,3.4l0,0.2c-3.2,0.1-5.3,2.4-10.4,1.5c-6.6-1.2-5.8,1-11.6-3.3
				c-1.4-1-3-4.1-3.5-5.8l8,3.4c0.9,0.4,2,0.7,2.8,1c-2.1-1.8-7.8-3.7-9.1-4.4c-1.5-0.7-1.9-1.1-3-1.7c0.1,1.6,0.1,1.9,0.7,3
				c-0.9,0-4.9-1-6.2-1.2c-1-0.2-2.2-0.2-3.2-0.3C35.3,103,34,102.9,33.1,102.4z"/>
			<path fill="#606161" d="M8.7,106.5c-1.1,0.1-2.2,0.2-3.4,0.3c-1.2-1.7-2.1-3.8-2.6-6.1c-0.9-3.9-1-5.7,2.8-7.5
				C4.5,99.3,5.3,104.6,8.7,106.5z"/>
		</g>
		<g>
		</g>
	</g>
</g>
<g>
</g>
<g>
</g>
<g>
</g>
<g>
</g>
<g>
</g>
<g>
</g>
<g>
</g>
<g>
</g>
<g>
</g>
<g>
</g>
<g>
</g>
<g>
</g>
<g>
</g>
<g>
</g>
<g>
</g>
</svg>
